<svg width="35" height="35" viewBox="0 0 35 35" fill="none" xmlns="http://www.w3.org/2000/svg">
<path fill-rule="evenodd" clip-rule="evenodd" d="M24.0826 31.354H11.9087C7.43689 31.354 4.0063 29.7388 4.98075 23.2381L6.11538 14.428C6.71606 11.1843 8.78509 9.94287 10.6005 9.94287H25.4441C27.2862 9.94287 29.2351 11.2777 29.9293 14.428L31.0639 23.2381C31.8915 29.0047 28.5544 31.354 24.0826 31.354Z" stroke="white" stroke-width="1.5" stroke-linecap="round" stroke-linejoin="round"/>
<path opacity="0.4" d="M24.2828 9.62261C24.2828 6.14292 21.4619 3.32208 17.9823 3.32208V3.32208C16.3066 3.31498 14.6972 3.97565 13.5098 5.158C12.3225 6.34035 11.655 7.94697 11.655 9.62261H11.655" stroke="white" stroke-width="1.5" stroke-linecap="round" stroke-linejoin="round"/>
<path d="M22.3072 16.1901H22.2405" stroke="white" stroke-width="1.5" stroke-linecap="round" stroke-linejoin="round"/>
<path d="M13.8042 16.1901H13.7375" stroke="white" stroke-width="1.5" stroke-linecap="round" stroke-linejoin="round"/>
</svg>
