<svg width="89" height="50" viewBox="0 0 89 50" fill="none" xmlns="http://www.w3.org/2000/svg">
<path d="M75.0928 6.20473H63.0109C62.5505 6.20473 62.1321 6.39229 61.8285 6.69422C61.5255 6.99681 61.3373 7.41315 61.3373 7.87204V38.3018C61.3373 38.7607 61.5255 39.1777 61.8285 39.4796C62.1321 39.7822 62.5505 39.9697 63.0109 39.9697H65.2263L65.2277 39.9571L65.2303 39.9352L65.2403 39.854L65.245 39.8201L65.2537 39.7556L65.2617 39.6984L65.2684 39.6552L65.277 39.598L65.285 39.5501L65.2944 39.4916L65.2951 39.4862L65.3111 39.3965L65.3124 39.3905L65.3304 39.2954V39.2947L65.3431 39.2295L65.3498 39.1943L65.3624 39.1324L65.3718 39.0885L65.3825 39.0393L65.3958 38.9795L65.4058 38.9349L65.4172 38.8884L65.4318 38.8272L65.4332 38.8232L65.4545 38.7394L65.4572 38.7301L65.4819 38.6376L65.5066 38.5492L65.5079 38.5445L65.5279 38.474L65.5366 38.4434L65.554 38.3856L65.5706 38.331L65.5813 38.2965L65.6007 38.2346L65.616 38.1881L65.6287 38.1508L65.6487 38.091L65.6494 38.0896L65.6807 37.9998L65.6821 37.9965L65.7134 37.9101L65.7148 37.9067L65.7308 37.8628L65.7541 37.801L65.7688 37.7624L65.7882 37.7125L65.8075 37.6647L65.8289 37.6115L65.8456 37.5715L65.8776 37.4957L65.8836 37.4804L65.9056 37.4292L65.951 37.3261L65.9643 37.2955L65.9703 37.2822L65.9803 37.2616L66.011 37.1958L66.0344 37.1452L66.0484 37.1153L66.0764 37.0568L66.1005 37.0076L66.1171 36.9743L66.1485 36.9125L66.1605 36.8879L66.1692 36.8719L66.2112 36.7914L66.2126 36.7888L66.2573 36.7063L66.2633 36.6957L66.2759 36.6724L66.312 36.6079L66.3253 36.5839L66.362 36.5194L66.3801 36.4882L66.4114 36.435L66.4374 36.3911L66.4575 36.3571L66.4895 36.3039L66.4921 36.2993L66.5382 36.2248L66.5415 36.2195L66.5916 36.1403L66.5962 36.1324L66.6423 36.0619L66.6483 36.0526L66.7324 35.9269L66.7624 35.8836L66.7871 35.8477L66.8331 35.7832L66.8425 35.7699L66.8892 35.7047L66.9039 35.6854L66.9092 35.6781L66.9646 35.603L66.9686 35.5983L67.0313 35.5158L67.0453 35.4972L67.0907 35.4394L67.1154 35.4081L67.1568 35.3556L67.1781 35.3296L67.2255 35.2711L67.2415 35.2518L67.2909 35.1933L67.3069 35.174L67.3149 35.1647L67.3756 35.0942L67.3776 35.0915L67.437 35.0237L67.449 35.0104L67.4991 34.9545L67.5064 34.9466L67.5451 34.9047L67.5798 34.8674L67.6078 34.8368L67.6539 34.7876L67.6772 34.763L67.722 34.7171L67.7446 34.6938L67.7553 34.6832L67.8207 34.6174C69.4556 32.9873 71.715 31.9791 74.2106 31.9791C76.7062 31.9791 78.9657 32.9873 80.6004 34.6174L80.6658 34.6832L80.6765 34.6938L80.6992 34.7171L80.7439 34.763L80.7673 34.7876L80.8133 34.8368L80.8413 34.8674L80.8754 34.9047L80.9141 34.9466L80.9214 34.9545L80.9715 35.0104L80.9835 35.0237L81.0429 35.0915L81.0449 35.0942L81.1056 35.1647L81.1129 35.174L81.1289 35.1933L81.1783 35.2518L81.1943 35.2711L81.2417 35.3296L81.2631 35.3556L81.3044 35.4081L81.3291 35.4394L81.3738 35.4972L81.3885 35.5158L81.4512 35.5983L81.4552 35.603L81.5106 35.6781L81.516 35.6854L81.5306 35.7047L81.5774 35.7699L81.5867 35.7832L81.6327 35.8477L81.6574 35.8836L81.6868 35.9269L81.7168 35.9707L81.7715 36.0526L81.7775 36.0619L81.8236 36.1324L81.8283 36.1403L81.8783 36.2195L81.8816 36.2248L81.9277 36.2993L81.9304 36.3039L81.9624 36.3571L81.9824 36.3911L82.0084 36.435L82.0398 36.4882L82.0578 36.5194L82.0945 36.5839L82.1078 36.6079L82.1439 36.6724L82.1566 36.6957L82.1626 36.7063L82.2066 36.7888L82.2086 36.7914L82.2506 36.8719L82.2586 36.8879L82.2707 36.9125L82.3027 36.9743L82.3194 37.0076L82.3434 37.0568L82.3714 37.1153L82.3854 37.1452L82.4088 37.1958L82.4395 37.2616L82.4488 37.2822L82.4555 37.2955L82.4688 37.3261L82.5142 37.4292L82.5362 37.4804L82.5422 37.4957L82.5743 37.5715L82.6116 37.6647L82.631 37.7125L82.6503 37.7624L82.665 37.801L82.6877 37.8628L82.7037 37.9067L82.7051 37.9101L82.7364 37.9965L82.7378 37.9998L82.7691 38.0896L82.7698 38.091L82.7898 38.1508L82.8018 38.1881L82.8172 38.2346L82.8372 38.2965L82.8479 38.331L82.8645 38.3856L82.8819 38.4434L82.8906 38.474L82.9106 38.5445L82.9119 38.5492L82.9366 38.6376L82.9613 38.7301L82.9633 38.7394L82.9846 38.8232L82.986 38.8272L83.0007 38.8884L83.0113 38.9349L83.0213 38.9795L83.0347 39.0393L83.0454 39.0885L83.0547 39.1324L83.0674 39.1943L83.0741 39.2295L83.0867 39.2947V39.2954L83.1048 39.3905L83.1061 39.3965L83.1221 39.4862L83.1228 39.4916L83.1321 39.5501L83.1401 39.598L83.1488 39.6552L83.1555 39.6984L83.1635 39.7556L83.1722 39.8201L83.1768 39.854L83.1868 39.9352L83.1895 39.9571L83.1908 39.9697H85.2828C85.7432 39.9697 86.1609 39.7822 86.4645 39.4796C86.7681 39.1777 86.9556 38.7607 86.9556 38.3018V34.8587H83.842C83.4937 34.8587 83.1768 34.7164 82.9465 34.4876H82.9445C82.715 34.2581 82.5722 33.9416 82.5722 33.5931V30.061C82.5722 29.7125 82.715 29.3959 82.9452 29.1658L82.9465 29.1671C83.1774 28.937 83.495 28.7947 83.8427 28.7947H86.9563V21.9726L76.4759 6.91758C76.3117 6.68148 76.1102 6.50125 75.8827 6.38287C75.6584 6.26582 75.3935 6.20463 75.0993 6.20463L75.0928 6.20473ZM18.0339 49.659C17.6569 49.659 17.3506 49.3537 17.3506 48.9773C17.3506 48.6016 17.6569 48.2963 18.0339 48.2963H25.4455C25.0538 48.0143 24.6848 47.7011 24.3438 47.3612C22.9359 45.9579 21.9904 44.0932 21.7548 42.0142H15.7886C14.6622 42.0142 13.64 41.556 12.8993 40.8177C12.1579 40.0795 11.6988 39.06 11.6988 37.938V32.1121C11.6988 30.9901 12.1586 29.9706 12.8993 29.2324C13.6399 28.4942 14.6629 28.0359 15.7886 28.0359H20.3042V1.02153C20.3042 0.457561 20.7633 0 21.3291 0H52.3663C52.9321 0 53.3912 0.457561 53.3912 1.02153V28.0359H57.2481C57.9901 28.0359 58.6874 28.2348 59.2886 28.582V7.8738C59.2886 6.85094 59.7063 5.92318 60.3803 5.25153C61.0542 4.57982 61.9851 4.16349 63.0113 4.16349H75.0932C75.7111 4.16349 76.2957 4.30714 76.8215 4.58115C77.3439 4.85383 77.7957 5.25153 78.1514 5.76229L88.7684 21.0134C88.9133 21.1897 89 21.4151 89 21.6599V38.3044C89 39.3272 88.5823 40.255 87.9083 40.9266C87.2344 41.5983 86.3035 42.0147 85.2773 42.0147H83.1854C82.9498 44.0937 82.0043 45.9585 80.5964 47.3617C80.2554 47.7016 79.887 48.0148 79.4947 48.2968H85.0846C85.4616 48.2968 85.7679 48.602 85.7679 48.9778C85.7679 49.3542 85.4616 49.6595 85.0846 49.6595H76.6761C75.8907 49.881 75.0626 50 74.2065 50C73.3503 50 72.5216 49.881 71.7368 49.6595H62.8347C62.457 49.6595 62.1507 49.3542 62.1507 48.9778C62.1507 48.602 62.457 48.2968 62.8347 48.2968H68.9189C68.5266 48.0148 68.1582 47.7016 67.8172 47.3617C66.4093 45.9584 65.4631 44.0937 65.2282 42.0147H63.0128C61.9865 42.0147 61.055 41.5983 60.3817 40.9266C60.323 40.8674 60.2656 40.8069 60.2109 40.7444C60.1876 40.7697 60.1635 40.7943 60.1389 40.8182C59.3975 41.5564 58.3753 42.0147 57.2495 42.0147H39.7144C39.4788 44.0937 38.5333 45.9585 37.1254 47.3617C36.7844 47.7016 36.416 48.0148 36.0237 48.2968H53.183C53.5607 48.2968 53.8663 48.602 53.8663 48.9778C53.8663 49.3542 53.5607 49.6595 53.183 49.6595H33.2051C32.4203 49.881 31.5916 50 30.7354 50C29.8793 50 29.0506 49.881 28.2658 49.6595H18.0363L18.0339 49.659ZM58.8064 49.659C58.4287 49.659 58.1231 49.3537 58.1231 48.9773C58.1231 48.6016 58.4287 48.2963 58.8064 48.2963H59.9314C60.3091 48.2963 60.6147 48.6016 60.6147 48.9773C60.6147 49.3537 60.3091 49.659 59.9314 49.659H58.8064ZM43.1886 24.623C42.9056 24.623 42.6761 24.3942 42.6761 24.1122C42.6761 23.8302 42.9056 23.6014 43.1886 23.6014H47.0441C47.327 23.6014 47.5566 23.8302 47.5566 24.1122C47.5566 24.3942 47.327 24.623 47.0441 24.623H43.1886ZM22.3548 28.0354H51.342V2.0425H41.174V10.1834C41.174 10.5592 40.8684 10.8645 40.4907 10.8645C40.3293 10.8645 40.1811 10.8086 40.0643 10.7155L36.8667 8.47696L33.5916 10.7422C33.282 10.955 32.8576 10.8779 32.6441 10.5693C32.5627 10.4516 32.5233 10.3166 32.5233 10.1836H32.5213V2.04264H22.3538V28.0355L22.3548 28.0354ZM59.2888 32.1121C59.2888 31.5542 59.0586 31.0454 58.6882 30.6763C58.3179 30.3072 57.8081 30.0784 57.2482 30.0784H15.7891C15.2286 30.0784 14.7188 30.3072 14.3484 30.6763C13.9781 31.0454 13.7479 31.5535 13.7479 32.1121V37.9381C13.7479 38.4961 13.9781 39.0042 14.3484 39.3733C14.7188 39.7424 15.2286 39.9719 15.7891 39.9719H21.7553C21.9909 37.8929 22.9364 36.0281 24.3443 34.6248C25.9798 32.9948 28.2393 31.9865 30.7342 31.9865C33.2298 31.9865 35.4893 32.9948 37.1241 34.6248C38.532 36.0281 39.4782 37.8929 39.7131 39.9719H57.2482C57.8081 39.9719 58.3186 39.7424 58.6882 39.3733C59.0586 39.0049 59.2888 38.4961 59.2888 37.9381V32.1121ZM86.9504 33.8394V29.8178H83.8368C83.7687 29.8178 83.7074 29.8444 83.664 29.8876V29.8896C83.6193 29.9342 83.5913 29.9954 83.5913 30.0625V33.5946C83.5913 33.6611 83.6186 33.723 83.6633 33.7669L83.6627 33.7676C83.7067 33.8114 83.7688 33.8387 83.8368 33.8387H86.9504L86.9504 33.8394ZM0.51314 21.4746C0.23022 21.4746 0 21.2458 0 20.9638C0 20.6819 0.229554 20.4531 0.51314 20.4531H1.03829C1.32121 20.4531 1.55076 20.6819 1.55076 20.9638C1.55076 21.2458 1.32121 21.4746 1.03829 21.4746H0.51314ZM5.23217 21.4746C4.94925 21.4746 4.7197 21.2458 4.7197 20.9638C4.7197 20.6819 4.94925 20.4531 5.23217 20.4531H15.9468C16.2297 20.4531 16.4593 20.6819 16.4593 20.9638C16.4593 21.2458 16.2297 21.4746 15.9468 21.4746H5.23217ZM7.76584 14.6664C7.48292 14.6664 7.25337 14.4376 7.25337 14.155C7.25337 13.873 7.48292 13.6442 7.76584 13.6442H15.9468C16.2297 13.6442 16.4593 13.873 16.4593 14.155C16.4593 14.437 16.2297 14.6664 15.9468 14.6664H7.76584ZM33.8867 2.04352V8.88574L36.4504 7.11339C36.6806 6.93515 37.0096 6.91853 37.2605 7.09476L39.8054 8.87649V2.04431H33.8867L33.8867 2.04352ZM65.221 26.2232C64.9381 26.2232 64.7085 25.9944 64.7085 25.7124C64.7085 25.4304 64.9381 25.2017 65.221 25.2017H67.7586C68.0415 25.2017 68.2711 25.4304 68.2711 25.7124C68.2711 25.9944 68.0415 26.2232 67.7586 26.2232H65.221ZM30.7332 37.9602C31.5733 37.9602 32.3347 38.2994 32.8853 38.8488L32.924 38.8907C33.4518 39.436 33.7768 40.1776 33.7768 40.9937C33.7768 41.829 33.4365 42.5872 32.8853 43.1358L32.8826 43.1385C32.3321 43.6872 31.5714 44.027 30.7333 44.027C29.8932 44.027 29.1325 43.6872 28.5812 43.1385L28.5419 43.0959C28.014 42.5492 27.6897 41.8084 27.6897 40.9936C27.6897 40.159 28.0307 39.4001 28.5826 38.8501L28.5812 38.8488C29.1318 38.3001 29.8931 37.9602 30.7333 37.9602L30.7332 37.9602ZM31.919 39.8118C31.616 39.5098 31.1963 39.3223 30.7332 39.3223C30.2701 39.3223 29.8511 39.5098 29.5475 39.8118L29.5461 39.8104L29.5448 39.8118C29.2432 40.1124 29.0563 40.53 29.0563 40.9936C29.0563 41.4418 29.2312 41.8482 29.5161 42.1461L29.5475 42.1754C29.8504 42.478 30.2701 42.6649 30.7332 42.6649C31.1977 42.6649 31.6174 42.478 31.9203 42.1767C32.2226 41.8748 32.4101 41.4565 32.4101 40.9936C32.4101 40.546 32.2346 40.1396 31.949 39.8397L31.919 39.8118ZM35.6737 36.0696C34.4092 34.8093 32.6629 34.0299 30.7331 34.0299C28.804 34.0299 27.057 34.8093 25.7925 36.0696C24.528 37.3298 23.746 39.071 23.746 40.9937C23.746 42.9164 24.5281 44.6576 25.7925 45.9178C27.0564 47.1781 28.8033 47.9575 30.7331 47.9575C32.6629 47.9575 34.4093 47.178 35.6737 45.9178C36.9382 44.6575 37.7202 42.9164 37.7202 40.9937C37.7202 39.071 36.9381 37.3298 35.6737 36.0696ZM74.2066 37.9602C75.0468 37.9602 75.8075 38.2994 76.3587 38.8488L76.3974 38.8907C76.9252 39.436 77.2502 40.1776 77.2502 40.9937C77.2502 41.829 76.9092 42.5872 76.3587 43.1358L76.356 43.1385C75.8055 43.6872 75.0448 44.027 74.2067 44.027C73.3666 44.027 72.6059 43.6872 72.0546 43.1385L72.0153 43.0959C71.4875 42.5492 71.1632 41.8084 71.1632 40.9936C71.1632 40.159 71.5041 39.4001 72.056 38.8501L72.0546 38.8488C72.6052 38.3001 73.3665 37.9602 74.2067 37.9602L74.2066 37.9602ZM75.3924 39.8118C75.0888 39.5098 74.6697 39.3223 74.2066 39.3223C73.7436 39.3223 73.3245 39.5098 73.0209 39.8118L73.0195 39.8104L73.0182 39.8118C72.7166 40.1124 72.5298 40.53 72.5298 40.9936C72.5298 41.4418 72.7052 41.8482 72.9902 42.1461L73.0209 42.1754C73.3245 42.478 73.7435 42.6649 74.2066 42.6649C74.6711 42.6649 75.0908 42.478 75.3937 42.1767C75.6967 41.8748 75.8835 41.4565 75.8835 40.9936C75.8835 40.546 75.708 40.1396 75.4224 39.8397L75.3924 39.8118ZM67.2195 40.9936C67.2195 42.9163 68.0015 44.6575 69.2659 45.9177C70.5304 47.178 72.2774 47.9574 74.2065 47.9574C76.1357 47.9574 77.8827 47.1779 79.1471 45.9177C80.411 44.6574 81.1931 42.9163 81.1931 40.9936C81.1931 39.0709 80.411 37.3297 79.1471 36.0695C77.8826 34.8092 76.1357 34.0298 74.2065 34.0298C72.2774 34.0298 70.5304 34.8092 69.2659 36.0695C68.0021 37.3297 67.2195 39.0709 67.2195 40.9936ZM81.0763 20.9801L73.7181 9.96336H65.905V20.9801H81.0763ZM74.6503 8.90726L82.8926 21.2469C82.9814 21.3619 83.0334 21.5056 83.0334 21.6612C83.0334 22.0376 82.7271 22.3422 82.3501 22.3422H65.2215C64.8445 22.3422 64.5382 22.0376 64.5382 21.6612V9.28244C64.5382 8.90668 64.8445 8.60142 65.2215 8.60142H74.0817V8.60341C74.3026 8.60341 74.5194 8.71049 74.6502 8.90802L74.6503 8.90726Z" fill="#2D2D2D"/>
</svg>
