<svg width="57" height="57" viewBox="0 0 57 57" fill="none" xmlns="http://www.w3.org/2000/svg">
<path d="M56.9996 11.0388H40.3486C41.5492 9.87206 42.2897 8.24545 42.2897 6.43925C42.2897 2.89433 39.4061 0 35.8492 0C32.2923 0 29.4086 2.88305 29.4086 6.43925V11.0388H27.5684V6.43925C27.5684 2.89433 24.6848 0 21.1278 0C17.5709 0 14.6873 2.88305 14.6873 6.43925C14.6873 8.23417 15.4278 9.86078 16.6284 11.0388H0V23.9058H2.76023V57H54.2398V23.9058H57L56.9996 11.0388ZM31.2593 6.45053C31.2593 3.91518 33.3239 1.85102 35.8597 1.85102C38.3956 1.85102 40.4602 3.91518 40.4602 6.45053C40.4602 8.98588 38.3956 11.05 35.8597 11.05H31.2593V6.45053ZM16.5492 6.45053C16.5492 3.91518 18.6138 1.85102 21.1497 1.85102C23.6856 1.85102 25.7501 3.91518 25.7501 6.45053V11.05H21.1497C18.6138 11.0388 16.5492 8.9747 16.5492 6.45053ZM1.83919 22.0663V12.8786H23.8986V22.0663H1.83919ZM4.59942 55.1606V23.9064H23.8982V55.1606H4.59942ZM25.7386 55.1606V12.8794H31.2591V55.1606H25.7386ZM52.3991 55.1606H33.1003V23.9064H52.3991V55.1606ZM55.1594 22.0663H33.0999V12.8786H55.1594V22.0663Z" fill="#2D2D2D"/>
</svg>
