<svg width="63" height="59" viewBox="0 0 63 59" fill="none" xmlns="http://www.w3.org/2000/svg">
<path d="M37.6094 26.8116C37.6094 27.5154 36.9898 28.086 36.2253 28.086C35.4609 28.086 34.8413 27.5153 34.8413 26.8116C34.8413 26.1074 35.4609 25.5371 36.2253 25.5371C36.9898 25.5371 37.6094 26.1074 37.6094 26.8116Z" fill="#2D2D2D"/>
<path d="M25.7382 34.2802C27.151 34.9866 28.8344 35.3618 30.5778 35.3618C30.94 35.3618 31.3052 35.3461 31.6699 35.3125C32.9522 35.1978 34.1692 34.8928 35.29 34.4107C35.8167 34.1812 36.0614 33.569 35.832 33.0398C35.5998 32.5079 34.9824 32.2736 34.4611 32.4979C33.5461 32.8941 32.5483 33.1441 31.4872 33.2379C29.7384 33.3967 28.0363 33.1022 26.668 32.4194C26.1649 32.1589 25.5266 32.3648 25.2709 32.8832C25.0139 33.3967 25.2224 34.0224 25.7382 34.2803L25.7382 34.2802Z" fill="#2D2D2D"/>
<path d="M25.9495 26.8116C25.9495 27.5154 25.3299 28.086 24.5654 28.086C23.8015 28.086 23.1814 27.5153 23.1814 26.8116C23.1814 26.1074 23.8014 25.5371 24.5654 25.5371C25.3299 25.5371 25.9495 26.1074 25.9495 26.8116Z" fill="#2D2D2D"/>
<path d="M25.8266 24.9307C25.9727 24.9984 26.1211 25.0298 26.2721 25.0298C26.6604 25.0298 27.0382 24.8107 27.2128 24.4329C27.4602 23.9115 27.2363 23.2914 26.7175 23.0436C25.5081 22.4755 23.6393 22.4703 22.4172 23.041C21.8958 23.2836 21.6694 23.9036 21.9141 24.425C22.1567 24.9464 22.7767 25.1755 23.2982 24.9281C23.9583 24.6231 25.1752 24.6231 25.8267 24.9307L25.8266 24.9307Z" fill="#2D2D2D"/>
<path d="M38.8784 24.4299C39.1232 23.9085 38.8993 23.2884 38.3779 23.0433C37.1607 22.4778 35.2976 22.4725 34.0776 23.0433C33.5562 23.2858 33.3298 23.9059 33.5745 24.4273C33.8171 24.9487 34.4371 25.1778 34.9586 24.9304C35.6205 24.6228 36.8378 24.6228 37.4944 24.9304C37.638 24.9954 37.7863 25.0294 37.9373 25.0294C38.326 25.0294 38.7013 24.8078 38.8784 24.4299L38.8784 24.4299Z" fill="#2D2D2D"/>
<path d="M62.7 57.5073C59.3848 45.7925 49.5019 45.5289 46.533 45.7322C46.142 44.8251 45.303 43.3813 43.5983 42.1016C46.8589 40.2171 49.6841 37.0949 49.6841 31.8852V27.6189C51.0995 27.1861 52.1444 25.9561 52.1444 24.4573V19.8782C52.1444 18.3616 51.0733 17.1259 49.6347 16.7088C49.129 7.42004 40.7055 0 30.3949 0C20.1628 0 11.7883 7.3079 11.1684 16.4999C9.6671 16.9118 8.55928 18.2255 8.55928 19.7968V24.5373C8.55928 26.4375 10.1702 27.9829 12.1506 27.9829C12.7265 27.9829 13.1929 27.5165 13.1929 26.9406C13.1929 26.8887 13.1694 26.8442 13.1641 26.7944C13.172 26.7451 13.1929 26.7006 13.1929 26.6482L13.1934 17.5842C13.1934 9.0355 20.9078 2.08179 30.3947 2.08179C39.8816 2.08179 47.5961 9.03538 47.5961 17.5842V31.8826C47.5961 40.3581 38.5967 42.2918 35.1039 42.722C34.7234 42.1875 34.1108 41.8149 33.3813 41.8149H30.5378C29.3755 41.8149 28.427 42.7115 28.427 43.8063V43.9651C28.427 45.0598 29.3781 45.9564 30.5378 45.9564H33.3813C34.2308 45.9564 34.9608 45.4691 35.2941 44.781C36.141 44.6689 37.2933 44.463 38.5805 44.1218L31.533 50.8197L22.0907 41.8516V39.5007C23.055 40.1159 24.0768 40.6631 25.1947 41.0592C25.312 41.1011 25.4294 41.119 25.5437 41.119C25.9739 41.119 26.3749 40.8507 26.5263 40.4231C26.7192 39.8812 26.4351 39.2843 25.8928 39.0941C20.8419 37.3088 17.4482 32.7191 17.4482 27.6764L17.4487 15.3462C20.42 15.036 22.9244 13.446 24.2613 11.2047C27.1515 17.6394 34.5405 20.9887 41.6894 20.9887C42.487 20.9887 43.2689 20.8818 44.0534 20.7984V30.5227C44.0534 34.8283 41.5463 37.3851 35.6692 39.0762C35.1142 39.2351 34.7961 39.8136 34.9549 40.3664C35.088 40.825 35.5047 41.1222 35.9585 41.1222C36.0523 41.1222 36.1487 41.1091 36.2451 41.0803C40.4935 39.8603 46.1413 37.4366 46.1413 30.5249V19.7221C46.1413 19.6881 46.1255 19.6597 46.1203 19.6257C46.1177 19.5838 46.1308 19.5476 46.1255 19.5057C46.1151 19.4485 46.0837 19.404 46.0658 19.3495C46.0579 19.3312 46.0527 19.3128 46.0448 19.2976C45.8625 18.8521 45.396 18.5628 44.9292 18.6461C36.7299 19.9934 26.9091 16.1595 25.3062 7.63481C25.3062 7.6191 25.3114 7.60339 25.3114 7.58769C25.3114 7.01175 24.8424 6.54533 24.2691 6.54533C23.6958 6.54533 23.2267 7.01175 23.2267 7.58769C23.2267 10.7697 20.1668 13.358 16.4088 13.358C15.8329 13.358 15.3665 13.8244 15.3665 14.4003V27.6789C15.3665 31.604 17.1283 35.2656 20.0085 37.9109V41.7187C17.9364 43.0764 16.9696 44.7367 16.5372 45.7375C13.5658 45.5368 3.68754 45.7999 0.373489 57.5126C0.214667 58.065 0.53755 58.6436 1.09036 58.8002C1.18679 58.8264 1.28059 58.8394 1.37441 58.8394C1.83036 58.8394 2.24748 58.5397 2.37794 58.0811C5.48446 47.0955 14.9014 47.6143 16.7567 47.8386L27.1036 57.8568C27.32 58.0654 27.6145 58.1644 27.9064 58.1487C28.2035 58.1278 28.4771 57.9794 28.6569 57.7421L31.5331 53.9705L34.4158 57.7364C34.5956 57.9737 34.8692 58.1195 35.1663 58.143C35.4661 58.164 35.7553 58.0597 35.9691 57.8511L46.3133 47.8329C48.1585 47.6112 57.5824 47.0903 60.6943 58.0754C60.8248 58.534 61.2415 58.8337 61.6978 58.8337C61.7917 58.8337 61.8855 58.8206 61.9819 58.7945C62.5317 58.6383 62.855 58.0623 62.6983 57.5074L62.7 57.5073ZM10.648 24.5376V19.7966C10.648 19.4136 10.8252 19.0693 11.1092 18.8219V25.5124C10.8252 25.2645 10.648 24.9207 10.648 24.5376V24.5376ZM50.057 24.4569C50.057 24.7855 49.9087 25.0774 49.6818 25.3038V19.0304C49.9087 19.2573 50.057 19.5492 50.057 19.8773V24.4569ZM27.7086 55.5389L18.4408 46.563C18.7275 45.888 19.4286 44.6811 20.9326 43.6257L30.1381 52.3674L27.7086 55.5389ZM35.3581 55.5389L32.9291 52.3669L42.1372 43.6253C43.6386 44.6807 44.3393 45.8876 44.6264 46.5626L35.3581 55.5389Z" fill="#2D2D2D"/>
</svg>
