<svg width="52" height="51" viewBox="0 0 52 51" fill="none" xmlns="http://www.w3.org/2000/svg">
<path d="M0.458744 26.4144L5.94566 30.3371C6.15755 30.4881 6.42068 30.5485 6.67722 30.5052C6.93377 30.4618 7.16273 30.3187 7.31334 30.1063L11.236 24.6194V24.6199C11.5517 24.1768 11.4483 23.5622 11.0057 23.2469C10.5631 22.9313 9.94844 23.0346 9.63279 23.4772L7.0927 27.0322C6.13479 22.8403 6.51918 18.4526 8.19113 14.4908C9.86309 10.5292 12.7385 7.19321 16.4099 4.95471C20.0818 2.71666 24.3643 1.68915 28.652 2.01843C32.9394 2.34721 37.0152 4.01563 40.3023 6.78783C43.5893 9.55993 45.9224 13.2957 46.9704 17.4661C48.0185 21.6366 47.7287 26.0312 46.1425 30.0276C46.0462 30.2697 46.0497 30.5399 46.153 30.7789C46.2559 31.0184 46.4499 31.2066 46.692 31.3025C46.8071 31.348 46.9306 31.3717 47.0545 31.3712C47.4564 31.3717 47.818 31.1269 47.9668 30.7535C49.7018 26.3803 50.0205 21.5724 48.8775 17.0085C47.7344 12.4444 45.1872 8.3545 41.5955 5.31555C38.0038 2.27683 33.5488 0.442026 28.8592 0.0702693C24.1696 -0.301488 19.4802 0.808393 15.4549 3.24382C11.4293 5.67924 8.26977 9.31656 6.42219 13.6437C4.57428 17.9704 4.13158 22.7683 5.15607 27.3596L1.5963 24.8195V24.82C1.38616 24.6505 1.11516 24.5748 0.847666 24.6116C0.580174 24.6483 0.339378 24.7937 0.18265 25.0134C0.0254858 25.2332 -0.033623 25.5082 0.0184812 25.773C0.071017 26.0379 0.230372 26.2695 0.458907 26.4135L0.458744 26.4144Z" fill="#2D2D2D"/>
<path d="M50.2229 34.9219C48.2616 32.6025 45.0451 33.6668 43.3092 34.2354C42.2107 34.5984 39.5778 35.7064 36.9838 36.8049C37.1401 35.9757 37.0337 35.1185 36.6796 34.3532C35.2773 31.1512 31.8157 31.764 29.2851 32.2155L29.2855 32.215C28.5045 32.3849 27.7103 32.4847 26.9122 32.5145C25.5599 32.4992 24.2246 32.2072 22.9895 31.6564C21.3855 30.966 19.6504 30.6315 17.9045 30.6758C14.562 30.7375 11.2662 31.4747 8.21564 32.8429L7.66665 33.0683C3.11131 34.8826 1.14998 35.2945 1.14998 35.2945C0.777412 35.3689 0.481463 35.6513 0.389964 36.0204C0.355816 36.1626 -0.414273 39.4527 1.76772 44.0767C3.64062 47.9994 5.83272 49.5046 7.3378 50.0492V50.0487C7.65563 50.1626 8.00938 50.1052 8.27469 49.8968C8.27469 49.8968 9.50529 48.9162 10.4471 48.3672C11.0696 47.9898 12.5848 47.7495 16.2916 48.7792V48.7787C19.7214 49.6915 23.2465 50.1967 26.7944 50.2839C28.1761 50.329 29.5552 50.1403 30.8737 49.7253C34.7426 48.2543 44.157 43.3509 47.8589 41.3406C49.8202 40.2715 50.8893 39.1193 51.1346 37.8151C51.2961 36.7613 50.959 35.6922 50.2226 34.9221L50.2229 34.9219ZM49.2029 37.4567C49.0803 38.1187 48.2664 38.8883 46.918 39.6238C43.8092 41.3256 34.0314 46.4495 30.1827 47.8961C27.4811 48.9061 20.6799 47.9648 16.8165 46.9154C15.2729 46.4308 13.6722 46.1501 12.0555 46.0818C11.1383 46.0376 10.2273 46.2478 9.42218 46.6899C8.76023 47.0918 8.00497 47.6413 7.52955 47.9942C6.05855 47.2587 4.66107 45.5915 3.53817 43.2284C2.56889 41.3152 2.11582 39.1822 2.22431 37.0401C4.32047 36.428 6.38121 35.7013 8.39769 34.8629L8.96157 34.6326C11.7871 33.3559 14.8442 32.6717 17.9443 32.6222C19.4424 32.5832 20.9301 32.88 22.2986 33.4899C23.743 34.1234 25.3011 34.457 26.878 34.4705C27.803 34.4421 28.7233 34.3322 29.6291 34.1422C32.3307 33.6519 34.1551 33.4706 34.8804 35.1229C35.1309 35.6368 35.1571 36.2314 34.954 36.7654C34.6795 37.4423 33.9733 38.06 32.8652 38.56C31.8846 38.972 31.1491 39.2907 30.8255 39.4181C28.7464 40.232 26.9567 39.9478 25.2261 39.6729L24.2748 39.5258L24.2743 39.5262C24.0143 39.4908 23.7512 39.5604 23.5423 39.7197C23.3335 39.8787 23.1965 40.1142 23.1615 40.3742C23.0883 40.9158 23.4679 41.4144 24.0095 41.4876C24.3085 41.527 24.6128 41.576 24.9166 41.625C26.814 41.9241 28.9619 42.2625 31.5409 41.2573C31.8399 41.1395 32.4383 40.8895 33.2325 40.5463C33.3796 40.4876 33.5219 40.4285 33.659 40.3651L34.9242 39.8257C38.1161 38.4527 42.4902 36.5698 43.9266 36.0991C46.2067 35.3488 47.805 35.1185 48.7222 36.1876C49.3159 36.8832 49.2323 37.3145 49.2029 37.4567L49.2029 37.4567Z" fill="#2D2D2D"/>
<path d="M26.1568 10.6605V11.9599C25.8166 12.0374 25.4874 12.1561 25.1761 12.3132C24.6766 12.5645 24.2546 12.9467 23.9551 13.4191C23.6552 13.8915 23.4893 14.4361 23.4748 14.9951C23.4061 17.1478 25.3429 17.8684 26.7553 18.3933C28.4027 19.0062 28.9031 19.3201 28.8296 20.1047L28.8291 20.1042C28.7985 20.6502 28.4426 21.1243 27.9268 21.3056C26.9707 21.6707 25.9007 21.5805 25.0195 21.0604C24.5926 20.7246 23.9749 20.7982 23.6391 21.225C23.3033 21.6515 23.3769 22.2692 23.8033 22.6049C24.4937 23.1009 25.3089 23.3947 26.1569 23.4534V24.6254C26.1569 25.1669 26.596 25.606 27.1376 25.606C27.6791 25.606 28.1182 25.1669 28.1182 24.6254V23.3062C28.3236 23.2541 28.525 23.1884 28.7215 23.1101C29.2972 22.8829 29.7976 22.4985 30.1663 22.0011C30.5345 21.5034 30.756 20.9128 30.8055 20.2955C31.041 17.8832 28.8884 17.0838 27.4664 16.554C25.9416 15.9901 25.4364 15.6959 25.456 15.0585L25.4555 15.0589C25.466 14.6207 25.7248 14.2271 26.1227 14.0436C27.0412 13.6452 28.099 13.7354 28.9369 14.284C29.1575 14.4311 29.4281 14.4823 29.6872 14.4267C29.9464 14.3711 30.1719 14.2126 30.3124 13.988C30.4529 13.7634 30.4967 13.4911 30.4332 13.2337C30.3698 12.9763 30.2051 12.7556 29.9766 12.6217C29.4088 12.2675 28.7775 12.0258 28.1182 11.9107V10.6604C28.1182 10.1188 27.6791 9.67969 27.1375 9.67969C26.5959 9.67969 26.1568 10.1188 26.1568 10.6604L26.1568 10.6605Z" fill="#2D2D2D"/>
<path d="M15.3694 17.6411C15.3694 20.7622 16.6092 23.7554 18.8162 25.9623C21.0232 28.1692 24.0163 29.4091 27.1374 29.4091C30.2585 29.4091 33.2517 28.1693 35.4586 25.9623C37.6655 23.7553 38.9054 20.7622 38.9054 17.6411C38.9054 14.52 37.6656 11.5267 35.4586 9.31984C33.2516 7.11295 30.2585 5.87305 27.1374 5.87305C24.0163 5.87305 21.0231 7.11283 18.8162 9.31984C16.6093 11.5268 15.3694 14.52 15.3694 17.6411ZM36.9441 17.6411C36.9441 20.242 35.9109 22.7362 34.0717 24.5753C32.2325 26.4145 29.7383 27.4477 27.1374 27.4477C24.5364 27.4477 22.0423 26.4145 20.2031 24.5753C18.364 22.7361 17.3307 20.242 17.3307 17.6411C17.3307 15.0401 18.3639 12.546 20.2031 10.7068C22.0423 8.86761 24.5364 7.83438 27.1374 7.83438C29.7383 7.83438 32.2325 8.86759 34.0717 10.7068C35.9108 12.546 36.9441 15.0401 36.9441 17.6411Z" fill="#2D2D2D"/>
</svg>
