<svg width="593" height="443" viewBox="0 0 593 443" fill="none" xmlns="http://www.w3.org/2000/svg">
<path d="M545.198 154.359L578.653 152.291C582.722 152.025 586.546 154.299 588.285 157.975C590.025 161.651 589.34 166.068 586.544 169.005L563.594 193.445C561.363 195.783 557.473 195.199 556.046 192.242C555.516 191.064 555.477 189.755 555.965 188.546L559.908 179.111C560.913 176.635 560.89 173.899 559.712 171.488C558.593 169.104 556.56 167.301 554.002 166.474L544.125 163.33C542.861 162.96 541.904 162.085 541.315 160.88C539.919 158.009 541.943 154.571 545.198 154.359Z" fill="#4E7D64"/>
<path d="M181.225 308.313C180.732 309.376 180.712 310.658 181.328 311.805C182.316 313.697 184.697 314.442 186.59 313.454C186.703 313.363 190.116 311.573 195.281 308.013C197.078 306.766 197.473 304.367 196.285 302.597C195.038 300.799 192.638 300.404 190.868 301.593C186.19 304.876 183.064 306.512 182.978 306.543C182.145 306.947 181.581 307.546 181.225 308.313Z" fill="#4E7D64"/>
<path d="M224.689 61.0282C222.417 65.9292 220.535 71.2264 219.158 76.8289C218.609 78.9418 219.924 81.0575 221.978 81.5791C224.09 82.1281 226.206 80.8133 226.728 78.7595C228.238 72.7162 230.397 66.9742 233.038 61.7419C234.059 59.8481 233.231 57.4556 231.31 56.4933C229.389 55.531 227.024 56.3 226.061 58.2213C225.651 59.107 225.127 60.0834 224.689 61.0282ZM236.842 42.7019C236.158 44.1781 236.446 46.033 237.762 47.217C239.378 48.6834 241.792 48.5829 243.258 46.967C247.461 42.3874 252.272 38.6633 257.149 36.1894C259.042 35.2016 259.846 32.8483 258.799 30.9283C257.811 29.0356 255.458 28.2318 253.538 29.2787C247.86 32.2422 242.28 36.5422 237.512 41.7209C237.23 42.0205 237.006 42.3476 236.842 42.7019ZM216.492 94.9617C216.3 95.3751 216.14 95.8746 216.126 96.3701C215.729 102.642 215.836 109.22 216.357 115.99C216.508 118.14 218.419 119.743 220.597 119.533C222.747 119.382 224.35 117.471 224.14 115.293C223.633 108.96 223.507 102.733 223.885 96.8102C224.024 94.6513 222.368 92.8076 220.209 92.6677C218.664 92.5969 217.149 93.5446 216.492 94.9617ZM219.475 132.786C219.147 133.495 219.027 134.372 219.198 135.241C220.456 141.348 222.042 147.678 224.036 154.054C224.651 156.132 226.84 157.291 228.918 156.676C230.996 156.061 232.155 153.872 231.54 151.794C229.641 145.677 228.092 139.578 226.928 133.73C226.486 131.589 224.439 130.281 222.324 130.664C220.992 130.907 219.968 131.724 219.475 132.786ZM270.179 26.8058C269.96 27.2782 269.859 27.8053 269.817 28.3598C269.764 30.487 271.506 32.2991 273.661 32.2936C279.284 32.3892 285.027 33.617 290.719 36.0401C292.695 36.8843 294.997 35.9424 295.841 33.9665C296.685 31.9905 295.744 29.689 293.768 28.8448C287.163 26.0702 280.451 24.609 273.81 24.5435C272.178 24.5045 270.808 25.4477 270.179 26.8058ZM230.484 169.238C230.046 170.183 229.962 171.292 230.429 172.297C232.76 178.256 234.623 184.141 236.046 189.893C236.574 192.003 238.649 193.253 240.759 192.724C242.869 192.196 244.118 190.12 243.59 188.01C242.127 181.88 240.078 175.622 237.652 169.404C236.864 167.389 234.593 166.408 232.578 167.196C231.659 167.631 230.894 168.352 230.484 169.238ZM304.976 40.5683C304.237 42.1626 304.675 44.1588 306.164 45.2794C310.635 48.787 315.156 52.9627 319.553 57.8702C320.968 59.4589 323.477 59.6177 325.093 58.1431C326.71 56.6684 326.841 54.2186 325.366 52.6024C320.67 47.4126 315.877 42.8955 311.02 39.1373C309.322 37.8481 306.826 38.1259 305.536 39.8238C305.222 40.0369 305.113 40.2731 304.976 40.5683ZM239.351 206.131C239.077 206.722 238.922 207.367 239.03 208.063C239.533 214.251 239.396 220.428 238.727 226.359C238.528 228.49 240.07 230.425 242.174 230.683C244.306 230.882 246.24 229.339 246.498 227.235C247.182 220.809 247.334 214.136 246.758 207.485C246.607 205.334 244.696 203.731 242.546 203.882C241.123 204.012 239.926 204.891 239.351 206.131ZM204.305 291.178C203.648 292.595 203.873 294.277 204.957 295.497C206.459 297.054 208.909 297.186 210.466 295.683C215.31 291.114 219.768 286.294 223.754 281.255C225.102 279.584 224.825 277.088 223.127 275.799C221.456 274.451 218.96 274.728 217.671 276.426C213.967 281.166 209.705 285.718 205.143 289.988C204.775 290.319 204.524 290.705 204.305 291.178ZM235.166 243.79C235.084 243.967 235.029 244.085 234.947 244.262C233.138 250.023 230.742 255.656 227.787 261.101C226.766 262.995 227.449 265.392 229.342 266.413C231.236 267.435 233.633 266.752 234.654 264.858C237.8 259 240.415 252.894 242.385 246.634C243.052 244.576 241.91 242.397 239.851 241.73C237.998 241.086 235.987 242.019 235.166 243.79ZM330.699 68.489C330.125 69.729 330.227 71.2112 331.048 72.3808C334.481 77.2003 337.84 82.4878 341.095 88.1571C342.169 90.018 344.605 90.6448 346.466 89.5705C348.326 88.4963 348.953 86.0609 347.879 84.2C344.475 78.3896 340.993 72.9017 337.437 67.882C336.19 66.0844 333.791 65.6894 331.993 66.9365C331.392 67.3037 330.973 67.8985 330.699 68.489ZM349.987 101.318C349.495 102.381 349.474 103.662 350.032 104.782C353.027 110.546 356.222 116.188 359.672 121.589C360.833 123.418 363.237 123.959 365.066 122.798C366.896 121.637 367.436 119.234 366.275 117.404C362.975 112.144 359.843 106.675 356.97 101.111C355.982 99.2183 353.601 98.4735 351.709 99.4614C350.935 99.8919 350.343 100.55 349.987 101.318ZM370.276 133.534C369.674 134.833 369.835 136.343 370.715 137.54C374.684 142.751 378.88 147.781 383.182 152.429C384.657 154.045 387.134 154.118 388.691 152.616C390.307 151.141 390.38 148.663 388.878 147.106C384.757 142.686 380.742 137.884 376.923 132.814C375.649 131.075 373.135 130.771 371.456 132.073C370.914 132.467 370.55 132.944 370.276 133.534ZM396.2 161.333C395.488 162.868 395.835 164.75 397.21 165.962C402.231 170.297 407.502 174.247 412.846 177.729C414.658 178.928 417.059 178.391 418.258 176.579C419.456 174.767 418.919 172.366 417.107 171.168C412.09 167.909 407.114 164.096 402.334 160.016C400.691 158.608 398.25 158.768 396.842 160.411C396.56 160.71 396.337 161.038 396.2 161.333ZM427.999 182.027C427.972 182.086 427.972 182.086 427.999 182.027C427.096 183.975 427.951 186.309 429.9 187.212C435.923 190.004 442.133 192.237 448.358 193.974C450.443 194.582 452.591 193.354 453.14 191.241C453.748 189.156 452.519 187.008 450.406 186.459C444.563 184.827 438.735 182.699 433.125 180.099C431.208 179.282 428.902 180.078 427.999 182.027ZM464.552 192.155C464.388 192.51 464.256 192.95 464.182 193.419C463.983 195.55 465.525 197.485 467.657 197.684C474.083 198.367 480.697 198.491 487.325 198.121C489.476 197.969 491.111 196.145 491.019 194.022C490.868 191.871 489.043 190.237 486.92 190.328C480.728 190.687 474.551 190.549 468.533 189.912C466.811 189.759 465.237 190.679 464.552 192.155ZM502.462 190.072C502.134 190.781 502.014 191.658 502.185 192.527C502.627 194.668 504.675 195.976 506.79 195.593C512.983 194.303 519.309 192.573 525.594 190.465C527.641 189.764 528.74 187.547 528.039 185.5C527.338 183.454 525.121 182.355 523.074 183.056C517.048 185.069 511.041 186.732 505.166 187.954C503.947 188.107 502.982 188.95 502.462 190.072Z" fill="#4E7D64"/>
<path d="M538.673 177.876C538.208 178.88 538.156 180.076 538.654 181.167C539.555 183.092 541.881 183.955 543.865 183.081C546.794 181.713 549.838 180.254 552.791 178.681C554.683 177.694 555.428 175.313 554.44 173.42C553.452 171.528 551.072 170.783 549.179 171.771C546.34 173.253 543.442 174.707 540.567 175.957C539.707 176.419 539.056 177.05 538.673 177.876Z" fill="#4E7D64"/>
<path d="M111.128 218.206C112.151 210.131 123.849 210.131 124.872 218.206V218.206C125.698 224.715 134.268 226.537 137.669 220.926V220.926C141.889 213.966 152.575 218.724 150.226 226.517V226.517C148.332 232.799 155.42 237.949 160.809 234.206V234.206C167.495 229.564 175.322 238.257 170.007 244.421V244.421C165.722 249.39 170.102 256.977 176.548 255.751V255.751C184.544 254.229 188.159 265.354 180.795 268.823V268.823C174.86 271.619 175.776 280.332 182.163 281.833V281.833C190.086 283.696 188.864 295.329 180.726 295.503V295.503C174.166 295.644 171.459 303.976 176.683 307.945V307.945C183.164 312.869 177.316 323 169.811 319.849V319.849C163.761 317.309 157.899 323.82 161.057 329.571V329.571C164.975 336.705 155.512 343.581 149.937 337.65V337.65C145.444 332.869 137.44 336.433 137.986 342.971V342.971C138.663 351.082 127.221 353.514 124.541 345.829V345.829C122.381 339.634 113.619 339.634 111.459 345.829V345.829C108.779 353.514 97.3367 351.082 98.0142 342.971V342.971C98.5603 336.433 90.5564 332.869 86.0629 337.65V337.65C80.4884 343.581 71.0249 336.705 74.943 329.571V329.571C78.1012 323.82 72.2388 317.309 66.1892 319.849V319.849C58.6843 323 52.8355 312.869 59.3167 307.945V307.945C64.541 303.976 61.8336 295.644 55.2741 295.503V295.503C47.1364 295.329 45.9137 283.696 53.8373 281.833V281.833C60.2244 280.332 61.1402 271.619 55.2048 268.823V268.823C47.8415 265.354 51.4562 254.229 59.4522 255.751V255.751C65.8976 256.977 70.2783 249.39 65.9934 244.421V244.421C60.6776 238.257 68.5047 229.564 75.1906 234.206V234.206C80.5799 237.949 87.6679 232.799 85.7744 226.517V226.517C83.4253 218.724 94.1114 213.966 98.3311 220.926V220.926C101.732 226.537 110.302 224.715 111.128 218.206V218.206Z" fill="#4E7D64"/>
<path d="M85.05 259.1L85.25 267.65H90.25L90.45 259.1H85.05ZM85.25 297.15L85.05 305.6H90.45L90.25 297.15H85.25ZM94.3 275.15L99.75 271.9C99.15 270.667 98.3167 269.483 97.25 268.35C96.2167 267.217 94.9167 266.3 93.35 265.6C91.7833 264.867 89.8667 264.5 87.6 264.5C85.3667 264.5 83.3667 264.917 81.6 265.75C79.8333 266.583 78.45 267.7 77.45 269.1C76.45 270.467 75.95 271.983 75.95 273.65C75.95 275.317 76.25 276.75 76.85 277.95C77.4833 279.15 78.2833 280.167 79.25 281C80.2167 281.833 81.2333 282.517 82.3 283.05C83.3667 283.583 84.3333 284 85.2 284.3C86.5667 284.8 87.8167 285.317 88.95 285.85C90.0833 286.383 91 287.017 91.7 287.75C92.4 288.45 92.75 289.35 92.75 290.45C92.75 291.35 92.5667 292.117 92.2 292.75C91.8667 293.35 91.3333 293.817 90.6 294.15C89.9 294.45 89.0167 294.6 87.95 294.6C86.65 294.6 85.4833 294.35 84.45 293.85C83.4167 293.317 82.4833 292.55 81.65 291.55C80.8167 290.55 80.0167 289.317 79.25 287.85L74 291.4C74.7333 293.1 75.7833 294.633 77.15 296C78.5167 297.367 80.1 298.467 81.9 299.3C83.7 300.1 85.6333 300.5 87.7 300.5C90.3 300.5 92.5333 300.1 94.4 299.3C96.2667 298.467 97.7 297.283 98.7 295.75C99.7333 294.217 100.25 292.4 100.25 290.3C100.25 288.733 100 287.383 99.5 286.25C99 285.083 98.3167 284.083 97.45 283.25C96.5833 282.417 95.6167 281.7 94.55 281.1C93.5167 280.5 92.45 280 91.35 279.6C89.95 279.067 88.6333 278.567 87.4 278.1C86.1667 277.6 85.1667 277.017 84.4 276.35C83.6667 275.683 83.3 274.817 83.3 273.75C83.3 272.983 83.45 272.333 83.75 271.8C84.0833 271.267 84.5833 270.85 85.25 270.55C85.9167 270.217 86.7667 270.05 87.8 270.05C88.8333 270.05 89.7333 270.283 90.5 270.75C91.3 271.183 92 271.783 92.6 272.55C93.2333 273.317 93.8 274.183 94.3 275.15ZM103.469 300H131.619V293.45H116.969L126.069 284.85C127.535 283.517 128.719 282.033 129.619 280.4C130.519 278.767 130.969 277.017 130.969 275.15C130.969 273.883 130.702 272.617 130.169 271.35C129.669 270.083 128.885 268.933 127.819 267.9C126.785 266.833 125.469 265.983 123.869 265.35C122.302 264.683 120.469 264.35 118.369 264.35C115.535 264.35 113.135 264.95 111.169 266.15C109.235 267.317 107.769 268.9 106.769 270.9C105.769 272.9 105.269 275.15 105.269 277.65H112.269C112.269 276.25 112.502 275.017 112.969 273.95C113.469 272.883 114.152 272.067 115.019 271.5C115.919 270.9 116.985 270.6 118.219 270.6C119.085 270.6 119.852 270.75 120.519 271.05C121.185 271.317 121.752 271.683 122.219 272.15C122.685 272.617 123.035 273.15 123.269 273.75C123.502 274.35 123.619 274.967 123.619 275.6C123.619 276.5 123.452 277.367 123.119 278.2C122.785 279.033 122.302 279.867 121.669 280.7C121.035 281.533 120.269 282.433 119.369 283.4L103.469 300ZM162.914 288.7C162.914 286.3 162.414 284.25 161.414 282.55C160.447 280.817 159.164 279.483 157.564 278.55C155.964 277.617 154.214 277.15 152.314 277.15C151.281 277.15 150.264 277.25 149.264 277.45C148.297 277.617 147.381 277.933 146.514 278.4L148.614 271.2H162.364V265H143.314L138.514 284.7C139.714 284.033 140.847 283.533 141.914 283.2C143.014 282.833 144.081 282.583 145.114 282.45C146.147 282.283 147.131 282.2 148.064 282.2C149.331 282.2 150.497 282.433 151.564 282.9C152.664 283.333 153.531 283.983 154.164 284.85C154.831 285.717 155.164 286.783 155.164 288.05C155.164 289.35 154.881 290.45 154.314 291.35C153.747 292.217 152.931 292.883 151.864 293.35C150.831 293.817 149.564 294.05 148.064 294.05C147.097 294.05 146.081 293.867 145.014 293.5C143.947 293.1 142.914 292.567 141.914 291.9C140.947 291.233 140.047 290.483 139.214 289.65L135.864 295.2C136.831 296.167 137.947 297.067 139.214 297.9C140.481 298.7 141.947 299.35 143.614 299.85C145.314 300.35 147.231 300.6 149.364 300.6C151.064 300.6 152.714 300.367 154.314 299.9C155.914 299.433 157.364 298.717 158.664 297.75C159.964 296.783 160.997 295.55 161.764 294.05C162.531 292.55 162.914 290.767 162.914 288.7Z" fill="white"/>
</svg>
