<svg width="645" height="241" viewBox="0 0 645 241" fill="none" xmlns="http://www.w3.org/2000/svg">
<path d="M31.1 163.5L32.842 162.517L31.7546 160.59L29.9466 161.866L31.1 163.5ZM0.5 185.1L-0.653366 183.466L-2.02263 184.433L-1.31047 185.95L0.5 185.1ZM19.7 212.4L21.1312 211.003L21.1312 211.003L19.7 212.4ZM48.5 232.5L47.6724 234.321L47.6922 234.33L47.7122 234.338L48.5 232.5ZM111.8 235.2L111.194 233.294L111.167 233.303L111.141 233.312L111.8 235.2ZM135.5 222.9L136.722 224.484L136.736 224.473L136.749 224.462L135.5 222.9ZM152 202.5L153.789 203.394L153.789 203.394L152 202.5ZM153.5 151.5L151.643 152.243L151.656 152.275L151.67 152.307L153.5 151.5ZM141.5 133.5L140.058 134.886L140.086 134.914L140.114 134.942L141.5 133.5ZM124.4 120.3L123.396 122.03L123.408 122.036L123.419 122.043L124.4 120.3ZM104.9 111.3L105.566 109.414L105.554 109.41L105.543 109.406L104.9 111.3ZM78.5 100.8L77.5853 102.579L77.6056 102.589L77.6262 102.599L78.5 100.8ZM62.9 89.7L61.3761 90.9953L61.3926 91.0146L61.4095 91.0336L62.9 89.7ZM64.1 62.4L65.4418 63.8831L65.4608 63.8659L65.4793 63.8483L64.1 62.4ZM100.1 60.3L99.1773 62.0744L99.2057 62.0892L99.2345 62.103L100.1 60.3ZM113.3 70.2L111.817 71.5418L111.85 71.5789L111.886 71.6142L113.3 70.2ZM123.5 83.7L121.755 84.6772L122.727 86.4137L124.469 85.4498L123.5 83.7ZM157.1 65.1L158.069 66.8498L159.728 65.931L158.898 64.2251L157.1 65.1ZM141.8 43.8L140.324 45.1495L140.344 45.1715L140.365 45.193L141.8 43.8ZM117.5 26.7L116.636 28.5036L116.658 28.5144L116.681 28.5245L117.5 26.7ZM47.6 27L48.409 28.8291L48.417 28.8255L48.425 28.8219L47.6 27ZM22.7 47.1L21.065 45.9481L21.0597 45.9556L22.7 47.1ZM19.4 103.8L17.6312 104.734L17.6367 104.744L17.6423 104.754L19.4 103.8ZM33.8 121.8L32.4941 123.315L32.5094 123.328L32.5249 123.341L33.8 121.8ZM52.1 133.8L51.2056 135.589L51.2387 135.605L51.2724 135.621L52.1 133.8ZM69.5 141L70.2153 139.132L70.1964 139.125L70.1774 139.118L69.5 141ZM93.2 151.2L92.3056 152.989L92.3387 153.005L92.3724 153.021L93.2 151.2ZM107.9 161.7L106.338 162.949L106.357 162.973L106.376 162.995L107.9 161.7ZM45.5 183.9L44.0109 185.235L44.0234 185.249L44.0362 185.263L45.5 183.9ZM29.9466 161.866L-0.653366 183.466L1.65337 186.734L32.2534 165.134L29.9466 161.866ZM-1.31047 185.95C3.39219 195.969 9.92588 205.251 18.2689 213.797L21.1312 211.003C13.0741 202.749 6.80781 193.831 2.31047 184.25L-1.31047 185.95ZM18.2689 213.797C26.6471 222.38 36.4534 229.221 47.6724 234.321L49.3276 230.679C38.5466 225.779 29.1529 219.22 21.1312 211.003L18.2689 213.797ZM47.7122 234.338C59.1736 239.25 71.4431 241.7 84.5 241.7V237.7C71.9569 237.7 60.2264 235.35 49.2878 230.662L47.7122 234.338ZM84.5 241.7C94.3121 241.7 103.636 240.166 112.459 237.088L111.141 233.312C102.764 236.234 93.8879 237.7 84.5 237.7V241.7ZM112.406 237.106C121.419 234.238 129.529 230.032 136.722 224.484L134.278 221.316C127.471 226.568 119.781 230.562 111.194 233.294L112.406 237.106ZM136.749 224.462C143.975 218.681 149.659 211.654 153.789 203.394L150.211 201.606C146.341 209.346 141.025 215.919 134.251 221.338L136.749 224.462ZM153.789 203.394C157.946 195.08 160 185.667 160 175.2H156C156 185.133 154.054 193.92 150.211 201.606L153.789 203.394ZM160 175.2C160 165.979 158.463 157.795 155.33 150.693L151.67 152.307C154.537 158.805 156 166.421 156 175.2H160ZM155.357 150.757C152.456 143.506 148.3 137.264 142.886 132.058L140.114 134.942C145.1 139.736 148.944 145.494 151.643 152.243L155.357 150.757ZM142.942 132.114C137.804 126.77 131.948 122.251 125.381 118.557L123.419 122.043C129.652 125.549 135.196 129.83 140.058 134.886L142.942 132.114ZM125.404 118.57C119.096 114.907 112.482 111.855 105.566 109.414L104.234 113.186C110.918 115.545 117.304 118.493 123.396 122.03L125.404 118.57ZM105.543 109.406C94.991 105.822 86.2744 102.353 79.3738 99.001L77.6262 102.599C84.7256 106.047 93.609 109.578 104.257 113.194L105.543 109.406ZM79.4147 99.0214C72.5267 95.479 67.5636 91.9128 64.3905 88.3664L61.4095 91.0336C65.0364 95.0872 70.4733 98.9209 77.5853 102.579L79.4147 99.0214ZM64.4239 88.4047C61.328 84.7625 59.8 80.6204 59.8 75.9H55.8C55.8 81.5795 57.672 86.6375 61.3761 90.9953L64.4239 88.4047ZM59.8 75.9C59.8 71.3192 61.619 67.3418 65.4418 63.8831L62.7582 60.9169C58.181 65.0582 55.8 70.0807 55.8 75.9H59.8ZM65.4793 63.8483C69.1694 60.3339 74.8846 58.4 83 58.4V54.4C74.3154 54.4 67.4306 56.4661 62.7207 60.9517L65.4793 63.8483ZM83 58.4C89.1228 58.4 94.4989 59.6417 99.1773 62.0744L101.023 58.5255C95.7011 55.7583 89.6772 54.4 83 54.4V58.4ZM99.2345 62.103C103.996 64.3884 108.187 67.53 111.817 71.5418L114.783 68.8582C110.813 64.47 106.204 61.0116 100.965 58.4969L99.2345 62.103ZM111.886 71.6142C115.754 75.4827 119.044 79.8352 121.755 84.6772L125.245 82.7228C122.357 77.5647 118.846 72.9173 114.714 68.7858L111.886 71.6142ZM124.469 85.4498L158.069 66.8498L156.131 63.3502L122.531 81.9502L124.469 85.4498ZM158.898 64.2251C155.193 56.6078 149.961 49.3367 143.235 42.407L140.365 45.193C146.839 51.8633 151.807 58.7922 155.302 65.9749L158.898 64.2251ZM143.276 42.4505C136.669 35.2239 128.335 29.3725 118.319 24.8754L116.681 28.5245C126.265 32.8275 134.131 38.3761 140.324 45.1495L143.276 42.4505ZM118.364 24.8964C108.434 20.1381 96.6239 17.8 83 17.8V21.8C96.1761 21.8 107.366 24.0619 116.636 28.5036L118.364 24.8964ZM83 17.8C69.749 17.8 57.6631 20.2476 46.775 25.1781L48.425 28.8219C58.7369 24.1523 70.251 21.8 83 21.8V17.8ZM46.791 25.1709C36.0789 29.909 27.4858 36.8347 21.065 45.9481L24.335 48.2519C30.3142 39.7653 38.3211 33.291 48.409 28.8291L46.791 25.1709ZM21.0597 45.9556C14.7929 54.9382 11.7 65.6518 11.7 78H15.7C15.7 66.3481 18.6071 56.4618 24.3403 48.2444L21.0597 45.9556ZM11.7 78C11.7 88.2521 13.6485 97.1873 17.6312 104.734L21.1688 102.866C17.5515 96.0127 15.7 87.7479 15.7 78H11.7ZM17.6423 104.754C21.553 111.958 26.5035 118.151 32.4941 123.315L35.1059 120.285C29.4965 115.449 24.847 109.642 21.1577 102.846L17.6423 104.754ZM32.5249 123.341C38.4359 128.233 44.6628 132.317 51.2056 135.589L52.9944 132.011C46.7372 128.883 40.7642 124.967 35.0751 120.259L32.5249 123.341ZM51.2724 135.621C57.9053 138.636 63.7572 141.058 68.8226 142.882L70.1774 139.118C65.2428 137.342 59.4948 134.964 52.9276 131.979L51.2724 135.621ZM68.7847 142.868C78.1461 146.453 85.9821 149.827 92.3056 152.989L94.0944 149.411C87.6179 146.173 79.6539 142.747 70.2153 139.132L68.7847 142.868ZM92.3724 153.021C98.7975 155.941 103.399 159.275 106.338 162.949L109.462 160.451C106.001 156.125 100.802 152.459 94.0276 149.379L92.3724 153.021ZM106.376 162.995C109.396 166.548 111 171.349 111 177.6H115C115 170.651 113.204 164.852 109.424 160.405L106.376 162.995ZM111 177.6C111 184.661 108.524 190.067 103.637 194.05L106.163 197.15C112.076 192.333 115 185.739 115 177.6H111ZM103.637 194.05C98.6711 198.096 92.1509 200.2 83.9 200.2V204.2C92.8491 204.2 100.329 201.904 106.163 197.15L103.637 194.05ZM83.9 200.2C76.7995 200.2 70.2071 198.667 64.0944 195.611L62.3056 199.189C68.9929 202.533 76.2005 204.2 83.9 204.2V200.2ZM64.0944 195.611C57.9299 192.529 52.2184 188.181 46.9638 182.537L44.0362 185.263C49.5816 191.219 55.6701 195.871 62.3056 199.189L64.0944 195.611ZM46.9891 182.565C41.8991 176.888 37.1811 170.209 32.842 162.517L29.358 164.483C33.8189 172.391 38.7009 179.312 44.0109 185.235L46.9891 182.565ZM219.676 181.2L221.32 182.338L221.34 182.31L221.358 182.282L219.676 181.2ZM228.076 174.9L228.767 176.777L228.81 176.761L228.852 176.743L228.076 174.9ZM263.776 175.5L263.196 177.414L263.204 177.416L263.211 177.419L263.776 175.5ZM282.076 184.5L280.885 186.107L284.076 188.47V184.5H282.076ZM282.076 166.5H284.076V165.776L283.612 165.22L282.076 166.5ZM272.176 159L271.192 160.741L271.192 160.741L272.176 159ZM255.076 152.4L254.55 154.33L254.557 154.331L254.564 154.333L255.076 152.4ZM192.076 161.4L193.353 162.939L193.353 162.939L192.076 161.4ZM184.576 217.2L182.912 218.309L182.931 218.339L182.952 218.367L184.576 217.2ZM202.576 231.9L201.741 233.717L201.741 233.717L202.576 231.9ZM250.576 232.5L249.858 230.633L249.85 230.636L249.841 230.64L250.576 232.5ZM269.476 219L267.939 217.72L267.927 217.735L267.914 217.751L269.476 219ZM276.976 196.8H278.976V196.538L278.908 196.285L276.976 196.8ZM272.176 178.8L274.108 178.285L270.176 178.8H272.176ZM267.676 195.9L269.351 196.993L269.362 196.976L269.372 196.96L267.676 195.9ZM255.976 206.7L256.87 208.489L256.9 208.474L256.928 208.459L255.976 206.7ZM228.076 208.2L227.224 210.01L227.287 210.039L227.351 210.064L228.076 208.2ZM219.976 201.6L218.312 202.709L218.33 202.736L218.348 202.762L219.976 201.6ZM201.976 135L200.22 135.958L201.291 137.921L203.123 136.638L201.976 135ZM211.276 129.9L212.136 131.706L212.136 131.706L211.276 129.9ZM264.676 127.8L263.476 129.4L263.506 129.423L263.537 129.444L264.676 127.8ZM270.376 134.7L268.537 135.488L268.548 135.513L268.56 135.538L270.376 134.7ZM272.176 234H270.176V236H272.176V234ZM309.676 234V236H311.676V234H309.676ZM301.876 112.5L300.305 113.738L300.314 113.75L300.324 113.761L301.876 112.5ZM280.276 97.5L279.582 99.376L279.582 99.376L280.276 97.5ZM213.976 97.8L214.597 99.701L214.614 99.6956L214.63 99.69L213.976 97.8ZM187.576 108.6L186.642 106.831L184.849 107.778L185.82 109.558L187.576 108.6ZM218.976 191.1C218.976 187.399 219.806 184.525 221.32 182.338L218.031 180.062C215.945 183.075 214.976 186.801 214.976 191.1H218.976ZM221.358 182.282C222.876 179.921 225.285 178.06 228.767 176.777L227.384 173.023C223.267 174.54 220.076 176.879 217.993 180.118L221.358 182.282ZM228.852 176.743C232.321 175.283 236.931 174.5 242.776 174.5V170.5C236.62 170.5 231.43 171.317 227.3 173.057L228.852 176.743ZM242.776 174.5C249.994 174.5 256.797 175.475 263.196 177.414L264.356 173.586C257.555 171.525 250.358 170.5 242.776 170.5V174.5ZM263.211 177.419C269.799 179.356 275.684 182.254 280.885 186.107L283.266 182.893C277.667 178.746 271.353 175.644 264.34 173.581L263.211 177.419ZM284.076 184.5V166.5H280.076V184.5H284.076ZM283.612 165.22C281.387 162.549 277.845 159.907 273.16 157.259L271.192 160.741C275.706 163.293 278.765 165.651 280.539 167.78L283.612 165.22ZM273.16 157.259C268.372 154.552 262.502 152.297 255.588 150.467L254.564 154.333C261.25 156.103 266.78 158.248 271.192 160.741L273.16 157.259ZM255.602 150.47C248.79 148.613 240.906 147.7 231.976 147.7V151.7C240.646 151.7 248.162 152.587 254.55 154.33L255.602 150.47ZM231.976 147.7C214.497 147.7 200.679 151.662 190.799 159.861L193.353 162.939C202.272 155.538 215.055 151.7 231.976 151.7V147.7ZM190.799 159.861C180.893 168.081 175.976 179.27 175.976 193.2H179.976C179.976 180.33 184.459 170.319 193.353 162.939L190.799 159.861ZM175.976 193.2C175.976 202.92 178.255 211.324 182.912 218.309L186.24 216.091C182.097 209.876 179.976 202.28 179.976 193.2H175.976ZM182.952 218.367C187.761 225.058 194.037 230.178 201.741 233.717L203.411 230.083C196.315 226.822 190.591 222.142 186.2 216.033L182.952 218.367ZM201.741 233.717C209.417 237.244 217.704 239 226.576 239V235C218.248 235 210.534 233.356 203.411 230.083L201.741 233.717ZM226.576 239C235.22 239 243.47 237.455 251.31 234.36L249.841 230.64C242.482 233.545 234.732 235 226.576 235V239ZM251.294 234.367C259.395 231.251 265.997 226.55 271.038 220.249L267.914 217.751C263.355 223.45 257.357 227.749 249.858 230.633L251.294 234.367ZM271.012 220.28C276.35 213.875 278.976 206.005 278.976 196.8H274.976C274.976 205.195 272.602 212.125 267.939 217.72L271.012 220.28ZM278.908 196.285L274.108 178.285L270.243 179.315L275.043 197.315L278.908 196.285ZM270.176 178.8C270.176 185.088 268.75 190.408 265.98 194.84L269.372 196.96C272.602 191.792 274.176 185.712 274.176 178.8H270.176ZM266.001 194.807C263.181 199.131 259.529 202.501 255.023 204.941L256.928 208.459C262.023 205.699 266.17 201.869 269.351 196.993L266.001 194.807ZM255.081 204.911C250.59 207.157 245.502 208.3 239.776 208.3V212.3C246.049 212.3 251.761 211.043 256.87 208.489L255.081 204.911ZM239.776 208.3C235.802 208.3 232.15 207.639 228.801 206.336L227.351 210.064C231.201 211.561 235.35 212.3 239.776 212.3V208.3ZM228.927 206.39C225.808 204.922 223.386 202.934 221.603 200.438L218.348 202.762C220.565 205.866 223.544 208.278 227.224 210.01L228.927 206.39ZM221.64 200.491C219.883 197.855 218.976 194.75 218.976 191.1H214.976C214.976 195.45 216.069 199.345 218.312 202.709L221.64 200.491ZM203.123 136.638C204.984 135.336 207.963 133.693 212.136 131.706L210.416 128.094C206.188 130.107 202.968 131.864 200.829 133.362L203.123 136.638ZM212.136 131.706C216.181 129.779 221.044 128.12 226.745 126.744L225.807 122.856C219.908 124.28 214.77 126.021 210.416 128.094L212.136 131.706ZM226.745 126.744C232.381 125.384 238.322 124.7 244.576 124.7V120.7C238.029 120.7 231.771 121.416 225.807 122.856L226.745 126.744ZM244.576 124.7C248.652 124.7 252.294 125.088 255.518 125.847L256.434 121.953C252.857 121.112 248.9 120.7 244.576 120.7V124.7ZM255.518 125.847C258.693 126.594 261.33 127.791 263.476 129.4L265.876 126.2C263.222 124.209 260.059 122.806 256.434 121.953L255.518 125.847ZM263.537 129.444C265.841 131.039 267.491 133.047 268.537 135.488L272.214 133.912C270.86 130.753 268.711 128.161 265.814 126.156L263.537 129.444ZM268.56 135.538C269.606 137.804 270.176 140.699 270.176 144.3H274.176C274.176 140.301 273.546 136.796 272.192 133.862L268.56 135.538ZM270.176 144.3V234H274.176V144.3H270.176ZM272.176 236H309.676V232H272.176V236ZM311.676 234V136.2H307.676V234H311.676ZM311.676 136.2C311.676 126.408 308.958 118.045 303.428 111.239L300.324 113.761C305.194 119.755 307.676 127.192 307.676 136.2H311.676ZM303.447 111.262C297.983 104.327 290.456 99.1301 280.969 95.624L279.582 99.376C288.495 102.67 295.369 107.473 300.305 113.738L303.447 111.262ZM280.969 95.624C271.507 92.1272 260.766 90.4 248.776 90.4V94.4C260.386 94.4 270.644 96.0728 279.582 99.376L280.969 95.624ZM248.776 90.4C235.789 90.4 223.963 92.2264 213.322 95.91L214.63 99.69C224.788 96.1736 236.163 94.4 248.776 94.4V90.4ZM213.354 95.899C202.881 99.323 193.97 102.964 186.642 106.831L188.509 110.369C195.582 106.636 204.271 103.077 214.597 99.701L213.354 95.899ZM185.82 109.558L200.22 135.958L203.732 134.042L189.332 107.642L185.82 109.558ZM345.821 -9.29832e-06V-2.00001H343.821V-9.29832e-06H345.821ZM345.821 234H343.821V236H345.821V234ZM384.821 234V236H386.821V234H384.821ZM384.821 -9.29832e-06H386.821V-2.00001H384.821V-9.29832e-06ZM343.821 -9.29832e-06L343.821 234H347.821L347.821 -9.29832e-06H343.821ZM345.821 236H384.821V232H345.821V236ZM386.821 234L386.821 -9.29832e-06H382.821L382.821 234H386.821ZM384.821 -2.00001H345.821V1.99999H384.821V-2.00001ZM530.865 227.4L531.818 229.158L531.829 229.152L530.865 227.4ZM559.665 198L561.414 198.969L562.606 196.817L560.257 196.09L559.665 198ZM525.765 187.5L526.357 185.59L524.864 185.127L524.054 186.463L525.765 187.5ZM510.465 202.5L511.406 204.265L511.416 204.259L511.427 204.254L510.465 202.5ZM469.065 202.2L467.999 203.892L467.999 203.892L469.065 202.2ZM456.765 187.5L454.912 188.253L454.922 188.277L454.933 188.302L456.765 187.5ZM452.865 164.1L450.865 164.058L450.865 164.079V164.1H452.865ZM457.065 140.1L455.224 139.319L455.218 139.333L455.212 139.347L457.065 140.1ZM468.765 125.4L469.843 127.085L469.851 127.079L469.859 127.074L468.765 125.4ZM514.665 135.9L512.876 136.794L512.891 136.824L512.906 136.853L514.665 135.9ZM517.365 158.7L515.485 158.017L515.466 158.07L515.449 158.125L517.365 158.7ZM515.265 163.5L513.601 162.391L516.857 164.711L515.265 163.5ZM525.765 149.7L527.357 150.911L529.8 147.7H525.765V149.7ZM436.065 149.7V147.7H434.065V149.7H436.065ZM436.065 173.7H434.065V175.7H436.065V173.7ZM559.665 173.7V175.7H561.359L561.638 174.029L559.665 173.7ZM559.965 168.9L557.975 168.701L557.965 168.8V168.9H559.965ZM551.865 125.4L550.096 126.334L550.1 126.341L550.104 126.348L551.865 125.4ZM527.265 101.4L526.331 103.168L526.35 103.179L526.37 103.189L527.265 101.4ZM448.965 102L449.885 103.776L449.897 103.77L449.909 103.763L448.965 102ZM422.865 126.9L421.13 125.904L421.124 125.915L422.865 126.9ZM422.865 203.1L421.117 204.071L421.127 204.091L421.138 204.11L422.865 203.1ZM448.965 228L448.02 229.763L448.965 228ZM488.265 239C505.12 239 519.664 235.75 531.818 229.158L529.911 225.642C518.466 231.85 504.61 235 488.265 235V239ZM531.829 229.152C544.187 222.355 554.048 212.27 561.414 198.969L557.915 197.031C550.882 209.73 541.542 219.245 529.901 225.648L531.829 229.152ZM560.257 196.09L526.357 185.59L525.173 189.41L559.073 199.91L560.257 196.09ZM524.054 186.463C520.22 192.791 515.367 197.531 509.503 200.746L511.427 204.254C517.963 200.669 523.31 195.409 527.475 188.537L524.054 186.463ZM509.524 200.735C503.88 203.745 496.922 205.3 488.565 205.3V209.3C497.408 209.3 505.05 207.655 511.406 204.265L509.524 200.735ZM488.565 205.3C481.269 205.3 475.155 203.671 470.13 200.508L467.999 203.892C473.775 207.529 480.661 209.3 488.565 209.3V205.3ZM470.13 200.508C465.102 197.341 461.252 192.768 458.597 186.698L454.933 188.302C457.877 195.032 462.228 200.259 467.999 203.892L470.13 200.508ZM458.618 186.747C456.141 180.651 454.865 173.123 454.865 164.1H450.865C450.865 173.477 452.188 181.549 454.912 188.253L458.618 186.747ZM454.864 164.142C455.061 154.697 456.438 146.957 458.918 140.853L455.212 139.347C452.492 146.043 451.069 154.303 450.865 164.058L454.864 164.142ZM458.906 140.881C461.582 134.574 465.248 130.025 469.843 127.085L467.687 123.715C462.282 127.175 458.148 132.426 455.224 139.319L458.906 140.881ZM469.859 127.074C474.668 123.93 480.666 122.3 487.965 122.3V118.3C480.063 118.3 473.262 120.07 467.67 123.726L469.859 127.074ZM487.965 122.3C493.855 122.3 498.883 123.627 503.125 126.208L505.205 122.792C500.246 119.773 494.475 118.3 487.965 118.3V122.3ZM503.125 126.208C507.405 128.814 510.645 132.332 512.876 136.794L516.454 135.006C513.885 129.868 510.125 125.786 505.205 122.792L503.125 126.208ZM512.906 136.853C515.314 141.297 516.565 146.752 516.565 153.3H520.565C520.565 146.248 519.216 140.103 516.423 134.947L512.906 136.853ZM516.565 153.3C516.565 154.362 516.252 155.909 515.485 158.017L519.244 159.383C520.078 157.091 520.565 155.038 520.565 153.3H516.565ZM515.449 158.125C514.883 160.013 514.254 161.411 513.601 162.391L516.929 164.609C517.876 163.189 518.647 161.387 519.281 159.275L515.449 158.125ZM516.857 164.711L527.357 150.911L524.173 148.489L513.673 162.289L516.857 164.711ZM525.765 147.7H436.065V151.7H525.765V147.7ZM434.065 149.7V173.7H438.065V149.7H434.065ZM436.065 175.7L559.665 175.7V171.7L436.065 171.7V175.7ZM561.638 174.029C561.864 172.673 561.965 170.95 561.965 168.9H557.965C557.965 170.85 557.866 172.327 557.692 173.371L561.638 174.029ZM561.955 169.099C562.161 167.04 562.265 165.074 562.265 163.2H558.265C558.265 164.926 558.169 166.76 557.975 168.701L561.955 169.099ZM562.265 163.2C562.265 148.151 559.418 135.208 553.626 124.452L550.104 126.348C555.512 136.392 558.265 148.649 558.265 163.2H562.265ZM553.633 124.466C547.837 113.494 539.33 105.196 528.159 99.6111L526.37 103.189C536.8 108.404 544.693 116.106 550.096 126.334L553.633 124.466ZM528.199 99.6316C517.244 93.8441 504.005 91 488.565 91V95C503.524 95 516.085 97.7558 526.331 103.168L528.199 99.6316ZM488.565 91C473.1 91 459.563 94.0536 448.02 100.237L449.909 103.763C460.767 97.9464 473.63 95 488.565 95V91ZM448.045 100.224C436.509 106.198 427.524 114.767 421.13 125.904L424.599 127.896C430.606 117.433 439.021 109.402 449.885 103.776L448.045 100.224ZM421.124 125.915C414.921 136.874 411.865 149.929 411.865 165H415.865C415.865 150.471 418.808 138.126 424.605 127.885L421.124 125.915ZM411.865 165C411.865 179.878 414.924 192.924 421.117 204.071L424.613 202.129C418.806 191.676 415.865 179.322 415.865 165H411.865ZM421.138 204.11C427.531 215.04 436.507 223.595 448.02 229.763L449.909 226.237C439.023 220.405 430.598 212.36 424.591 202.09L421.138 204.11ZM448.02 229.763C459.559 235.944 472.995 239 488.265 239V235C473.535 235 460.771 232.056 449.909 226.237L448.02 229.763ZM595.871 24V22H593.746L593.875 24.1209L595.871 24ZM604.571 167.7L602.575 167.821L602.689 169.7H604.571V167.7ZM635.171 167.7V169.7H637.054L637.167 167.821L635.171 167.7ZM643.871 24L645.867 24.1208L645.996 22H643.871V24ZM602.171 234L600.789 235.445L600.821 235.476L600.854 235.505L602.171 234ZM637.571 234L638.92 235.477L638.937 235.461L638.954 235.445L637.571 234ZM637.571 201.3L636.189 202.745L636.205 202.761L636.223 202.777L637.571 201.3ZM602.171 201.3L603.52 202.777L603.523 202.774L602.171 201.3ZM593.875 24.1209L602.575 167.821L606.567 167.579L597.867 23.8791L593.875 24.1209ZM604.571 169.7H635.171V165.7L604.571 165.7V169.7ZM637.167 167.821L645.867 24.1208L641.875 23.8791L633.175 167.579L637.167 167.821ZM643.871 22H595.871V26H643.871V22ZM593.271 217.5C593.271 224.623 595.778 230.653 600.789 235.445L603.554 232.555C599.364 228.547 597.271 223.577 597.271 217.5H593.271ZM600.854 235.505C606.055 240.056 612.438 242.3 619.871 242.3V238.3C613.305 238.3 607.887 236.344 603.488 232.495L600.854 235.505ZM619.871 242.3C627.487 242.3 633.894 240.066 638.92 235.477L636.223 232.523C632.048 236.334 626.655 238.3 619.871 238.3V242.3ZM638.954 235.445C643.964 230.653 646.471 224.623 646.471 217.5H642.471C642.471 223.577 640.378 228.547 636.189 232.555L638.954 235.445ZM646.471 217.5C646.471 210.376 643.962 204.427 638.92 199.823L636.223 202.777C640.38 206.573 642.471 211.424 642.471 217.5H646.471ZM638.954 199.855C633.932 195.051 627.513 192.7 619.871 192.7V196.7C626.629 196.7 632.011 198.749 636.189 202.745L638.954 199.855ZM619.871 192.7C612.412 192.7 606.018 195.061 600.82 199.826L603.523 202.774C607.925 198.739 613.331 196.7 619.871 196.7V192.7ZM600.823 199.823C595.78 204.427 593.271 210.376 593.271 217.5H597.271C597.271 211.424 599.362 206.573 603.52 202.777L600.823 199.823Z" fill="#4E7D64"/>
</svg>
