<svg width="381" height="392" viewBox="0 0 381 392" fill="none" xmlns="http://www.w3.org/2000/svg">
<path d="M33.5288 277.028L9.30855 282.461C6.35526 283.126 4.10283 285.54 3.63973 288.533C3.17664 291.526 4.54364 294.504 7.19485 296.022L28.5609 308.625C30.6454 309.858 33.2886 308.585 33.6501 306.218C33.8099 305.256 33.558 304.313 32.9416 303.555L28.2102 297.662C26.9774 296.147 26.4575 294.153 26.7311 292.214C27.0506 290.29 28.119 288.557 29.7269 287.507L36.1277 283.244C36.9162 282.688 37.428 281.891 37.5878 280.929C38.0101 278.531 35.8733 276.52 33.5288 277.028Z" fill="#4E7D64"/>
<path d="M366.749 90.4678C367.121 89.3208 368.197 88.5035 369.477 88.4623C371.063 88.4186 372.37 89.7041 372.399 91.3358C372.415 91.4424 372.438 94.1876 372.171 98.7653C372.063 100.352 370.7 101.584 369.113 101.475C367.526 101.366 366.294 100.004 366.403 98.4169C366.642 94.0834 366.635 91.4449 366.65 91.399C366.601 91.0791 366.645 90.7889 366.749 90.4678Z" fill="#4E7D64"/>
<path d="M52.6174 296.347C53.0486 295.016 54.3838 294.181 55.7886 294.383C60.5834 295.075 65.4079 295.676 70.0328 296.11C71.605 296.265 72.761 297.704 72.6064 299.276C72.4517 300.848 71.0124 302.004 69.4402 301.849C64.7235 301.386 59.853 300.77 54.9516 300.094C53.3484 299.879 52.2534 298.409 52.5146 296.82C52.5592 296.683 52.5579 296.53 52.6174 296.347ZM81.391 299.233C81.7776 298.041 82.9751 297.161 84.2721 297.227C89.109 297.476 93.9445 297.573 98.5656 297.55C100.137 297.552 101.444 298.837 101.487 300.423C101.485 301.994 100.2 303.301 98.6139 303.345C93.8862 303.384 88.9589 303.258 84.0154 303.024C82.4134 302.961 81.1819 301.599 81.2448 299.997C81.2881 299.707 81.3166 299.463 81.391 299.233ZM133.772 188.45C134.248 186.982 135.781 186.161 137.279 186.545C138.823 186.944 139.721 188.553 139.322 190.097C138.227 194.102 137.822 198.635 138.001 203.56C138.045 205.146 136.836 206.529 135.25 206.572C133.649 206.662 132.281 205.407 132.238 203.822C131.994 198.318 132.531 193.219 133.773 188.603C133.742 188.542 133.757 188.496 133.772 188.45ZM140.285 175.707C140.404 175.34 140.554 175.033 140.856 174.726C144.27 170.762 148.561 167.691 153.592 165.621C155.051 165.029 156.75 165.732 157.388 167.206C157.979 168.665 157.277 170.364 155.803 171.002C151.592 172.73 148.044 175.23 145.25 178.533C144.193 179.761 142.379 179.883 141.196 178.841C140.243 178.025 139.943 176.762 140.285 175.707ZM134.544 217.041C134.827 216.169 135.522 215.431 136.481 215.134C138.002 214.663 139.641 215.55 140.051 217.102C141.291 221.408 143.187 225.571 145.66 229.516C146.495 230.851 146.113 232.654 144.717 233.519C143.382 234.354 141.579 233.973 140.713 232.577C137.977 228.192 135.88 223.558 134.466 218.689C134.371 218.202 134.366 217.591 134.544 217.041ZM110.275 298.962C110.632 297.861 111.602 297.06 112.806 296.943C117.638 296.582 122.422 296.054 126.961 295.345C128.561 295.103 130.034 296.189 130.276 297.789C130.518 299.388 129.432 300.861 127.833 301.103C123.141 301.814 118.25 302.358 113.251 302.765C111.635 302.901 110.252 301.692 110.163 300.092C110.144 299.68 110.156 299.329 110.275 298.962ZM166.06 164.694C166.432 163.547 167.523 162.683 168.789 162.688C173.608 162.678 178.373 163.462 182.961 164.949C183.282 165.053 183.603 165.157 183.925 165.261C185.424 165.798 186.23 167.377 185.739 168.891L185.725 168.937C185.188 170.436 183.563 171.228 182.049 170.737C181.773 170.648 181.498 170.559 181.177 170.455C177.14 169.146 172.986 168.51 168.791 168.468C167.174 168.451 165.913 167.181 165.884 165.549C165.913 165.305 165.956 165.015 166.06 164.694ZM149.572 241.379C149.706 240.966 149.931 240.583 150.234 240.276C151.368 239.122 153.152 239.092 154.32 240.181C157.565 243.311 161.249 246.178 165.265 248.646C166.615 249.488 167.056 251.254 166.199 252.649C165.356 253.998 163.544 254.425 162.195 253.582C157.856 250.858 153.835 247.78 150.329 244.362C149.468 243.577 149.245 242.389 149.572 241.379ZM138.79 294.515C139.087 293.597 139.828 292.874 140.833 292.591C145.52 291.424 150.038 289.998 154.311 288.392C155.816 287.815 157.485 288.609 158.031 290.053C158.607 291.558 157.813 293.228 156.369 293.773C151.914 295.473 147.183 296.931 142.267 298.177C140.715 298.586 139.151 297.623 138.742 296.071C138.6 295.569 138.626 295.02 138.79 294.515ZM192.769 174.262C192.888 173.895 193.099 173.558 193.341 173.282C194.398 172.053 196.212 171.931 197.441 172.988C200.176 175.344 202.44 178.056 204.188 180.954C205.039 182.396 205.86 183.93 206.62 185.494C207.318 186.937 206.708 188.666 205.265 189.364C203.821 190.063 202.093 189.452 201.395 188.009C200.681 186.611 199.968 185.214 199.179 183.894C197.726 181.496 195.862 179.27 193.603 177.321C192.743 176.535 192.427 175.318 192.769 174.262ZM173.919 256.672C173.934 256.626 173.949 256.58 173.964 256.534C174.546 255.05 176.202 254.32 177.702 254.856C179.094 255.409 180.502 255.916 181.924 256.377C184.906 257.343 187.994 258.141 191.08 258.786C192.134 258.976 192.948 259.747 193.246 260.705C194.755 258.71 196.186 256.639 197.48 254.523C198.323 253.174 200.089 252.733 201.438 253.575C202.787 254.418 203.229 256.184 202.386 257.533C199.798 261.764 196.766 265.8 193.381 269.52C192.292 270.688 190.478 270.81 189.31 269.721C188.142 268.633 188.066 266.834 189.108 265.651C189.441 265.251 189.804 264.913 190.136 264.514C190.044 264.484 189.984 264.515 189.892 264.485C186.561 263.811 183.29 262.954 180.079 261.913C178.565 261.422 177.02 260.871 175.535 260.289C174.204 259.705 173.443 258.14 173.919 256.672ZM165.745 284.239C165.968 283.551 166.467 282.952 167.135 282.611C171.325 280.319 175.285 277.8 178.907 275.07C180.18 274.114 181.982 274.343 182.938 275.616C183.895 276.889 183.666 278.691 182.392 279.647C178.543 282.607 174.326 285.296 169.892 287.713C168.48 288.472 166.722 287.952 165.963 286.54C165.56 285.751 165.507 284.973 165.745 284.239ZM206.065 199.408C206.362 198.491 207.119 197.722 208.154 197.5C209.691 197.136 211.255 198.099 211.619 199.637C212.788 204.477 213.455 209.459 213.634 214.536C213.678 216.122 212.423 217.49 210.837 217.533C209.252 217.577 207.884 216.323 207.84 214.737C207.679 210.071 207.046 205.455 206.002 201.01C205.876 200.462 205.902 199.913 206.065 199.408ZM207.144 228.149C207.575 226.818 208.925 225.938 210.361 226.2C211.949 226.462 212.998 227.917 212.783 229.52C211.985 234.484 210.714 239.344 209.03 244.071C208.494 245.57 206.822 246.347 205.323 245.81C203.824 245.274 203.048 243.603 203.584 242.103C205.195 237.759 206.347 233.265 207.072 228.683C207.039 228.47 207.099 228.287 207.144 228.149ZM242.741 133.017C242.949 132.375 243.157 131.732 243.411 131.105C243.948 129.606 245.619 128.829 247.118 129.366C248.617 129.902 249.394 131.573 248.857 133.073C248.679 133.623 248.44 134.205 248.261 134.755C247.057 138.471 246.357 142.351 246.131 146.334C246.022 147.921 244.66 149.152 243.073 149.044C241.486 148.935 240.254 147.572 240.363 145.985C240.57 141.591 241.388 137.192 242.741 133.017ZM202.122 262.416C202.508 261.223 203.645 260.374 205.003 260.409C209.61 260.584 214.337 260.392 219.015 259.88C220.599 259.684 222.043 260.862 222.193 262.431C222.389 264.016 221.212 265.459 219.642 265.61C214.69 266.185 209.659 266.379 204.761 266.161C203.159 266.098 201.927 264.735 201.976 263.179C202.004 262.935 202.047 262.645 202.122 262.416ZM250.522 118.707C250.626 118.386 250.791 118.033 251.033 117.757C253.871 114.317 257.187 111.437 260.905 109.195C261.603 108.762 262.347 108.344 263.076 107.972C264.488 107.213 266.232 107.778 266.991 109.19C267.75 110.602 267.185 112.345 265.773 113.104C265.165 113.414 264.543 113.77 263.966 114.141C260.81 116.059 257.979 118.538 255.502 121.487C254.491 122.731 252.662 122.898 251.433 121.841C250.511 121.086 250.165 119.808 250.522 118.707ZM241.698 159.701C241.995 158.783 242.751 158.014 243.786 157.792C245.324 157.429 246.887 158.392 247.251 159.929C248.326 164.435 250.008 168.63 252.327 172.424C253.147 173.805 252.72 175.593 251.339 176.413C249.958 177.232 248.17 176.805 247.35 175.424C244.751 171.084 242.79 166.341 241.604 161.242C241.523 160.709 241.534 160.205 241.698 159.701ZM275.534 105.824C275.891 104.723 276.921 103.891 278.11 103.82C282.912 103.551 287.783 104.166 292.508 105.698C292.83 105.802 293.151 105.906 293.472 106.01C294.971 106.547 295.762 108.172 295.226 109.671C294.689 111.17 293.064 111.962 291.565 111.425C291.29 111.336 291.014 111.247 290.739 111.157C286.702 109.849 282.564 109.319 278.479 109.567C276.878 109.656 275.495 108.448 275.406 106.847C275.357 106.527 275.43 106.145 275.534 105.824ZM230.768 259.126C231.065 258.209 231.806 257.486 232.75 257.234C237.239 256.053 241.71 254.46 246.011 252.609C247.485 251.971 249.184 252.674 249.821 254.148C250.459 255.622 249.756 257.321 248.282 257.959C243.692 259.919 238.994 261.59 234.23 262.834C232.678 263.244 231.099 262.327 230.69 260.774C230.563 260.226 230.589 259.677 230.768 259.126ZM256.557 183.934C256.661 183.613 256.826 183.261 257.067 182.984C258.079 181.74 259.908 181.573 261.151 182.584C264.56 185.362 268.484 187.647 272.814 189.304C274.298 189.887 275.075 191.558 274.492 193.042C273.91 194.526 272.239 195.303 270.754 194.72C265.828 192.87 261.398 190.269 257.467 187.068C256.5 186.298 256.2 185.035 256.557 183.934ZM257.257 247.787C257.465 247.145 257.903 246.577 258.525 246.221C262.486 243.854 266.367 241.107 270.095 238.209C271.337 237.192 273.185 237.436 274.156 238.663C275.173 239.905 274.929 241.753 273.702 242.724C269.808 245.822 265.698 248.647 261.525 251.198C260.144 252.018 258.356 251.591 257.536 250.21C257.087 249.405 257.004 248.567 257.257 247.787ZM302.195 115.073C302.314 114.706 302.464 114.4 302.767 114.092C303.824 112.863 305.638 112.741 306.836 113.738C310.737 117.03 314.05 121.045 316.65 125.537C317.469 126.918 316.996 128.692 315.615 129.511C314.234 130.331 312.461 129.858 311.641 128.477C309.32 124.531 306.439 121.062 303.075 118.147C302.154 117.392 301.853 116.128 302.195 115.073ZM283.044 194.344C283.46 193.059 284.689 192.24 286.078 192.335C290.443 192.787 295.11 192.779 299.941 192.266C301.511 192.115 302.954 193.293 303.104 194.863C303.255 196.432 302.077 197.876 300.508 198.026C295.28 198.512 290.248 198.554 285.485 198.075C283.913 197.92 282.757 196.481 282.912 194.909C282.971 194.725 282.985 194.527 283.044 194.344ZM279.894 229.876C280.027 229.463 280.253 229.08 280.616 228.741C283.853 225.481 287.041 221.901 290.061 218.215C291.072 216.971 292.855 216.789 294.114 217.754C295.358 218.766 295.54 220.549 294.575 221.807C291.435 225.707 288.11 229.396 284.722 232.81C283.588 233.963 281.773 233.932 280.619 232.798C279.805 232.027 279.566 230.885 279.894 229.876ZM316.614 139.569C316.911 138.652 317.668 137.883 318.718 137.615C320.255 137.251 321.819 138.214 322.168 139.797C323.26 144.562 323.698 149.622 323.559 154.9C323.496 156.502 322.18 157.749 320.578 157.686C318.976 157.623 317.73 156.306 317.793 154.704C317.921 149.929 317.532 145.342 316.535 141.065C316.394 140.562 316.465 140.028 316.614 139.569ZM298.055 207.472C298.129 207.243 298.264 206.982 298.384 206.768C301.126 202.688 303.563 198.611 305.711 194.643C306.477 193.218 308.211 192.715 309.636 193.481C311.061 194.247 311.563 195.982 310.797 197.407C308.544 201.543 306.002 205.789 303.17 209.992C302.281 211.326 300.499 211.661 299.165 210.772C298.091 210.019 297.668 208.665 298.055 207.472ZM316.045 168.232C316.506 166.81 317.993 165.974 319.46 166.297C321.019 166.65 321.992 168.182 321.624 169.787C321.036 172.385 320.295 174.984 319.433 177.645C318.749 179.755 317.958 181.882 317.122 183.993C316.539 185.478 314.837 186.193 313.353 185.611C311.868 185.028 311.153 183.326 311.735 181.842C312.542 179.822 313.242 177.818 313.881 175.845C314.684 173.368 315.381 170.907 315.91 168.492C316 168.37 316.03 168.278 316.045 168.232ZM311.679 191.558C311.961 190.686 312.657 189.948 313.6 189.696C318.043 188.348 322.297 186.482 326.183 184.192C327.564 183.372 329.337 183.846 330.157 185.227C330.977 186.608 330.503 188.381 329.122 189.201C324.812 191.707 320.147 193.744 315.294 195.264C313.773 195.735 312.133 194.848 311.663 193.327C311.506 192.718 311.5 192.108 311.679 191.558ZM336.388 177.107C336.537 176.648 336.762 176.265 337.126 175.926C340.349 172.864 343.385 169.285 346.128 165.358C347.062 164.038 348.829 163.749 350.163 164.638C351.483 165.572 351.818 167.354 350.883 168.674C347.944 172.892 344.621 176.733 341.156 180.071C339.991 181.164 338.176 181.133 337.083 179.968C336.314 179.212 336.076 178.07 336.388 177.107ZM365.114 112.093C365.545 110.763 366.881 109.928 368.285 110.13C369.889 110.345 370.984 111.815 370.722 113.404C370.032 118.351 369.126 123.178 368.067 127.854C367.714 129.413 366.136 130.371 364.577 130.018C363.019 129.665 362.06 128.087 362.413 126.528C363.473 122.005 364.334 117.316 365.011 112.567C365.01 112.414 365.055 112.277 365.114 112.093ZM353.076 153.617C353.121 153.479 353.165 153.342 353.241 153.265C355.205 149.237 356.998 144.799 358.546 140.18C359.037 138.666 360.723 137.844 362.222 138.381C363.736 138.871 364.558 140.557 364.022 142.056C362.4 146.905 360.501 151.511 358.417 155.754C357.697 157.193 355.978 157.802 354.539 157.082C353.253 156.513 352.63 154.993 353.076 153.617Z" fill="#4E7D64"/>
<path d="M30.9135 292.607C31.3595 291.231 32.8014 290.38 34.2372 290.643C36.6204 291.111 38.9576 291.564 41.2949 292.018C42.8684 292.325 43.9028 293.826 43.5956 295.4C43.2885 296.973 41.7871 298.007 40.2136 297.7C37.8615 297.293 35.4324 296.81 33.0493 296.342C31.4758 296.034 30.4563 294.487 30.8093 292.929C30.854 292.791 30.8837 292.699 30.9135 292.607Z" fill="#4E7D64"/>
</svg>
