<?xml version="1.0" encoding="UTF-8" standalone="no"?>
<!DOCTYPE svg PUBLIC "-//W3C//DTD SVG 1.1//EN" "http://www.w3.org/Graphics/SVG/1.1/DTD/svg11.dtd">
<svg width="100%" height="100%" viewBox="0 0 377 144" version="1.1" xmlns="http://www.w3.org/2000/svg" xmlns:xlink="http://www.w3.org/1999/xlink" xml:space="preserve" xmlns:serif="http://www.serif.com/" style="fill-rule:evenodd;clip-rule:evenodd;stroke-linejoin:round;stroke-miterlimit:2;">
    <g transform="matrix(1,0,0,1,0,-97)">
        <path d="M340.608,218.403L360.175,228.33C362.562,229.538 365.456,229.161 367.456,227.381C369.456,225.602 370.2,222.803 369.247,220.276L361.777,199.662C361.05,197.648 358.532,197.028 356.954,198.438C356.303,199.004 355.944,199.788 355.938,200.652L355.846,207.331C355.834,209.058 355.066,210.709 353.788,211.877C352.488,213.009 350.784,213.588 349.097,213.4L342.335,212.703C341.485,212.638 340.688,212.893 340.037,213.459C338.4,214.856 338.725,217.429 340.608,218.403Z" style="fill:rgb(78,125,100);fill-rule:nonzero;"/>
    </g>
    <g transform="matrix(1,0,0,1,0,-97)">
        <path d="M8.491,158.036C7.592,158.608 6.399,158.56 5.503,157.867C4.397,157.004 4.23,155.392 5.128,154.264C5.177,154.182 6.707,152.298 9.465,149.328C10.432,148.308 12.054,148.235 13.074,149.202C14.095,150.17 14.168,151.791 13.2,152.812C10.599,155.631 9.119,157.434 9.083,157.457C8.936,157.702 8.743,157.875 8.491,158.036Z" style="fill:rgb(78,125,100);fill-rule:nonzero;"/>
    </g>
    <g transform="matrix(1,0,0,1,0,-97)">
        <path d="M338.468,194.493C337.426,195.157 336.046,194.974 335.202,194.046C332.323,190.876 329.373,187.752 326.465,184.853C325.48,183.863 325.502,182.231 326.492,181.247C327.483,180.262 329.114,180.284 330.099,181.274C333.053,184.245 336.026,187.405 338.987,190.624C339.958,191.673 339.877,193.292 338.805,194.228C338.697,194.296 338.612,194.401 338.468,194.493ZM320.481,176.332C319.546,176.927 318.235,176.853 317.388,176.078C314.231,173.186 310.99,170.399 307.827,167.814C306.757,166.929 306.59,165.317 307.453,164.211C308.338,163.142 309.95,162.974 311.055,163.837C314.3,166.471 317.587,169.33 320.825,172.271C321.882,173.216 321.955,174.837 321.01,175.894C320.817,176.067 320.661,176.217 320.481,176.332ZM222.432,222.364C221.281,223.097 219.774,222.793 218.969,221.688C218.141,220.548 218.435,218.946 219.576,218.118C222.576,216.004 225.403,213.142 228.053,209.685C228.916,208.58 230.518,208.317 231.623,209.18C232.764,210.02 232.991,211.645 232.128,212.75C229.197,216.639 225.962,219.812 222.517,222.259C222.504,222.318 222.468,222.341 222.432,222.364ZM210.821,227.385C210.533,227.568 210.259,227.692 209.879,227.732C205.322,228.512 200.669,228.19 196.075,226.77C194.747,226.352 193.985,224.917 194.38,223.554C194.798,222.226 196.233,221.464 197.596,221.859C201.439,223.05 205.264,223.343 209.027,222.664C210.439,222.422 211.744,223.359 211.964,224.736C212.154,225.828 211.648,226.858 210.821,227.385ZM237.996,202.442C237.312,202.877 236.423,202.988 235.602,202.652C234.301,202.116 233.682,200.59 234.277,199.301C235.854,195.668 236.905,191.764 237.439,187.683C237.622,186.303 238.897,185.289 240.335,185.485C241.715,185.667 242.729,186.942 242.534,188.38C241.931,192.909 240.753,197.248 238.976,201.362C238.767,201.748 238.427,202.167 237.996,202.442ZM300.64,160.262C299.777,160.811 298.666,160.812 297.779,160.214C294.283,157.74 290.725,155.408 287.232,153.336C286.005,152.601 285.612,151.032 286.347,149.806C287.083,148.579 288.652,148.186 289.878,148.921C293.476,151.077 297.116,153.459 300.753,155.995C301.93,156.812 302.192,158.414 301.353,159.555C301.134,159.846 300.928,160.078 300.64,160.262ZM187.054,220.386C186.156,220.958 184.926,220.933 184.066,220.217C180.776,217.511 177.969,214.295 175.678,210.7C175.518,210.448 175.358,210.197 175.198,209.945C174.478,208.736 174.817,207.205 176.003,206.449L176.039,206.427C177.249,205.707 178.802,206.082 179.558,207.268C179.695,207.484 179.833,207.7 179.993,207.952C182.009,211.116 184.482,213.887 187.317,216.276C188.41,217.197 188.554,218.773 187.656,219.902C187.499,220.052 187.306,220.225 187.054,220.386ZM241.45,177.395C241.126,177.601 240.757,177.736 240.377,177.775C238.955,177.923 237.722,176.939 237.538,175.54C237.089,171.581 236.191,167.553 234.842,163.611C234.397,162.277 235.089,160.825 236.459,160.357C237.793,159.911 239.268,160.64 239.713,161.974C241.137,166.272 242.146,170.634 242.613,174.936C242.757,175.956 242.241,176.891 241.45,177.395ZM278.702,147.246C277.983,147.704 277.071,147.779 276.227,147.407C272.375,145.565 268.493,143.994 264.677,142.685C263.326,142.231 262.636,140.75 263.077,139.459C263.53,138.108 265.011,137.417 266.303,137.858C270.296,139.207 274.341,140.875 278.393,142.793C279.681,143.387 280.205,144.924 279.611,146.212C279.424,146.634 279.098,146.994 278.702,147.246ZM174.234,198.832C173.947,199.015 173.613,199.127 173.293,199.179C171.881,199.422 170.576,198.484 170.333,197.072C169.795,193.927 169.778,190.804 170.218,187.845C170.449,186.384 170.752,184.876 171.115,183.382C171.451,182.005 172.84,181.171 174.217,181.507C175.593,181.843 176.428,183.232 176.091,184.609C175.791,185.963 175.491,187.316 175.286,188.66C174.927,191.112 174.945,193.679 175.387,196.278C175.532,197.298 175.061,198.305 174.234,198.832ZM233.461,153.27C233.425,153.293 233.389,153.316 233.353,153.338C232.121,154.022 230.58,153.588 229.861,152.379C229.223,151.218 228.548,150.081 227.838,148.966C226.35,146.629 224.694,144.348 222.954,142.171C222.342,141.449 222.221,140.465 222.557,139.644C220.406,140.155 218.265,140.761 216.192,141.475C214.858,141.92 213.406,141.227 212.961,139.894C212.516,138.56 213.208,137.108 214.542,136.663C218.687,135.235 223.025,134.19 227.426,133.56C228.825,133.377 230.13,134.314 230.314,135.714C230.498,137.113 229.537,138.382 228.161,138.602C227.709,138.687 227.271,138.713 226.82,138.799C226.866,138.87 226.925,138.883 226.971,138.955C228.862,141.289 230.609,143.714 232.212,146.231C232.968,147.418 233.71,148.663 234.394,149.895C234.974,151.042 234.611,152.537 233.461,153.27ZM254.546,139.08C254.007,139.423 253.33,139.551 252.683,139.408C248.536,138.612 244.42,138.1 240.415,137.922C239.009,137.858 237.91,136.688 237.974,135.282C238.039,133.876 239.209,132.777 240.615,132.842C244.905,132.99 249.293,133.531 253.674,134.379C255.064,134.656 255.97,135.999 255.693,137.389C255.523,138.154 255.121,138.713 254.546,139.08ZM179.323,174.21C178.604,174.668 177.656,174.767 176.826,174.336C175.573,173.718 175.049,172.182 175.667,170.929C177.594,166.972 179.943,163.201 182.678,159.639C183.54,158.534 185.165,158.308 186.271,159.17C187.376,160.033 187.603,161.658 186.74,162.763C184.224,166.034 182.058,169.537 180.268,173.154C180.046,173.598 179.719,173.958 179.323,174.21ZM194.763,154.014C193.72,154.678 192.304,154.518 191.473,153.531C190.538,152.459 190.642,150.877 191.691,149.905C195.028,146.971 198.629,144.373 202.437,142.099C203.647,141.379 205.223,141.79 205.943,143C206.663,144.209 206.251,145.785 205.042,146.505C201.499,148.56 198.185,150.975 195.112,153.69C195.014,153.853 194.871,153.945 194.763,154.014ZM116.962,198.823C116.458,199.143 115.955,199.464 115.429,199.749C114.219,200.469 112.643,200.057 111.923,198.848C111.203,197.639 111.615,196.063 112.824,195.343C113.256,195.068 113.746,194.806 114.177,194.531C117.09,192.676 119.75,190.425 122.145,187.838C123.113,186.817 124.734,186.745 125.755,187.712C126.775,188.679 126.848,190.301 125.881,191.322C123.266,194.2 120.234,196.739 116.962,198.823ZM217.47,133.483C216.535,134.079 215.283,134.017 214.377,133.23C211.335,130.517 208.005,127.988 204.529,125.704C203.338,124.947 203.017,123.331 203.798,122.177C204.556,120.986 206.171,120.665 207.326,121.446C211.025,123.841 214.563,126.54 217.779,129.445C218.835,130.39 218.908,132.011 218,133.045C217.843,133.195 217.65,133.369 217.47,133.483ZM103.605,204.198C103.353,204.358 103.043,204.505 102.722,204.558C98.851,205.305 94.971,205.402 91.174,204.838C90.455,204.74 89.713,204.606 89.006,204.45C87.617,204.172 86.746,202.806 87.024,201.416C87.301,200.027 88.667,199.156 90.057,199.434C90.645,199.564 91.27,199.672 91.872,199.743C95.102,200.213 98.427,200.116 101.775,199.5C103.164,199.222 104.505,200.136 104.748,201.549C104.951,202.582 104.468,203.648 103.605,204.198ZM132.69,181.222C131.971,181.68 131.023,181.779 130.192,181.347C128.939,180.73 128.416,179.194 129.033,177.941C130.836,174.265 132.051,170.459 132.605,166.568C132.823,165.165 134.121,164.187 135.523,164.405C136.926,164.624 137.904,165.921 137.686,167.324C137.014,171.745 135.682,176.081 133.621,180.224C133.376,180.633 133.085,180.97 132.69,181.222ZM79.306,198.902C78.443,199.452 77.273,199.44 76.423,198.819C72.998,196.3 70.025,193.139 67.666,189.436C67.505,189.184 67.345,188.933 67.185,188.681C66.465,187.472 66.84,185.918 68.049,185.198C69.259,184.479 70.812,184.854 71.532,186.063C71.669,186.279 71.807,186.495 71.944,186.71C73.96,189.874 76.482,192.564 79.406,194.694C80.547,195.534 80.81,197.136 79.97,198.278C79.823,198.523 79.558,198.742 79.306,198.902ZM196.094,119.604C195.375,120.062 194.463,120.138 193.678,119.779C189.953,118.057 186.009,116.627 182.036,115.468C180.673,115.073 179.91,113.638 180.305,112.275C180.7,110.911 182.135,110.149 183.499,110.544C187.73,111.791 191.873,113.296 195.82,115.128C197.109,115.723 197.669,117.236 197.074,118.525C196.852,118.969 196.525,119.329 196.094,119.604ZM136.2,156.342C135.948,156.503 135.637,156.65 135.317,156.702C133.928,156.981 132.587,156.066 132.308,154.677C131.548,150.865 130.16,147.099 128.141,143.533C127.457,142.301 127.868,140.724 129.1,140.04C130.333,139.357 131.909,139.768 132.593,141C134.909,145.034 136.464,149.3 137.343,153.694C137.569,154.763 137.063,155.793 136.2,156.342ZM171.657,112.426C171.154,112.746 170.536,112.887 169.911,112.78C165.88,112.164 161.688,111.852 157.516,111.729C156.097,111.723 154.975,110.517 155.004,109.134C155.01,107.715 156.216,106.593 157.599,106.622C161.996,106.702 166.387,107.089 170.668,107.698C172.07,107.917 173.049,109.214 172.83,110.617C172.683,111.418 172.268,112.036 171.657,112.426ZM66.339,177.594C66.052,177.777 65.777,177.902 65.398,177.941C63.985,178.184 62.68,177.246 62.425,175.893C61.618,171.453 61.62,166.853 62.376,162.327C62.594,160.924 63.915,159.982 65.318,160.201C66.72,160.419 67.663,161.739 67.444,163.142C66.805,167.138 66.817,171.124 67.469,175.004C67.672,176.037 67.166,177.067 66.339,177.594ZM124.004,134.341C122.997,134.982 121.699,134.849 120.806,134.002C118.084,131.237 114.899,128.617 111.317,126.248C110.163,125.467 109.842,123.852 110.623,122.698C111.404,121.543 113.019,121.222 114.173,122.003C118.009,124.613 121.463,127.417 124.44,130.424C125.425,131.414 125.403,133.045 124.412,134.03C124.269,134.122 124.148,134.249 124.004,134.341ZM146.148,111.895C145.824,112.101 145.455,112.235 145.017,112.262C140.976,112.662 136.788,113.308 132.655,114.121C131.266,114.4 129.948,113.521 129.633,112.154C129.355,110.765 130.234,109.447 131.6,109.132C135.935,108.241 140.277,107.598 144.508,107.178C145.93,107.03 147.15,108.072 147.298,109.494C147.419,110.478 146.939,111.391 146.148,111.895ZM70.297,152.783C69.578,153.241 68.63,153.34 67.763,152.931C66.511,152.314 65.987,150.777 66.64,149.502C68.577,145.64 71.126,141.944 74.191,138.425C75.135,137.368 76.734,137.26 77.791,138.204C78.847,139.148 78.956,140.747 78.011,141.804C75.237,144.986 72.92,148.332 71.192,151.808C71.006,152.23 70.656,152.554 70.297,152.783ZM121.161,116.945C120.981,117.059 120.743,117.161 120.54,117.239C116.375,118.477 112.42,119.885 108.722,121.381C107.399,121.921 105.934,121.287 105.393,119.963C104.853,118.639 105.487,117.174 106.811,116.634C110.675,115.083 114.797,113.619 119.093,112.349C120.449,111.939 121.852,112.714 122.261,114.07C122.569,115.188 122.096,116.349 121.161,116.945ZM86.816,133.567C85.701,134.277 84.217,134.009 83.399,132.963C82.535,131.846 82.734,130.253 83.887,129.367C85.75,127.927 87.718,126.573 89.803,125.244C91.457,124.191 93.193,123.186 94.952,122.218C96.184,121.534 97.747,122.004 98.431,123.236C99.115,124.468 98.645,126.032 97.412,126.715C95.726,127.638 94.121,128.61 92.575,129.595C90.633,130.832 88.773,132.117 87.054,133.465C86.923,133.498 86.852,133.544 86.816,133.567ZM102.918,120.125C102.235,120.56 101.346,120.671 100.561,120.312C96.774,118.731 92.824,117.609 88.887,116.983C87.485,116.764 86.542,115.444 86.761,114.041C86.979,112.638 88.3,111.696 89.702,111.914C94.051,112.632 98.377,113.869 102.54,115.564C103.842,116.099 104.46,117.626 103.925,118.928C103.69,119.431 103.35,119.85 102.918,120.125ZM77.944,116.069C77.584,116.298 77.215,116.432 76.777,116.459C72.857,116.732 68.773,117.463 64.693,118.596C63.314,118.969 61.947,118.172 61.538,116.815C61.164,115.436 61.938,114.033 63.318,113.66C67.695,112.438 72.122,111.69 76.362,111.365C77.772,111.276 78.992,112.318 79.08,113.727C79.179,114.676 78.699,115.588 77.944,116.069ZM21.776,144.216C20.733,144.881 19.354,144.698 18.51,143.77C17.538,142.721 17.619,141.102 18.691,140.167C21.946,137.183 25.28,134.403 28.633,131.812C29.751,130.948 31.366,131.183 32.23,132.301C33.094,133.418 32.859,135.034 31.741,135.897C28.473,138.384 25.247,141.096 22.113,143.951C22.028,144.056 21.92,144.125 21.776,144.216ZM53.35,122.688C53.242,122.757 53.134,122.826 53.039,122.835C49.434,124.475 45.714,126.491 42.06,128.768C40.873,129.524 39.261,129.136 38.541,127.926C37.786,126.74 38.174,125.128 39.383,124.408C43.217,122.016 47.104,119.945 50.912,118.226C52.213,117.65 53.727,118.202 54.303,119.503C54.86,120.614 54.429,122.001 53.35,122.688Z" style="fill:rgb(78,125,100);fill-rule:nonzero;"/>
    </g>
    <g transform="matrix(1,0,0,1,0,-97)">
        <path d="M351.157,209.254C350.079,209.942 348.617,209.71 347.786,208.723C346.425,207.063 345.088,205.438 343.75,203.814C342.85,202.719 342.99,201.114 344.085,200.214C345.18,199.314 346.785,199.454 347.685,200.549C349.058,202.151 350.442,203.847 351.803,205.507C352.703,206.602 352.527,208.23 351.409,209.094C351.301,209.163 351.229,209.209 351.157,209.254Z" style="fill:rgb(78,125,100);fill-rule:nonzero;"/>
    </g>
</svg>
