<svg width="281" height="275" viewBox="0 0 281 275" fill="none" xmlns="http://www.w3.org/2000/svg">
<path d="M45.9061 84.7032C44.2989 80.5878 44.1203 76.2041 44.031 71.9993C44.7453 71.0151 45.6382 70.8362 46.3525 71.2836C50.3705 73.7886 54.6564 75.9357 58.4065 78.9775C58.9422 79.4248 59.3887 79.8721 59.8351 80.3194C61.2637 82.1087 61.353 83.7191 60.1923 85.7767C59.6565 86.5819 59.1208 87.3871 58.4958 88.1923C57.8708 88.9974 57.2458 89.7132 56.7993 90.3394C55.1028 91.0551 53.3171 90.8762 51.8884 91.8603C50.5491 92.755 51.5313 94.8127 49.6562 95.8862C47.5133 95.7968 45.9954 94.0969 44.2096 92.576C43.7632 89.8026 43.406 87.0293 45.9061 84.7032ZM-105.974 73.2517C-107.224 72.4466 -108.385 71.5519 -109.635 70.7467C-113.653 68.3312 -115.26 68.7785 -117.582 72.8044C-117.849 73.3412 -117.849 74.0569 -118.028 74.5937C-116.867 76.7408 -114.992 77.725 -113.206 78.888C-111.331 80.1405 -109.278 81.1246 -107.313 82.2877C-106.867 83.4507 -107.581 84.7032 -106.867 85.6873C-102.135 90.25 -101.242 90.6078 -93.0271 92.3076C-91.8664 92.4866 -90.7949 92.9339 -89.902 91.7708C-90.2592 87.1187 -92.7593 84.2559 -101.599 78.7091C-102.045 76.2041 -103.831 74.5937 -105.974 73.2517ZM-24.8106 207.806C-26.507 206.822 -28.1142 205.659 -29.9893 204.943C-33.8287 203.512 -37.8467 206.553 -37.5788 210.669C-37.4003 213.711 -36.4181 216.484 -33.6501 218.273C-32.4001 219.078 -31.2393 219.973 -29.9893 220.778C-27.2213 222.657 -24.2748 222.299 -21.5069 221.136C-18.8282 220.063 -17.846 217.2 -18.7389 214.516C-19.2747 212.905 -20.0783 211.474 -21.4176 210.49C-22.5784 209.595 -23.8284 208.79 -25.0784 207.895C-24.8998 207.985 -24.8999 207.895 -24.8106 207.806ZM201.447 -18.628C200.643 -15.3178 201.804 -12.8128 204.394 -10.8446C205.197 -10.2184 206.001 -9.68159 206.804 -9.14481C211.537 -5.6557 213.59 -4.85052 218.144 -10.8446C218.323 -11.113 218.323 -11.4709 218.501 -12.0077C217.876 -14.1548 217.43 -16.4809 217.965 -18.628C215.644 -22.5644 212.519 -23.0117 209.215 -21.9382C207.072 -22.7434 205.644 -24.5327 203.054 -23.9064C201.893 -22.2066 201.893 -20.3278 201.447 -18.628ZM128.409 185.887C128.409 189.018 130.016 190.987 132.605 192.597C135.641 194.476 139.034 195.818 141.891 198.054C143.052 198.949 144.659 199.128 145.999 198.054C146.624 195.46 146.624 195.46 145.106 192.597C145.017 192.329 145.017 191.971 145.017 191.702C145.552 190.897 146.534 190.36 146.088 188.392C143.231 184.903 139.123 182.13 134.213 180.519C132.605 179.983 131.177 180.609 130.373 181.951C129.57 183.203 129.123 184.635 128.498 185.977L128.409 185.887ZM91.4433 81.7508C91.354 80.1405 90.5504 79.3353 89.6575 78.6196C88.2289 77.546 86.8003 76.4724 85.2824 75.4883C81.8894 73.2517 79.1215 73.2517 75.7285 75.4883C73.0499 77.2776 71.7105 81.9298 74.8356 84.2559C77.9608 86.5819 80.9073 89.2658 85.2824 91.0551C87.6039 87.745 90.104 84.9716 91.4433 81.7508ZM64.4781 176.493C66.2639 177.299 68.139 177.299 69.4783 175.688C71.2641 173.631 73.0499 171.484 73.7642 168.8C70.1926 163.342 65.1032 160.927 59.5673 162.09C58.1386 164.505 57.0672 167.189 56.6207 170.678C58.8529 173.362 61.4423 175.152 64.4781 176.493ZM-52.8472 70.4784C-55.3473 66.2735 -58.7403 63.0528 -63.1154 60.9057C-64.544 60.19 -65.9727 60.19 -67.1334 61.6214C-67.8477 63.1423 -67.6691 64.8421 -67.7584 66.4525C-67.8477 68.4207 -67.2227 70.031 -65.9726 71.373C-63.0261 74.5042 -59.6332 76.9198 -56.0616 78.5302C-54.3651 78.1723 -53.4722 77.4566 -52.3115 76.4725C-52.5793 74.3253 -51.6865 72.3571 -52.8472 70.4784ZM156.535 -77.0482C156.803 -78.4796 156.445 -79.7321 155.463 -80.7162C153.053 -82.9528 150.642 -85.1894 147.338 -85.8157C145.642 -85.1894 144.481 -84.0264 143.32 -82.8633C142.249 -81.7003 141.891 -80.3583 142.07 -78.748C142.427 -76.3324 143.766 -74.4537 145.82 -73.2012C148.409 -71.5909 150.552 -68.9964 154.392 -70.07C155.82 -72.4855 156.088 -74.8116 156.535 -77.0482ZM116.891 -101.382C113.498 -99.5037 111.087 -96.8198 109.569 -93.4201C115.462 -86.4419 118.676 -85.9946 126.177 -88.6785C126.266 -95.4778 122.873 -99.2353 116.891 -101.382ZM203.054 18.2312C203.59 20.6468 204.483 22.9729 206.536 24.5832C208.233 25.8357 209.929 27.0882 211.804 28.2512C213.858 29.5037 216.001 29.8616 218.412 28.788C219.751 25.12 216.626 22.9728 215.555 20.2889C213.947 16.3525 210.376 14.6527 206.536 12.9529C204.036 14.2054 202.608 15.8157 203.054 18.2312ZM-89.6342 19.9311C-86.9555 21.8098 -84.2768 23.6886 -81.5982 25.5673C-81.0624 25.9252 -80.4374 26.1936 -79.8124 26.3725C-77.8481 26.9988 -75.4373 26.1041 -74.2765 24.2253C-73.3836 22.7044 -73.5622 20.8257 -75.1694 19.3943C-78.4731 16.5314 -81.866 13.5791 -86.7769 12.8634C-88.4734 14.1159 -90.7056 14.8316 -91.1521 17.2471C-91.0628 18.6786 -90.4378 19.3943 -89.6342 19.9311ZM142.874 131.94C144.481 132.388 145.999 131.135 145.731 129.525C145.106 126.125 144.302 122.725 140.999 120.757C139.749 120.042 138.588 119.057 137.338 118.252C134.391 116.552 132.605 116.91 130.462 119.505C128.945 121.294 129.034 123.173 130.73 124.694C131.802 125.678 133.141 126.394 134.302 127.288C136.891 129.256 139.659 130.956 142.874 131.94ZM145.463 112.079C144.838 111.9 144.124 111.9 143.499 111.9C141.802 112.079 140.284 112.527 139.481 114.316C138.677 116.284 139.123 117.984 140.641 119.236C142.606 120.936 144.838 122.457 146.981 123.978C148.052 124.694 149.213 125.499 150.999 125.141C153.053 123.888 154.481 121.831 155.374 118.789C152.785 115.568 149.481 113.421 145.463 112.079ZM32.6914 239.387C30.3699 236.435 27.4233 234.466 24.1196 233.124C22.3339 232.409 20.816 232.945 20.0124 234.645C19.0302 236.524 18.4052 238.582 18.9409 241.176C22.066 243.95 25.1911 246.991 30.102 246.812C31.8878 244.576 32.6914 242.16 32.6914 239.387ZM128.409 185.977C125.105 180.967 120.105 178.283 114.658 176.404C113.587 176.046 112.426 176.136 111.355 177.299C110.64 179.177 110.64 181.235 111.355 183.651C113.23 185.619 115.73 187.14 118.141 188.75C119.659 189.734 121.176 189.734 122.784 188.929C124.659 187.945 126.534 186.961 128.409 185.977ZM153.856 -20.9541C154.124 -22.3855 153.499 -23.1907 152.695 -23.7275C150.91 -25.0694 148.945 -26.4114 147.159 -27.7534C145.017 -29.3637 142.695 -29.4532 140.195 -28.5586C136.713 -27.3061 135.82 -23.7275 138.588 -21.312C140.552 -19.6121 142.516 -17.9123 145.374 -17.1966C148.052 -18.8964 151.445 -18.9859 153.856 -20.9541ZM241.716 -1.27196C245.198 2.75392 249.752 4.72215 254.931 5.25893C257.163 5.43787 258.413 3.29071 257.342 1.23303C255.556 -2.34554 250.824 -6.01358 246.27 -7.08714C244.306 -6.10304 242.609 -4.6716 241.27 -2.52446C241.538 -1.89821 241.538 -1.54036 241.716 -1.27196ZM204.394 35.14C202.697 32.2771 202.697 32.2771 199.572 30.13C194.929 26.9093 194.036 26.9987 189.929 31.0246C189.75 31.2036 189.661 31.6509 189.482 31.9193C189.393 33.798 189.839 35.5873 191.268 36.7503C193.411 38.5396 195.465 40.4184 198.411 41.1341C201.268 39.8816 203.233 37.8239 204.394 35.14ZM-81.5982 197.786C-79.366 201.275 -76.4194 204.138 -72.6693 206.017C-71.1514 206.822 -69.8121 206.464 -68.6513 205.301C-66.687 203.243 -66.687 201.275 -68.8299 199.396C-71.955 196.712 -75.2587 194.386 -78.8302 192.418C-79.7231 191.971 -80.616 191.702 -82.1339 192.239C-83.1161 194.118 -82.5803 196.086 -81.5982 197.786ZM-48.1149 180.698C-51.1507 178.641 -53.6508 175.42 -57.8474 175.957C-59.4546 179.177 -59.4546 179.177 -59.5439 182.488C-55.5259 187.319 -50.3471 189.376 -43.6505 188.392C-44.2755 184.277 -44.8112 182.935 -48.1149 180.698ZM94.2113 246.723C94.122 248.512 95.1042 249.496 96.1756 250.212C98.4078 251.733 100.372 253.97 103.14 254.148C105.283 253.612 106.355 252.091 107.515 250.749C108.587 249.407 108.587 247.975 107.337 246.723C105.283 244.576 103.051 242.697 100.015 241.981C97.6935 243.234 95.4613 244.665 94.2113 246.723ZM-173.476 -20.6857C-172.673 -20.1489 -171.869 -19.5227 -171.065 -18.9859C-170.619 -18.7175 -170.262 -18.4491 -169.815 -18.2702C-169.19 -18.0018 -168.655 -17.6439 -168.03 -17.5544C-166.422 -17.1071 -164.458 -18.0912 -163.476 -19.791C-162.672 -21.133 -162.851 -22.6539 -164.19 -23.8169C-167.405 -26.7693 -170.976 -29.0059 -175.53 -28.9164C-176.78 -28.9164 -177.851 -28.5585 -178.298 -27.306C-178.834 -26.143 -178.566 -24.98 -177.673 -24.0854C-176.423 -22.8329 -174.994 -21.6698 -173.655 -20.5068C-173.476 -20.5962 -173.476 -20.6857 -173.476 -20.6857ZM6.3512 22.7939C4.92258 24.4938 4.92256 25.3884 5.90474 26.5514C7.42265 28.3407 9.56557 28.6091 11.6192 28.6985C13.0478 31.3825 15.0122 33.3507 18.2266 32.9929C20.9052 32.7245 23.6732 32.1877 25.7268 29.7721C23.5839 26.5514 20.8159 24.4938 17.2444 23.5991C15.9944 24.6727 14.8336 25.5673 13.6729 26.5514C10.637 25.4778 9.11914 22.9729 6.3512 22.7939ZM-99.7238 73.1623C-100.885 75.1305 -100.617 76.4725 -98.8309 77.9039C-97.5808 78.9774 -96.0629 79.6037 -94.4557 79.9615C-91.2413 80.6773 -87.9377 80.8562 -84.9019 82.2877C-84.009 82.735 -82.9375 82.6455 -82.2232 81.3035C-83.5625 77.7249 -87.0448 76.2935 -89.902 74.2359C-92.1342 72.6255 -94.0986 70.4784 -97.7594 70.8362C-98.4737 71.6414 -99.188 72.3571 -99.7238 73.1623ZM264.842 17.5155C264.931 17.9628 265.021 18.4996 265.288 18.8575C268.503 23.0623 273.057 24.1359 277.967 24.2253C279.396 24.2253 280.289 23.0623 280.735 21.8098C281.271 20.4679 281.003 19.2154 279.842 18.2312C278.503 17.0682 277.075 15.9052 274.842 15.5473C272.074 17.6945 268.592 16.5314 265.11 16.5314C264.931 17.2471 264.842 17.4261 264.842 17.5155ZM-108.831 -111.402C-108.206 -111.939 -107.67 -112.565 -107.224 -113.281C-106.331 -114.534 -106.42 -115.876 -107.492 -116.86C-109.456 -118.56 -111.331 -120.438 -114.278 -120.528C-116.242 -119.544 -118.117 -118.649 -119.189 -116.323C-117.76 -112.834 -114.635 -111.492 -111.153 -109.882C-110.081 -110.508 -109.367 -110.955 -108.831 -111.402ZM-194.281 42.0287C-194.37 43.0128 -194.013 43.997 -193.209 44.7127C-191.155 46.5914 -189.191 48.5596 -186.602 49.0964C-184.727 48.6491 -184.102 47.5755 -183.477 46.4125C-182.673 44.8916 -182.852 43.4602 -184.012 42.2971C-186.245 40.0605 -188.566 38.0029 -191.87 37.5555C-193.923 38.7186 -194.191 40.4184 -194.281 42.0287ZM-104.635 -144.057C-107.045 -146.115 -109.456 -148.53 -113.028 -148.172C-114.546 -146.92 -115.081 -145.399 -114.635 -143.431C-111.242 -139.584 -107.224 -136.989 -101.42 -138.152C-101.331 -141.015 -102.938 -142.625 -104.635 -144.057ZM-26.6856 -211.423C-28.65 -212.229 -30.2572 -211.066 -30.525 -208.918C-30.6143 -207.755 -30.7036 -206.592 -29.9893 -205.608C-28.3821 -203.193 -26.1499 -201.493 -23.3819 -200.688C-21.0604 -199.972 -19.0961 -202.119 -19.6318 -204.445C-20.1676 -206.861 -21.6855 -208.471 -23.6498 -209.903C-24.7213 -210.35 -25.7034 -210.976 -26.6856 -211.423ZM40.1023 38.808C39.0308 37.645 37.6915 36.6609 36.3522 35.4978C36.2629 34.7821 36.2629 33.8875 35.9951 33.1718C35.37 30.3984 32.7806 28.4302 29.9234 28.6091C28.9412 28.6986 28.0483 29.3248 28.0483 30.7563C28.8519 33.2612 31.7092 34.0664 33.3164 36.0346C33.495 41.8498 34.12 42.655 39.2987 44.0864C41.4417 41.5814 41.6202 40.5078 40.1023 38.808ZM84.2109 310.958C84.5681 309.616 84.3002 308.632 83.4966 307.917C82.7823 307.29 81.9787 306.664 81.1751 306.127C77.5143 303.443 75.6392 304.159 73.5856 306.843C73.0498 307.469 72.3356 308.006 72.5141 309.348C74.3892 311.584 76.9786 313.016 80.1037 314C81.5323 312.926 83.2288 312.211 84.2109 310.958ZM72.6034 210.937C71.6212 210.132 70.3712 209.595 68.9426 210.222C67.6925 211.385 67.6032 212.995 68.4961 214.158C70.9962 217.468 74.2999 219.884 78.3179 220.868C79.3 221.136 80.2823 220.599 80.9966 218.81C78.4072 216.126 75.6392 213.442 72.6034 210.937ZM145.374 47.3966C143.499 46.5914 141.356 46.323 139.213 47.0387C138.32 47.3071 137.784 48.6491 138.141 49.4543C139.302 52.2276 141.802 53.4802 144.481 54.3748C146.624 55.0905 148.231 54.0169 149.927 52.4066C149.481 49.3648 147.338 48.2912 145.374 47.3966ZM-17.7567 238.134C-20.4354 235.808 -23.2034 233.482 -25.9713 231.246C-26.8642 230.53 -28.025 230.172 -29.1857 230.709C-30.525 231.246 -31.3286 232.14 -31.5072 233.482C-31.3286 234.824 -30.4358 235.629 -29.275 235.898C-25.9713 236.792 -22.7569 237.955 -19.8997 239.924C-19.5425 240.192 -19.0068 240.192 -18.4711 240.192C-17.9353 240.192 -17.5782 239.834 -17.3103 239.297C-17.4889 239.029 -17.4889 238.403 -17.7567 238.134ZM106.355 150.817C107.962 151.801 109.747 152.785 111.89 151.712C112.962 149.028 112.337 146.881 110.015 145.27C107.426 143.392 104.747 142.944 101.712 145.092C101.89 148.581 104.301 149.565 106.355 150.817ZM57.2457 156.185C58.4065 157.348 59.8351 158.243 61.5316 158.243C62.4245 158.243 63.1388 157.974 63.6745 157.348C64.5674 156.364 65.1924 155.201 65.371 153.859C65.4603 153.054 65.2817 152.249 64.6567 151.622C63.3174 150.28 61.7995 149.386 59.8351 150.012C58.3172 150.549 56.6207 150.638 55.46 151.891C54.9243 153.859 56.085 155.112 57.2457 156.185ZM101.176 120.22C99.2114 118.968 97.2471 118.073 95.0149 119.326C94.3005 121.205 95.2827 122.368 96.3542 123.352C99.2114 125.767 102.247 127.646 106.533 128.272C106.265 124.157 105.194 122.725 101.176 120.22ZM109.033 170.857C109.658 172.11 110.908 172.647 112.605 171.752C112.515 169.426 114.391 167.547 114.926 165.31C114.033 163.163 112.515 162.09 110.462 161.821C108.855 161.642 107.694 162.537 106.355 164.147C107.247 166.384 107.962 168.71 109.033 170.857ZM-73.4729 -183.511C-75.7944 -182.705 -77.4909 -181.095 -78.4731 -178.858C-77.848 -177.069 -76.7766 -176.175 -75.0801 -176.353C-73.1157 -176.443 -71.2407 -176.622 -69.0085 -176.801C-67.937 -180.916 -68.562 -181.721 -73.4729 -183.511ZM-66.7763 168.531C-66.7763 170.589 -65.7941 172.289 -64.4547 173.72C-63.2047 175.062 -61.8654 176.225 -59.7224 175.957C-59.3653 175.688 -58.9188 175.509 -58.5617 175.152C-58.026 174.525 -57.6688 173.81 -57.2224 172.915C-60.7046 167.189 -62.1333 166.563 -66.7763 168.531ZM-29.4536 -14.5127C-28.8286 -14.2443 -28.2035 -14.3337 -27.4892 -14.7811C-26.4178 -16.123 -26.5963 -17.5545 -27.6678 -18.7175C-29.9 -21.0436 -32.668 -22.475 -35.9716 -22.3855C-37.2217 -22.3855 -38.2039 -21.8487 -38.3824 -19.97C-35.7931 -17.8228 -32.9358 -15.7652 -29.4536 -14.5127ZM-9.45291 -85.6367C-7.75642 -85.4578 -6.68497 -86.7998 -7.04211 -88.4101C-7.48856 -90.9151 -9.27434 -92.3465 -11.2387 -93.5096C-12.7566 -94.4042 -14.2745 -94.2253 -15.1674 -92.9728C-16.2388 -91.5414 -16.1496 -89.8416 -14.8995 -88.4996C-14.4531 -88.0523 -13.9173 -87.6049 -14.0066 -87.7839C-12.2209 -86.4419 -10.9708 -85.7262 -9.45291 -85.6367ZM65.0139 137.487C63.9424 136.056 62.4245 134.982 60.6387 134.535C59.5672 134.266 58.6744 134.893 58.0493 135.608C57.5136 136.235 57.3351 137.129 57.7815 137.934C59.3887 140.976 61.5316 143.213 65.6389 143.481C66.5318 140.976 66.1746 139.097 65.0139 137.487ZM82.4252 37.645C84.4788 38.5396 85.9967 37.4661 85.9967 35.14C85.9967 34.1559 85.7289 33.1718 85.0146 32.4561C84.0324 31.3825 82.8716 30.4878 81.443 29.8616C80.1929 29.3248 79.0322 29.4143 78.2286 30.2195C77.3357 31.2036 77.3357 32.2771 77.7822 33.4402C78.3179 34.8716 79.4786 35.8557 80.7287 36.8398C81.2644 37.0187 81.8894 37.3766 82.4252 37.645ZM63.0495 125.409C62.1566 124.515 61.0852 123.71 59.9244 123.083C58.3172 122.099 56.8886 122.368 55.9957 123.62C54.9242 125.052 55.0135 126.841 56.4421 128.004C57.4243 128.898 58.4958 129.614 59.5673 130.24C60.9959 131.046 62.3352 130.867 63.6745 129.883C64.6567 128.183 64.2103 126.662 63.0495 125.409ZM-48.8292 179.267C-46.9542 180.519 -45.1684 182.04 -42.7576 182.13C-42.3111 182.13 -41.954 181.682 -41.329 181.414C-41.8647 177.925 -44.9005 176.493 -47.3113 174.883C-48.7399 173.899 -50.4364 172.378 -52.8472 174.167C-52.1329 176.672 -50.615 178.104 -48.8292 179.267ZM-106.063 -79.8215C-108.117 -80.3583 -110.349 -79.0164 -111.063 -76.9587C-111.51 -75.7062 -110.438 -74.0959 -108.474 -73.2907C-107.849 -73.0223 -107.224 -72.8434 -106.599 -72.7539C-104.635 -72.4855 -103.027 -73.4696 -102.492 -75.3483C-102.135 -76.6008 -102.76 -78.0323 -104.635 -79.1953C-104.813 -79.3742 -105.438 -79.6426 -106.063 -79.8215ZM198.143 102.059C199.929 102.507 201.447 101.791 202.251 100.18C202.965 98.8385 202.608 97.586 201.09 96.3336C200.108 95.5284 199.036 94.6337 197.697 94.7231C196.536 94.9021 195.554 95.5283 194.661 96.244C194.215 96.6914 193.768 97.1387 193.232 97.765C194.125 100.538 196 101.522 198.143 102.059ZM18.8516 78.7985C17.423 81.2141 17.5123 82.2877 19.1195 84.0769C20.1016 85.1505 21.3517 86.0452 22.8696 86.3135C24.2089 86.5819 25.459 86.3135 26.7983 84.7927C25.3697 80.8562 22.7803 78.9774 18.8516 78.7985ZM-66.9548 -93.8675C-65.9727 -93.5991 -64.9905 -93.8674 -64.3654 -94.7621C-63.6511 -95.6567 -63.0261 -96.7303 -63.6512 -97.8934C-64.7226 -99.8616 -66.3298 -101.114 -68.6513 -101.293C-70.0799 -101.382 -71.6871 -100.309 -72.0443 -98.9669C-72.4014 -97.7144 -71.6871 -96.8198 -70.7943 -96.0146C-70.4371 -95.7462 -69.9906 -95.4778 -68.9192 -94.6726C-68.6513 -94.6726 -67.8477 -94.1358 -66.9548 -93.8675ZM-35.168 148.133C-34.2752 148.67 -33.2037 148.581 -32.4001 147.865C-31.5965 147.149 -31.4179 146.165 -31.6858 145.181C-32.043 143.928 -32.668 142.766 -33.2037 141.513C-35.3466 140.976 -37.311 139.813 -39.6325 141.513C-40.0789 145.36 -37.6681 146.791 -35.168 148.133ZM-34.2752 -86.7103C-33.2037 -85.4578 -32.043 -84.2948 -30.2572 -84.2948C-29.0964 -84.2948 -28.1142 -85.1 -27.6678 -86.263C-27.2214 -87.2471 -27.3999 -88.2312 -28.2035 -88.9469C-29.8107 -90.6467 -31.6858 -91.8098 -34.543 -91.3624C-35.3466 -88.589 -35.3466 -88.0523 -34.2752 -86.7103ZM-114.099 1.76985C-115.617 -0.108902 -117.492 -1.1825 -119.992 -0.735168C-121.242 1.85928 -121.332 2.21716 -120.617 3.38019C-119.189 5.52733 -117.403 7.04823 -114.367 6.69037C-113.028 4.81163 -112.939 3.29074 -114.099 1.76985ZM-19.8997 207.269C-18.4711 208.164 -16.9532 208.701 -15.2567 208.432C-14.1852 208.253 -13.4709 207.538 -13.203 206.553C-12.9352 205.748 -13.1138 204.943 -13.6495 204.227C-14.6317 203.154 -15.8817 202.259 -17.3996 202.08C-19.1854 201.901 -20.9712 201.812 -22.3105 203.243C-21.6855 205.927 -21.4176 206.285 -19.8997 207.269ZM211.983 -24.7116C214.037 -24.6221 215.733 -25.6957 216.269 -27.7534C215.644 -29.7216 214.394 -30.7057 212.697 -30.9741C210.644 -31.2425 208.769 -30.8846 207.34 -28.648C208.054 -25.9641 209.751 -24.7116 211.983 -24.7116ZM67.4247 32.4561C65.996 30.6668 64.2996 29.1459 61.8888 29.2353C60.2816 30.6668 59.8351 32.3666 60.9959 33.798C62.6031 35.8557 64.4781 37.7345 67.6925 37.0188C68.5854 35.0505 68.4068 33.6191 67.4247 32.4561ZM-85.7947 -69.9805C-86.8662 -73.3801 -89.3663 -75.2589 -92.67 -76.243C-93.4736 -76.5114 -94.2772 -76.243 -94.8129 -75.08C-94.4557 -72.2171 -92.2235 -70.5173 -89.902 -69.1753C-88.7413 -68.4596 -87.3126 -67.565 -85.9733 -69.0858C-85.884 -69.3542 -85.7055 -69.7121 -85.7947 -69.9805ZM3.94038 220.778C5.45828 221.315 7.42265 220.331 8.04767 218.9C8.5834 217.647 7.95839 216.663 7.06551 215.858C5.99403 214.874 4.74399 213.979 2.86893 214.158C2.51176 214.426 1.88675 214.695 1.44031 215.142C0.815292 215.679 0.368835 216.395 0.279556 217.647C0.993866 219.347 2.33318 220.241 3.94038 220.778ZM173.321 92.4865C172.25 91.8603 171.178 91.6814 170.107 92.3076C169.214 93.2023 169.124 94.2759 169.66 95.4389C170.375 96.7809 171.357 97.8544 172.875 98.2123C174.928 98.5701 176.982 98.7491 179.214 99.1069C177.16 95.2599 175.821 93.8285 173.321 92.4865ZM-14.0959 40.9552C-12.7566 41.9393 -11.5958 43.1023 -9.81007 43.0128C-8.7386 43.0128 -7.935 42.4761 -7.57785 41.4025C-7.30998 40.5973 -7.30997 39.7027 -7.8457 39.0764C-9.27432 37.466 -10.9708 36.2136 -13.2923 36.2136C-14.3638 36.2136 -15.2567 36.5714 -15.7031 37.5555C-16.0603 39.1659 -15.1674 40.15 -14.0959 40.9552ZM99.2115 -57.8134C97.8721 -59.0659 96.5327 -60.1394 94.5684 -60.2289C93.4077 -60.2289 92.4255 -59.1553 92.6041 -57.9923C92.9612 -56.1135 94.2113 -54.861 95.7292 -53.7875C97.0685 -52.8928 98.4971 -52.0877 100.461 -53.1612C101.176 -55.2189 100.461 -56.6503 99.2115 -57.8134ZM-61.0618 24.6727C-64.8119 21.0046 -65.9727 21.0046 -69.4549 24.6727C-68.4727 27.5355 -65.9727 28.0723 -63.5619 28.5196C-61.7761 27.625 -60.7939 26.462 -61.0618 24.6727ZM58.3172 284.029C59.5673 285.55 60.9959 286.892 63.1388 287.071C63.4067 287.071 63.5853 286.713 64.121 286.356C62.4245 283.403 62.8709 278.93 57.7815 277.946C55.7278 280.54 56.9779 282.419 58.3172 284.029ZM215.019 166.205C216.358 164.953 216.001 163.611 214.93 162.358C213.947 161.195 212.876 160.211 211.358 160.032C210.108 159.853 208.769 159.674 207.519 161.106C209.662 165.221 210.733 165.937 215.019 166.205ZM56.1743 -0.824646C57.335 0.338394 58.5851 1.41197 60.3708 1.50143C61.2638 1.50143 61.8888 1.05411 62.3352 0.248932C62.7817 -0.556244 62.871 -1.4509 62.3352 -2.07715C60.5495 -4.31375 58.5851 -6.1925 55.1028 -5.56625C54.9243 -2.79286 55.0135 -1.98769 56.1743 -0.824646ZM93.5862 -27.3955C94.5684 -27.485 95.4613 -28.4691 95.2827 -29.3637C94.8363 -31.6898 92.1576 -34.1053 89.8361 -34.2843C88.9432 -34.3737 88.2289 -33.9264 87.7825 -33.2107C87.2468 -32.495 87.1574 -31.6003 87.6039 -30.8846C88.1396 -30.0794 88.8539 -29.3637 89.2111 -29.0059C90.729 -28.0218 91.9791 -27.2166 93.5862 -27.3955ZM-26.507 -105.14C-26.2392 -103.619 -25.1677 -102.545 -23.9177 -101.74C-22.6676 -100.935 -21.3283 -100.219 -19.8997 -101.114C-18.6496 -104.872 -19.8104 -106.392 -24.9891 -108.182C-26.3285 -107.377 -26.7749 -106.392 -26.507 -105.14ZM225.108 137.934C224.216 136.503 222.876 135.519 221.18 135.25C220.287 135.161 219.573 135.429 219.037 136.145C218.501 136.861 218.412 137.755 218.858 138.471C220.108 140.797 221.805 142.318 224.751 142.318C226.091 140.708 225.912 139.276 225.108 137.934ZM-98.1166 96.1546C-99.0095 95.1705 -99.9917 94.3653 -101.42 94.2758C-102.224 94.2758 -103.027 94.5443 -103.474 95.3494C-103.027 98.1228 -102.313 99.2859 -99.9024 100.628C-98.6523 101.344 -97.313 102.238 -95.8844 100.717C-95.5272 98.6596 -96.8665 97.4966 -98.1166 96.1546ZM30.102 65.3789C30.1913 67.1682 31.4413 68.3312 33.0485 68.7785C34.3878 69.1364 35.6379 69.047 36.3522 67.2577C35.6379 64.8421 35.1914 62.1582 32.0663 60.8162C30.1913 62.0687 30.0127 63.7685 30.102 65.3789ZM54.9242 161.732C53.9421 160.39 52.5134 159.585 50.817 159.406C50.0134 159.316 49.2098 159.495 48.674 160.211C47.9597 161.106 47.9597 162.09 48.5847 162.895C50.1026 165.132 51.9777 166.742 55.1028 166.384C55.9064 164.416 55.7278 162.984 54.9242 161.732ZM42.3345 214.516C41.0845 213.442 39.8345 212.279 38.0487 212.458C36.5308 212.637 35.4593 214.426 36.0843 215.768C36.7986 217.379 38.2273 218.273 39.7452 218.989C40.9952 219.615 42.3345 219.526 43.4953 218.363C44.031 216.931 43.4953 215.589 42.3345 214.516ZM75.1035 287.966C76.3535 289.845 77.6035 291.723 78.9429 293.513C79.4786 294.228 80.3716 294.228 80.9966 293.423C81.0858 287.519 80.0144 286.087 75.1035 286.266C75.1035 287.071 74.9249 287.698 75.1035 287.966ZM94.9256 60.7267C93.9434 59.5637 92.7827 58.7585 91.2647 58.6691C90.4612 58.5796 89.6576 58.848 89.0325 59.8321C88.5861 63.3212 91.354 64.5737 94.2113 66.0052C96.1756 63.5896 96.3542 62.3371 94.9256 60.7267ZM-55.6152 149.565C-54.5437 150.28 -53.2937 150.817 -51.9543 150.549C-50.9722 150.37 -50.1685 149.833 -49.8114 148.76C-49.5435 147.865 -49.8114 147.149 -50.3471 146.523C-51.24 145.539 -52.3115 144.734 -53.6508 144.644C-54.9901 144.465 -56.2402 144.823 -57.3116 146.344C-56.6866 148.76 -56.5974 148.939 -55.6152 149.565ZM262.878 -16.2125C262.342 -13.618 264.038 -12.7234 265.378 -11.6498C268.146 -9.50267 269.217 -9.32373 272.164 -10.3078C269.842 -13.618 266.806 -15.2284 262.878 -16.2125ZM-118.207 155.827C-116.599 156.811 -116.064 156.632 -114.099 154.754C-114.278 153.054 -115.439 151.891 -116.778 150.996C-117.849 150.28 -119.01 149.654 -120.349 150.28C-121.064 152.964 -120.528 154.306 -118.207 155.827ZM-0.791901 12.8634C-1.50621 11.7004 -2.48839 10.8952 -3.73843 10.5373C-4.54204 10.2689 -5.34564 10.2689 -6.05995 10.8952C-6.77426 11.5214 -6.95282 12.3266 -6.68495 13.1318C-5.79207 15.8157 -4.00629 17.3366 -0.791901 17.605C-0.16687 14.3843 -0.16687 13.8475 -0.791901 12.8634ZM62.0674 247.707C63.7638 248.96 65.4603 250.212 67.7818 249.138C68.2283 246.902 66.5318 246.186 65.371 245.291C63.7638 244.128 62.1566 242.518 59.6566 243.413C59.2101 245.56 60.728 246.723 62.0674 247.707ZM-61.7761 -128.132C-62.8475 -128.401 -64.0083 -127.685 -64.544 -126.611C-64.9905 -125.627 -64.8119 -124.733 -64.0976 -123.927C-63.294 -123.122 -62.4011 -122.407 -61.1511 -122.407C-59.7225 -122.407 -58.8296 -123.301 -57.7581 -124.733C-58.5617 -126.79 -59.9903 -127.685 -61.7761 -128.132ZM-145.082 131.135C-146.422 130.509 -147.85 129.793 -149.19 131.225C-149.636 133.103 -148.208 133.909 -146.958 134.624C-145.172 135.608 -143.297 136.771 -140.975 135.787C-142.047 133.014 -142.672 132.209 -145.082 131.135ZM-65.6155 42.8339C-64.6333 44.4443 -63.0261 45.2494 -61.4189 45.9651C-60.7939 46.2336 -60.1689 46.1441 -59.5439 45.6967C-58.8296 45.16 -58.651 44.3548 -58.7403 43.4601C-58.8296 42.5655 -59.276 41.9393 -59.9903 41.4025C-61.0618 40.6868 -62.1332 39.8816 -63.919 39.5237C-65.3476 40.3289 -66.062 41.2236 -65.6155 42.8339ZM3.04752 204.406C2.51178 202.528 -0.25618 201.096 -2.04196 201.633C-2.93484 201.901 -3.73843 203.064 -3.55986 203.87C-3.2027 205.748 -1.50621 207.448 0.45813 207.627C1.5296 207.716 2.33321 207.18 3.04752 205.927C2.95822 205.659 3.22609 204.943 3.04752 204.406ZM-42.9362 220.242C-42.3111 222.12 -40.9718 223.104 -39.0075 223.194C-37.4896 221.941 -37.1324 220.42 -37.7574 218.81C-38.2932 217.379 -39.6325 216.573 -41.2397 216.752C-42.7576 217.379 -43.4719 218.542 -42.9362 220.242ZM131.087 235.719C129.837 234.735 128.498 233.661 126.712 233.93C125.552 234.108 124.748 235.629 125.373 236.613C126.266 238.134 127.605 239.029 129.123 239.566C130.284 240.013 131.623 240.46 132.784 239.297C133.409 237.598 132.248 236.613 131.087 235.719ZM12.78 42.4761C12.6907 43.5496 13.3157 44.3548 14.1193 44.8916C14.9229 45.4284 15.7265 45.9651 16.6194 46.323C17.6909 46.7703 18.9409 45.8757 19.1195 44.7127C19.298 43.5496 19.2088 42.3866 18.3159 41.5814C17.423 40.6868 16.3515 39.7921 15.0122 39.7921C13.4943 40.0605 12.8693 41.0446 12.78 42.4761ZM-5.88136 147.06C-4.98848 148.312 -4.0063 149.386 -2.4884 149.654C-1.59552 149.833 -0.88118 149.654 -0.345459 148.939C0.190277 148.223 0.279556 147.328 -0.166885 146.612C-1.41693 144.465 -3.11342 143.213 -5.79208 143.928C-6.68497 145.27 -6.50638 146.165 -5.88136 147.06ZM156.535 229.993C155.374 230.083 154.481 231.425 154.749 232.409C155.195 233.93 156.713 235.271 158.231 235.271C159.838 235.271 160.999 234.466 161.178 232.498C160.196 230.709 158.678 229.814 156.535 229.993ZM99.39 229.188C99.9258 230.798 101.354 231.335 102.872 231.514C104.39 231.693 105.819 231.514 106.355 229.546C105.462 226.951 103.229 226.593 100.819 226.415C99.39 227.22 99.0328 228.204 99.39 229.188ZM-84.9019 186.156C-83.5625 186.782 -82.1339 187.05 -80.8839 185.708C-80.616 183.472 -82.2232 182.577 -83.8304 181.772C-85.259 181.056 -86.6876 181.146 -87.6698 182.667C-87.7591 184.724 -86.4198 185.529 -84.9019 186.156ZM-62.4904 -72.1276C-61.4189 -71.4119 -60.2582 -70.7857 -58.8295 -71.6803C-57.7581 -73.6485 -58.8295 -74.9905 -60.3475 -76.1535C-61.7761 -77.2271 -63.294 -78.2112 -65.1691 -76.3325C-65.0798 -74.0959 -63.8297 -73.0223 -62.4904 -72.1276ZM-93.0271 -23.9959C-94.545 -25.0695 -95.7951 -25.0694 -96.5987 -24.3537C-97.4916 -23.4591 -97.1344 -21.7593 -95.7058 -20.5068C-94.7236 -19.6121 -93.5629 -18.9859 -92.2235 -18.9859C-91.3306 -18.9859 -90.6163 -19.1648 -90.0806 -20.0595C-89.8127 -22.2961 -91.6878 -23.0118 -93.0271 -23.9959ZM241.716 -29.8111C240.645 -30.5268 239.395 -31.2425 238.323 -29.7216C238.055 -27.8428 238.948 -26.5009 240.288 -25.4273C241.18 -24.7116 242.252 -24.1748 243.413 -24.8905C244.038 -27.5744 243.77 -28.3796 241.716 -29.8111ZM109.569 -125.359C110.373 -125.09 111.176 -125.269 111.712 -125.985C112.158 -126.522 112.158 -127.238 111.89 -127.864C111.087 -129.832 109.39 -130.906 107.426 -131.353C106.801 -131.532 106.176 -131.174 105.729 -130.637C105.283 -130.011 105.372 -129.385 105.551 -128.759C105.819 -127.774 106.622 -127.148 107.783 -126.254C108.14 -126.075 108.855 -125.627 109.569 -125.359ZM143.677 -110.329C142.874 -111.581 141.445 -112.029 140.374 -111.224C139.034 -110.239 138.856 -108.54 139.838 -107.377C140.909 -106.214 142.07 -105.587 144.034 -106.035C144.481 -108.719 144.481 -109.076 143.677 -110.329ZM-84.2768 -107.019C-83.2947 -108.092 -83.8304 -109.166 -84.634 -109.971C-86.2412 -111.581 -87.8484 -113.192 -90.4378 -112.297C-90.527 -108.629 -88.8306 -107.287 -84.2768 -107.019ZM-2.30981 179.267C-3.38129 180.788 -3.47057 181.772 -2.66696 182.756C-1.50621 184.187 0.190277 184.814 1.6189 184.277C3.04752 183.74 3.67252 181.861 2.69034 180.698C1.70816 179.535 0.636703 178.641 -1.32765 178.641C-1.77409 178.909 -2.13124 178.998 -2.30981 179.267ZM48.9419 194.386C50.817 195.549 52.1563 194.923 53.2278 192.239C51.8884 190.271 50.3705 188.75 47.424 189.555C46.2632 191.971 47.2454 193.313 48.9419 194.386ZM-77.848 143.034C-78.6516 142.765 -79.4552 143.123 -79.991 143.75C-80.5267 144.465 -80.5267 145.27 -80.0803 145.986C-79.1874 147.418 -77.9373 148.402 -76.2408 148.581C-74.9908 148.67 -74.0979 148.044 -73.8301 146.344C-74.6337 144.555 -76.0623 143.481 -77.848 143.034ZM43.5846 -14.0653C41.3524 -14.6916 39.388 -14.6021 37.4237 -13.7075C37.4237 -11.113 37.5129 -11.113 40.7273 -8.96587C42.4238 -10.4868 43.7632 -11.7393 43.5846 -14.0653ZM105.997 -7.44499C106.89 -6.37141 107.872 -5.6557 109.301 -5.9241C110.372 -6.10303 111.087 -7.62392 110.462 -8.60802C109.301 -10.5762 107.694 -11.7393 105.372 -11.3814C103.944 -9.77106 105.015 -8.60803 105.997 -7.44499ZM86.4432 158.69C88.0504 160.211 89.479 162.448 92.5148 161.285C93.0505 157.885 92.9612 157.795 88.5861 155.738C87.0682 156.096 86.2646 156.811 86.4432 158.69ZM20.3695 115.747C19.3873 114.853 18.4052 114.047 16.9765 114.047C16.3515 114.047 15.7265 114.226 15.2801 114.853C14.7443 115.658 14.8336 116.463 15.4586 117.089C16.5301 118.342 17.7801 119.326 19.3873 119.773C20.0123 119.952 20.6374 119.684 21.3517 119.057C21.7981 117.537 21.2624 116.552 20.3695 115.747ZM203.054 -48.5985C204.483 -48.7775 205.376 -49.7616 205.197 -51.3719C202.161 -54.2348 202.161 -54.2348 198.947 -51.6403C199.661 -49.4037 201.001 -48.3302 203.054 -48.5985ZM-173.119 86.9398C-172.137 87.3871 -171.244 87.2082 -170.44 86.403C-169.815 85.7767 -169.458 85.1505 -169.637 84.2559C-169.905 83.1823 -170.619 82.6455 -171.69 82.3771C-173.03 82.1087 -174.28 82.4666 -175.441 83.898C-175.262 85.5084 -174.369 86.403 -173.119 86.9398ZM93.0505 262.916C93.5863 261.753 93.1398 260.411 91.8897 259.606C90.6397 258.801 89.2111 259.069 88.4075 260.053C87.6039 261.127 87.9611 262.469 89.3004 263.363C90.729 264.437 92.3362 264.258 93.0505 262.916ZM34.5664 85.3294C32.8699 84.3453 31.2627 84.5243 30.727 85.6873C30.1913 86.7609 30.727 87.9239 32.1556 88.908C33.6735 89.9815 35.2807 90.6973 36.9772 89.2659C36.3522 86.6714 36.1736 86.3135 34.5664 85.3294ZM-117.046 137.398C-115.974 138.561 -114.546 139.097 -113.653 138.65C-112.671 138.113 -112.313 137.219 -112.403 136.235C-112.492 134.803 -113.385 133.819 -114.724 133.461C-115.796 133.103 -116.599 133.551 -117.314 134.356C-118.028 135.25 -117.939 136.414 -117.046 137.398ZM-48.8292 29.8616C-48.2042 29.951 -47.5792 29.5932 -47.222 28.967C-46.8649 28.3407 -46.7756 27.7144 -47.1328 27.0882C-47.9363 25.8357 -49.1864 24.8516 -50.7043 24.6727C-51.9543 24.4937 -52.9365 24.9411 -53.2044 26.6409C-52.4901 28.5196 -50.8829 29.5932 -48.8292 29.8616ZM-38.2932 -38.7575C-39.8111 -37.4155 -39.6325 -35.9841 -38.561 -34.4632C-37.8467 -33.4791 -36.9538 -32.7634 -35.6145 -33.2107C-34.6323 -33.8369 -33.918 -34.7316 -34.0966 -36.4314C-35.9716 -38.3102 -35.9716 -38.2207 -38.2932 -38.7575ZM9.11914 -122.764C9.65488 -123.749 9.11914 -125.001 7.7798 -126.075C6.17261 -127.327 4.65469 -127.506 3.8511 -126.701C2.86893 -125.717 3.49394 -123.838 5.27971 -122.675C6.79762 -121.601 8.49413 -121.691 9.11914 -122.764ZM-145.886 -91.0046C-147.136 -91.8098 -148.654 -91.5414 -149.279 -90.3783C-149.815 -89.4837 -149.458 -88.1417 -148.475 -87.3366C-147.315 -86.4419 -145.797 -86.5314 -145.082 -87.605C-144.368 -88.768 -144.725 -90.2889 -145.886 -91.0046ZM-28.025 109.037C-29.3643 108.68 -30.525 108.948 -30.8822 110.558C-29.0964 112.795 -28.5607 113.242 -27.3999 113.69C-26.2392 114.137 -25.6142 113.779 -24.5427 111.99C-25.1677 110.379 -26.3285 109.395 -28.025 109.037ZM-145.172 93.0233C-145.797 91.8603 -146.779 91.0551 -148.297 91.5919C-149.725 94.9915 -149.458 95.4389 -146.154 96.7809C-144.636 95.7968 -144.368 94.4548 -145.172 93.0233ZM-30.8822 -127.417C-29.8107 -126.611 -28.7393 -125.806 -27.3999 -126.88C-26.507 -128.58 -27.6678 -129.653 -28.65 -130.637C-29.7214 -131.621 -30.8822 -132.516 -32.668 -131.442C-33.1144 -129.653 -32.2215 -128.401 -30.8822 -127.417ZM-14.5424 -70.1594C-15.7924 -70.9646 -17.221 -71.5014 -18.2925 -69.8016C-17.3103 -66.223 -16.5067 -65.6862 -12.9352 -66.1335C-11.953 -68.0123 -13.1138 -69.1753 -14.5424 -70.1594ZM184.214 0.0699921C185.643 1.14355 186.982 2.93286 189.125 1.94875C189.572 1.14357 189.661 0.427872 189.214 -0.108917C187.786 -1.89819 186.089 -3.32964 183.321 -3.68748C183.053 -0.914093 183.053 -0.735184 184.214 0.0699921ZM-10.6137 184.366C-11.7744 185.977 -11.7744 185.977 -11.5958 186.335C-10.7922 188.392 -9.45291 189.466 -6.77426 189.376C-6.23853 186.066 -6.59567 185.708 -10.6137 184.366ZM34.3878 -23.1012C34.4771 -26.7693 33.3164 -27.7534 29.2091 -27.2166C29.5663 -23.3696 31.0842 -22.2066 34.3878 -23.1012ZM156.892 83.7191C157.696 84.7032 158.767 85.5083 160.106 85.5083C161.267 85.5083 162.071 84.1664 161.535 83.0928C160.463 81.0351 158.856 80.051 156.624 80.5878C155.731 81.8403 156.088 82.8244 156.892 83.7191ZM-22.4891 -150.856C-21.5069 -150.498 -20.614 -150.677 -19.8997 -151.572C-19.2747 -152.377 -18.9175 -153.272 -19.4532 -154.256C-19.8997 -155.061 -20.7033 -155.24 -21.5069 -155.24C-22.6676 -155.15 -23.7391 -154.972 -24.4534 -153.898C-24.632 -152.198 -23.7391 -151.393 -22.4891 -150.856ZM10.1013 -19.7016C8.5834 -19.0753 8.04765 -18.1807 8.40482 -16.8387C8.76196 -15.5862 9.74416 -14.96 10.8156 -14.6021C11.7978 -14.2443 12.78 -14.2443 13.8514 -15.4968C13.7622 -18.2702 12.155 -19.2543 10.1013 -19.7016ZM-29.9 158.332C-30.525 157.348 -31.3286 156.543 -32.5787 156.275C-33.2037 156.185 -33.8287 156.185 -34.4537 157.08C-34.543 159.764 -33.0251 161.285 -30.3465 161.732C-28.7393 160.748 -29.0964 159.585 -29.9 158.332ZM25.1018 -190.668C25.7268 -190.578 26.4411 -190.847 26.709 -191.473C27.0662 -192.099 27.0662 -192.725 26.6197 -193.262C25.3697 -194.873 24.3875 -194.962 21.9767 -193.62C22.3339 -191.473 23.5839 -190.847 25.1018 -190.668ZM-141.422 64.8421C-142.136 67.4366 -141.779 68.5996 -139.993 69.3153C-138.832 69.7627 -138.029 68.9575 -137.404 66.6314C-138.296 65.2 -139.547 64.3053 -141.422 64.8421ZM39.1202 61.8003C40.2809 62.516 41.5309 63.1423 42.5131 61.532C41.3524 58.2218 40.9059 57.8639 37.2451 57.8639C36.3522 59.9216 37.7808 60.9057 39.1202 61.8003ZM14.1193 19.2153C14.4765 18.947 14.655 18.4102 14.655 17.9628C14.655 16.7998 13.5836 15.7262 12.155 15.4579C11.5299 15.3684 10.9049 15.4579 10.2799 15.6368C9.4763 15.8157 9.02985 16.8893 9.38701 17.605C9.65488 18.1418 10.1013 18.6786 10.1906 18.947C11.7978 19.8416 13.1371 20.0205 14.1193 19.2153ZM-11.0601 243.144C-11.953 242.697 -12.9352 242.518 -13.7388 243.771C-13.1137 246.186 -11.5066 247.349 -8.56004 247.349C-8.29218 244.755 -9.54221 243.86 -11.0601 243.144ZM-175.262 -36.4314C-175.887 -39.7416 -176.244 -40.0994 -180.084 -40.8151C-178.655 -36.6998 -178.298 -36.4314 -175.262 -36.4314ZM125.373 124.604C124.569 124.246 123.766 124.246 123.051 124.694C122.248 125.141 121.891 125.857 122.159 126.93C123.141 128.272 124.391 129.346 126.355 129.435C127.516 127.02 127.248 125.409 125.373 124.604ZM-11.5065 101.075C-10.3458 101.165 -9.27432 99.9121 -9.54219 98.8385C-9.89934 97.4071 -11.4173 96.244 -12.7566 96.5124C-14.0959 96.6913 -14.6317 97.6755 -14.5424 99.0175C-14.0066 100.359 -12.9352 100.986 -11.5065 101.075ZM44.7453 244.039C44.3882 243.234 43.7632 242.786 42.8703 242.786C42.0667 242.697 41.2631 242.965 40.9059 243.771C40.5488 244.576 40.8166 245.381 41.3524 246.007C41.9774 246.723 42.781 247.26 44.1203 246.812C45.0132 245.918 45.1918 244.934 44.7453 244.039ZM206.894 118.342C206.269 119.952 207.251 120.757 208.412 121.473C209.662 122.278 210.912 122.994 212.608 121.473C210.287 117.984 209.751 117.715 206.894 118.342ZM184.75 160.211C185.821 160.569 186.982 160.748 187.607 159.316C185.732 156.096 185.286 155.827 181.714 156.453C181.893 158.869 183.143 159.674 184.75 160.211ZM-132.403 34.961C-131.957 33.3507 -133.118 32.5455 -134.189 31.8298C-135.171 31.2036 -136.154 30.5773 -137.314 31.5614C-136.421 34.7821 -135.529 35.4084 -132.403 34.961ZM-82.4018 -16.7493C-83.2054 -17.0177 -84.009 -16.8387 -84.5447 -15.9441C-84.634 -14.1548 -83.384 -13.4391 -81.9553 -12.9023C-81.1517 -12.6339 -80.3481 -12.8128 -79.8124 -13.618C-79.7231 -15.4968 -80.9732 -16.302 -82.4018 -16.7493ZM-55.4366 -92.8833C-54.5437 -92.2571 -53.2937 -92.2571 -52.8472 -92.9728C-52.2222 -93.8675 -52.2222 -94.7621 -52.8472 -95.6567C-53.5615 -96.8198 -54.3651 -96.9092 -56.7759 -96.1041C-57.0438 -94.4937 -56.4187 -93.5991 -55.4366 -92.8833ZM64.746 201.543C63.6745 201.186 62.8709 201.543 62.5138 202.975C63.4067 205.033 64.746 206.285 67.6032 205.39C67.6925 202.885 66.3532 202.08 64.746 201.543ZM-87.1341 -83.6685C-88.027 -84.2053 -88.9199 -84.4737 -89.902 -83.6685C-90.3485 -82.5055 -89.8127 -81.7003 -89.0091 -81.0741C-88.027 -80.2689 -87.0448 -79.2848 -85.259 -80.1794C-84.9911 -82.0582 -85.9733 -82.9528 -87.1341 -83.6685ZM196.983 -21.4909C196.268 -24.801 196.179 -24.98 192.25 -25.0694C193.857 -21.3119 194.393 -20.9541 196.983 -21.4909ZM109.122 -81.0741C110.194 -79.6426 111.444 -78.4796 113.408 -78.9269C113.408 -81.7898 113.408 -81.7898 109.837 -83.3107C108.855 -82.5949 108.587 -81.7898 109.122 -81.0741ZM106.712 268.105C109.033 271.057 109.48 271.147 111.176 269.357C109.033 266.405 108.587 266.316 106.712 268.105ZM115.819 50.3489C115.641 52.3171 116.801 53.3012 118.409 53.838C119.391 54.1064 120.373 53.9275 120.641 52.2276C118.051 49.5437 118.051 49.5437 115.819 50.3489ZM-76.8659 91.8603C-77.3123 91.7709 -77.848 91.8603 -78.2052 92.0392C-78.8302 92.3971 -78.9195 93.0233 -78.8302 93.7391C-78.6516 94.8127 -77.9373 95.4389 -76.9552 95.7967C-75.973 96.1546 -75.0801 96.244 -74.4551 95.1705C-75.348 92.576 -75.5265 92.3076 -76.8659 91.8603ZM-199.37 21.7204C-198.388 22.5255 -196.959 22.3466 -196.513 21.3625C-196.156 20.4679 -196.513 19.8416 -197.227 19.3048C-198.12 18.6786 -199.191 18.8575 -199.727 19.6627C-200.174 20.4679 -200.084 21.1836 -199.37 21.7204ZM181.803 176.404C182.696 176.583 183.411 176.225 183.5 174.883C182.428 173.452 181.089 172.468 179.036 173.452C179.928 175.957 179.928 176.046 181.803 176.404ZM-85.5269 -136.274C-85.0804 -138.331 -86.4198 -138.957 -87.7591 -139.405C-88.652 -139.673 -89.277 -139.226 -89.5449 -138.063C-88.652 -136.542 -87.5805 -135.558 -85.5269 -136.274ZM-77.848 178.104C-77.4016 180.072 -76.3301 180.967 -73.8301 180.967C-74.4551 177.567 -75.1694 177.12 -77.848 178.104ZM-77.9373 112.616C-78.1159 109.843 -78.3838 109.574 -82.0446 109.485C-81.3303 111.99 -80.0803 112.795 -77.9373 112.616ZM-0.613342 242.339C0.190262 242.876 1.08315 243.144 1.97603 242.339C1.44031 239.655 1.44031 239.655 -1.77409 239.208C-2.39911 240.818 -1.59552 241.713 -0.613342 242.339ZM59.2101 -168.212C58.7637 -168.57 58.1386 -168.838 57.5136 -168.928C56.7993 -169.017 56.2636 -168.481 56.2636 -167.765C56.1743 -166.691 56.8886 -166.155 58.8529 -165.618C58.9422 -165.618 59.1208 -165.707 59.5673 -165.886C60.0137 -166.87 59.8351 -167.675 59.2101 -168.212ZM-41.8647 -135.289C-40.8825 -134.395 -39.9003 -133.59 -38.4717 -135.021C-39.0075 -136.81 -39.9896 -137.705 -41.8647 -137.794C-42.9362 -136.9 -42.579 -136.005 -41.8647 -135.289ZM252.967 88.5501C251.806 91.0551 252.252 91.5919 255.467 91.8603C255.735 89.8921 254.842 88.908 252.967 88.5501ZM-76.4194 -44.841C-75.6158 -46.6303 -76.7766 -47.346 -77.848 -48.0618C-78.6516 -48.5985 -79.5445 -49.0459 -80.4374 -47.7039C-79.7231 -45.9146 -78.6516 -44.6621 -76.4194 -44.841ZM37.3344 -156.761C38.763 -154.166 38.763 -154.166 41.3524 -155.24C39.4773 -158.103 39.4773 -158.103 37.3344 -156.761ZM152.428 161.464C151.535 161.106 150.91 161.464 150.552 162.537C150.999 164.237 152.16 165.132 154.481 165.042C155.017 162.805 153.856 162 152.428 161.464ZM43.7632 29.8616C45.0132 30.0405 45.6382 29.5932 45.4596 28.2512C44.4775 26.9987 43.3167 26.283 41.4417 27.625C42.0667 28.9669 42.6917 29.6827 43.7632 29.8616ZM-121.153 86.1346C-121.689 84.3453 -122.76 83.5401 -124.725 83.898C-123.832 86.6714 -123.832 86.6714 -121.153 86.1346ZM117.962 -70.9646C119.212 -68.9964 119.212 -68.9964 121.355 -69.4437C120.641 -72.2171 119.837 -72.4855 117.962 -70.9646ZM108.319 78.6196C107.605 78.1722 106.89 77.9933 106.176 78.9775C106.622 80.3194 107.337 81.393 109.301 81.2141C109.837 79.7827 109.212 79.0669 108.319 78.6196ZM140.552 -95.2989C139.749 -95.8356 138.856 -96.283 137.963 -94.941C138.677 -93.5991 139.57 -92.436 141.624 -92.6149C142.338 -93.8674 141.445 -94.6726 140.552 -95.2989ZM174.839 34.5137C175.91 34.0664 176.178 33.2612 175.464 32.1877C174.303 31.472 173.321 31.7404 172.25 32.9929C172.607 34.6032 173.589 34.961 174.839 34.5137ZM241.984 7.49554C242.52 7.85339 243.323 7.76395 243.591 7.1377C244.127 5.97466 243.413 5.43785 242.341 5.16946C242.163 5.16946 242.073 5.16946 241.895 5.16946C240.913 6.0641 241.091 6.86929 241.984 7.49554ZM-111.688 -48.688C-112.492 -48.9564 -113.296 -48.7775 -113.206 -47.6144C-112.671 -46.5409 -111.867 -45.9146 -110.26 -46.183C-109.635 -47.7934 -110.528 -48.3302 -111.688 -48.688ZM234.662 69.1364C234.484 67.7944 233.77 67.2576 232.073 67.4366C232.787 69.6732 232.787 69.6732 234.662 69.1364ZM24.2982 145.628C24.7447 147.328 25.8161 148.044 27.5126 147.954C27.6912 145.36 26.709 144.644 24.2982 145.628ZM-7.93498 226.951C-6.86353 228.383 -6.86354 228.383 -4.63133 228.83C-6.23853 226.415 -6.23849 226.415 -7.93498 226.951ZM-149.19 -17.1071C-149.725 -17.1966 -150.083 -16.8387 -150.35 -16.123C-149.904 -15.4073 -149.368 -14.6916 -148.297 -14.5127C-147.761 -14.4232 -147.404 -14.7811 -147.225 -15.3178C-147.315 -16.4809 -148.208 -16.9282 -149.19 -17.1071ZM71.6212 -63.718C71.4427 -65.4178 70.6391 -66.223 68.4068 -66.223C69.1212 -63.0023 69.1212 -63.0023 71.6212 -63.718ZM162.606 -106.124C162.071 -106.482 161.446 -106.75 160.91 -106.035C161.089 -104.782 161.803 -104.424 163.231 -104.693C163.321 -105.498 162.964 -105.945 162.606 -106.124ZM79.5679 -56.5609C79.1215 -55.6662 79.1215 -54.9505 80.0144 -54.5032C81.0858 -53.9664 81.8894 -54.3242 82.2466 -55.4873C81.8894 -57.0082 80.9966 -57.4555 79.5679 -56.5609ZM72.6034 -158.729C73.0499 -158.371 73.4963 -158.461 73.8535 -158.818C74.3892 -159.355 74.2999 -160.071 73.7642 -160.518C73.407 -160.876 72.8713 -160.787 72.4248 -160.429C72.0677 -159.982 72.157 -159.087 72.6034 -158.729ZM-101.956 -21.133C-102.402 -22.3855 -103.206 -22.9223 -104.545 -22.7434C-104.278 -20.4173 -103.92 -20.1489 -101.956 -21.133ZM77.6035 -149.425C77.5143 -149.425 77.3357 -149.156 77.3357 -149.067C77.425 -147.993 78.05 -147.635 80.0144 -147.993C78.9429 -148.977 78.675 -149.783 77.6035 -149.425ZM-66.8655 -148.709C-66.2405 -147.546 -65.7941 -146.741 -64.3654 -147.009C-64.7226 -148.709 -64.7226 -148.709 -66.8655 -148.709ZM47.8705 107.517C48.3169 108.948 49.1205 109.485 50.5491 108.769C49.4776 106.532 49.4776 106.532 47.8705 107.517ZM-110.885 -93.6885C-110.26 -93.3307 -109.635 -93.4201 -109.367 -94.2253C-109.546 -95.2094 -110.171 -95.5673 -111.331 -95.4778C-111.867 -94.4937 -111.51 -93.9569 -110.885 -93.6885ZM276.36 5.07999C276.092 4.99052 275.735 5.25893 275.557 5.43785C275.289 5.88518 275.467 6.42197 276.003 6.51143C276.271 6.60089 276.539 6.33252 276.807 6.15358C276.985 5.61681 276.807 5.16945 276.36 5.07999ZM29.2091 -176.622C29.3877 -176.622 29.7448 -177.069 29.6555 -177.248C29.477 -178.232 28.8519 -178.501 27.6019 -178.143C27.6912 -176.801 28.3162 -176.443 29.2091 -176.622ZM46.8883 -6.55035C47.0668 -6.46089 47.424 -6.63979 47.6026 -6.72926C47.5133 -6.99765 47.424 -7.35553 47.2454 -7.44499C47.0668 -7.53445 46.7097 -7.35551 46.4418 -7.26605C46.6204 -6.99765 46.7097 -6.63982 46.8883 -6.55035ZM90.3719 -95.6567C90.6397 -95.6567 90.9969 -95.9251 91.0862 -96.1935C91.2647 -96.7303 90.9076 -97.1776 90.2826 -97.1776C90.0147 -97.1776 89.7469 -96.8198 89.5683 -96.7303C89.5683 -96.104 89.8361 -95.7462 90.3719 -95.6567ZM-112.224 179.983C-112.492 179.267 -112.939 178.998 -113.921 178.998C-113.474 179.983 -113.117 180.519 -112.224 179.983ZM-174.28 21.8993C-174.458 21.8993 -174.905 22.0782 -174.994 22.2571C-175.173 22.7045 -174.905 23.1518 -174.369 23.2412C-174.191 23.2412 -173.923 22.9728 -173.655 22.8834C-173.476 22.3466 -173.744 21.9888 -174.28 21.8993ZM-74.0086 -211.96C-74.0979 -212.05 -74.3658 -211.96 -74.4551 -211.96C-74.4551 -211.692 -74.4551 -211.423 -74.4551 -211.155C-74.1872 -211.155 -73.9193 -211.245 -73.6515 -211.245C-73.7408 -211.513 -73.83 -211.781 -74.0086 -211.96ZM-0.0776062 26.5514C-0.166901 26.283 -0.25618 25.8357 -0.434753 25.6568C-0.791916 25.3884 -1.23834 25.2989 -2.13124 25.0305C-1.77408 26.9987 -1.23836 27.446 -0.0776062 26.5514ZM87.3361 125.857C87.5146 125.946 87.9611 125.857 88.1396 125.678C88.5861 125.23 88.2289 124.336 87.6039 124.336C87.336 124.336 87.0682 124.604 86.8896 124.694C86.8003 125.141 86.8896 125.678 87.3361 125.857ZM-84.3661 -26.7693C-84.8126 -27.5745 -84.9911 -28.3796 -86.5091 -27.6639C-85.884 -27.1271 -85.6162 -26.322 -84.3661 -26.7693ZM-159.369 32.2771C-159.547 32.0982 -160.083 32.0087 -160.172 32.0982C-160.708 32.5455 -160.351 32.9034 -159.994 33.1718C-159.815 33.2612 -159.458 33.0823 -159.19 32.9929C-159.279 32.8139 -159.19 32.3666 -159.369 32.2771ZM-56.8652 -19.4332C-57.0438 -20.0594 -57.3116 -20.5067 -58.1152 -20.1489C-57.9367 -19.5226 -57.6688 -19.0753 -56.8652 -19.4332ZM-52.9365 223.104H-53.2044L-53.0258 223.373L-52.9365 223.104ZM85.6396 -72.2171C85.5503 -72.3066 85.3717 -72.3066 85.2824 -72.2171C85.0145 -71.9487 85.0145 -71.6803 85.2824 -71.5908C85.3717 -71.5908 85.5503 -71.6803 85.6396 -71.7698C85.7289 -72.0382 85.7289 -72.1276 85.6396 -72.2171ZM167.071 160.3L166.714 160.211L166.803 160.479L167.071 160.3ZM50.192 -143.252C47.8705 -140.12 47.2454 -138.421 47.2454 -133.947C51.0848 -129.922 55.2814 -126.701 61.978 -128.759C61.7102 -137.705 57.5136 -142.804 50.192 -143.252Z" fill="#4E7D64"/>
</svg>
