<svg width="240" height="283" viewBox="0 0 240 283" fill="none" xmlns="http://www.w3.org/2000/svg">
<path d="M245.906 207.703C244.299 203.588 244.12 199.204 244.031 194.999C244.745 194.015 245.638 193.836 246.353 194.284C250.371 196.789 254.656 198.936 258.406 201.977C258.942 202.425 259.389 202.872 259.835 203.319C261.264 205.109 261.353 206.719 260.192 208.777C259.657 209.582 259.121 210.387 258.496 211.192C257.871 211.997 257.246 212.713 256.799 213.339C255.103 214.055 253.317 213.876 251.888 214.86C250.549 215.755 251.531 217.813 249.656 218.886C247.513 218.797 245.995 217.097 244.21 215.576C243.763 212.803 243.406 210.029 245.906 207.703ZM94.026 196.252C92.776 195.447 91.6152 194.552 90.3652 193.747C86.3472 191.331 84.74 191.779 82.4185 195.804C82.1506 196.341 82.1506 197.057 81.972 197.594C83.1328 199.741 85.0079 200.725 86.7936 201.888C88.6687 203.141 90.7223 204.125 92.6867 205.288C93.1331 206.451 92.4188 207.703 93.1331 208.687C97.8654 213.25 98.7583 213.608 106.973 215.308C108.134 215.487 109.205 215.934 110.098 214.771C109.741 210.119 107.241 207.256 98.4012 201.709C97.9547 199.204 96.1689 197.594 94.026 196.252ZM175.189 330.806C173.493 329.822 171.886 328.659 170.011 327.943C166.171 326.512 162.153 329.553 162.421 333.669C162.6 336.711 163.582 339.484 166.35 341.273C167.6 342.078 168.761 342.973 170.011 343.778C172.779 345.657 175.725 345.299 178.493 344.136C181.172 343.063 182.154 340.2 181.261 337.516C180.725 335.905 179.922 334.474 178.582 333.49C177.422 332.595 176.172 331.79 174.922 330.895C175.1 330.985 175.1 330.895 175.189 330.806ZM401.447 104.372C400.643 107.682 401.804 110.187 404.394 112.155C405.197 112.782 406.001 113.318 406.804 113.855C411.537 117.344 413.59 118.149 418.144 112.155C418.323 111.887 418.323 111.529 418.501 110.992C417.876 108.845 417.43 106.519 417.965 104.372C415.644 100.436 412.519 99.9883 409.215 101.062C407.072 100.257 405.644 98.4673 403.054 99.0936C401.893 100.793 401.893 102.672 401.447 104.372ZM328.409 308.887C328.409 312.018 330.016 313.987 332.605 315.597C335.641 317.476 339.034 318.818 341.891 321.054C343.052 321.949 344.659 322.128 345.999 321.054C346.624 318.46 346.624 318.46 345.106 315.597C345.017 315.329 345.017 314.971 345.017 314.702C345.552 313.897 346.534 313.36 346.088 311.392C343.231 307.903 339.123 305.13 334.213 303.519C332.605 302.983 331.177 303.609 330.373 304.951C329.57 306.203 329.123 307.635 328.498 308.977L328.409 308.887ZM291.443 204.751C291.354 203.14 290.55 202.335 289.658 201.62C288.229 200.546 286.8 199.472 285.282 198.488C281.889 196.252 279.121 196.252 275.729 198.488C273.05 200.278 271.711 204.93 274.836 207.256C277.961 209.582 280.907 212.266 285.282 214.055C287.604 210.745 290.104 207.972 291.443 204.751ZM264.478 299.493C266.264 300.299 268.139 300.299 269.478 298.688C271.264 296.631 273.05 294.484 273.764 291.8C270.193 286.342 265.103 283.927 259.567 285.09C258.139 287.505 257.067 290.189 256.621 293.678C258.853 296.362 261.442 298.152 264.478 299.493ZM147.153 193.478C144.653 189.274 141.26 186.053 136.885 183.906C135.456 183.19 134.027 183.19 132.867 184.621C132.152 186.142 132.331 187.842 132.242 189.452C132.152 191.421 132.777 193.031 134.027 194.373C136.974 197.504 140.367 199.92 143.938 201.53C145.635 201.172 146.528 200.457 147.689 199.472C147.421 197.325 148.314 195.357 147.153 193.478ZM356.535 45.9518C356.803 44.5204 356.445 43.2679 355.463 42.2838C353.053 40.0472 350.642 37.8106 347.338 37.1843C345.642 37.8106 344.481 38.9736 343.32 40.1367C342.249 41.2997 341.891 42.6417 342.07 44.252C342.427 46.6676 343.766 48.5463 345.82 49.7988C348.409 51.4091 350.552 54.0036 354.392 52.93C355.82 50.5145 356.088 48.1884 356.535 45.9518ZM316.891 21.6176C313.498 23.4963 311.087 26.1802 309.569 29.5799C315.462 36.5581 318.676 37.0054 326.177 34.3215C326.266 27.5222 322.873 23.7647 316.891 21.6176ZM403.054 141.231C403.59 143.647 404.483 145.973 406.536 147.583C408.233 148.836 409.929 150.088 411.804 151.251C413.858 152.504 416.001 152.862 418.412 151.788C419.751 148.12 416.626 145.973 415.555 143.289C413.947 139.352 410.376 137.653 406.536 135.953C404.036 137.205 402.608 138.816 403.054 141.231ZM110.366 142.931C113.044 144.81 115.723 146.689 118.402 148.567C118.938 148.925 119.563 149.194 120.188 149.373C122.152 149.999 124.563 149.104 125.723 147.225C126.616 145.704 126.438 143.826 124.831 142.394C121.527 139.531 118.134 136.579 113.223 135.863C111.527 137.116 109.294 137.832 108.848 140.247C108.937 141.679 109.562 142.394 110.366 142.931ZM342.874 254.94C344.481 255.388 345.999 254.135 345.731 252.525C345.106 249.125 344.302 245.725 340.999 243.757C339.749 243.042 338.588 242.057 337.338 241.252C334.391 239.552 332.605 239.91 330.462 242.505C328.945 244.294 329.034 246.173 330.73 247.694C331.802 248.678 333.141 249.394 334.302 250.288C336.891 252.256 339.659 253.956 342.874 254.94ZM345.463 235.079C344.838 234.9 344.124 234.9 343.499 234.9C341.802 235.079 340.284 235.527 339.481 237.316C338.677 239.284 339.123 240.984 340.641 242.236C342.606 243.936 344.838 245.457 346.981 246.978C348.052 247.694 349.213 248.499 350.999 248.141C353.053 246.888 354.481 244.831 355.374 241.789C352.785 238.568 349.481 236.421 345.463 235.079ZM232.691 362.387C230.37 359.435 227.423 357.466 224.12 356.124C222.334 355.409 220.816 355.945 220.012 357.645C219.03 359.524 218.405 361.582 218.941 364.176C222.066 366.95 225.191 369.991 230.102 369.812C231.888 367.576 232.691 365.16 232.691 362.387ZM328.409 308.977C325.105 303.967 320.105 301.283 314.658 299.404C313.587 299.046 312.426 299.136 311.355 300.299C310.64 302.177 310.64 304.235 311.355 306.651C313.23 308.619 315.73 310.14 318.141 311.75C319.659 312.734 321.176 312.734 322.784 311.929C324.659 310.945 326.534 309.961 328.409 308.977ZM353.856 102.046C354.124 100.614 353.499 99.8093 352.695 99.2725C350.91 97.9306 348.945 96.5886 347.159 95.2466C345.017 93.6363 342.695 93.5468 340.195 94.4414C336.713 95.6939 335.82 99.2725 338.588 101.688C340.552 103.388 342.516 105.088 345.374 105.803C348.052 104.104 351.445 104.014 353.856 102.046ZM441.716 121.728C445.198 125.754 449.752 127.722 454.931 128.259C457.163 128.438 458.413 126.291 457.342 124.233C455.556 120.654 450.824 116.986 446.27 115.913C444.306 116.897 442.609 118.328 441.27 120.476C441.538 121.102 441.538 121.46 441.716 121.728ZM404.394 158.14C402.697 155.277 402.697 155.277 399.572 153.13C394.929 149.909 394.036 149.999 389.929 154.025C389.75 154.204 389.661 154.651 389.482 154.919C389.393 156.798 389.839 158.587 391.268 159.75C393.411 161.54 395.465 163.418 398.411 164.134C401.268 162.882 403.233 160.824 404.394 158.14ZM118.402 320.786C120.634 324.275 123.581 327.138 127.331 329.017C128.849 329.822 130.188 329.464 131.349 328.301C133.313 326.243 133.313 324.275 131.17 322.396C128.045 319.712 124.741 317.386 121.17 315.418C120.277 314.971 119.384 314.702 117.866 315.239C116.884 317.118 117.42 319.086 118.402 320.786ZM151.885 303.698C148.849 301.641 146.349 298.42 142.153 298.957C140.545 302.177 140.545 302.177 140.456 305.488C144.474 310.319 149.653 312.376 156.35 311.392C155.725 307.277 155.189 305.935 151.885 303.698ZM294.211 369.723C294.122 371.512 295.104 372.496 296.176 373.212C298.408 374.733 300.372 376.97 303.14 377.148C305.283 376.612 306.355 375.091 307.515 373.749C308.587 372.407 308.587 370.975 307.337 369.723C305.283 367.576 303.051 365.697 300.015 364.981C297.694 366.234 295.461 367.665 294.211 369.723ZM26.5238 102.314C27.3274 102.851 28.131 103.477 28.9346 104.014C29.381 104.283 29.7382 104.551 30.1846 104.73C30.8096 104.998 31.3454 105.356 31.9704 105.446C33.5776 105.893 35.5419 104.909 36.5241 103.209C37.3277 101.867 37.1491 100.346 35.8098 99.1831C32.5954 96.2307 29.0238 93.9941 24.4701 94.0836C23.2201 94.0836 22.1486 94.4415 21.7022 95.694C21.1664 96.857 21.4343 98.02 22.3272 98.9146C23.5772 100.167 25.0058 101.33 26.3452 102.493C26.5238 102.404 26.5238 102.314 26.5238 102.314ZM206.351 145.794C204.923 147.494 204.923 148.388 205.905 149.551C207.423 151.341 209.566 151.609 211.619 151.699C213.048 154.382 215.012 156.351 218.227 155.993C220.905 155.724 223.673 155.188 225.727 152.772C223.584 149.551 220.816 147.494 217.244 146.599C215.994 147.673 214.834 148.567 213.673 149.551C210.637 148.478 209.119 145.973 206.351 145.794ZM100.276 196.162C99.1155 198.13 99.3833 199.472 101.169 200.904C102.419 201.977 103.937 202.604 105.544 202.962C108.759 203.677 112.062 203.856 115.098 205.288C115.991 205.735 117.062 205.645 117.777 204.304C116.437 200.725 112.955 199.294 110.098 197.236C107.866 195.626 105.901 193.478 102.241 193.836C101.526 194.641 100.812 195.357 100.276 196.162ZM464.842 140.516C464.931 140.963 465.021 141.5 465.288 141.857C468.503 146.062 473.057 147.136 477.967 147.225C479.396 147.225 480.289 146.062 480.735 144.81C481.271 143.468 481.003 142.215 479.842 141.231C478.503 140.068 477.075 138.905 474.842 138.547C472.074 140.694 468.592 139.531 465.11 139.531C464.931 140.247 464.842 140.426 464.842 140.516ZM91.1688 11.5976C91.7938 11.0608 92.3295 10.4345 92.776 9.71881C93.6689 8.46632 93.5796 7.12435 92.5081 6.14024C90.5438 4.44043 88.6687 2.56167 85.7222 2.47221C83.7578 3.45631 81.8828 4.35097 80.8113 6.67703C82.2399 10.1661 85.365 11.5081 88.8473 13.1184C89.9187 12.4922 90.633 12.0449 91.1688 11.5976ZM5.71949 165.029C5.63021 166.013 5.98736 166.997 6.79096 167.713C8.8446 169.591 10.8089 171.56 13.3983 172.096C15.2734 171.649 15.8984 170.576 16.5234 169.412C17.327 167.892 17.1484 166.46 15.9877 165.297C13.7555 163.061 11.434 161.003 8.13029 160.556C6.07665 161.719 5.80878 163.418 5.71949 165.029ZM95.3653 -21.0569C92.9545 -23.1146 90.5438 -25.5301 86.9722 -25.1722C85.4543 -23.9197 84.9186 -22.3989 85.365 -20.4306C88.758 -16.5837 92.776 -13.9892 98.5797 -15.1523C98.669 -18.0151 97.0618 -19.6255 95.3653 -21.0569ZM173.314 -88.4235C171.35 -89.2286 169.743 -88.0656 169.475 -85.9185C169.386 -84.7554 169.296 -83.5924 170.011 -82.6083C171.618 -80.1928 173.85 -78.4929 176.618 -77.6878C178.94 -76.972 180.904 -79.1192 180.368 -81.4452C179.832 -83.8608 178.315 -85.4711 176.35 -86.9026C175.279 -87.3499 174.297 -87.9761 173.314 -88.4235ZM240.102 161.808C239.031 160.645 237.692 159.661 236.352 158.498C236.263 157.782 236.263 156.887 235.995 156.172C235.37 153.398 232.781 151.43 229.923 151.609C228.941 151.699 228.048 152.325 228.048 153.756C228.852 156.261 231.709 157.066 233.316 159.035C233.495 164.85 234.12 165.655 239.299 167.086C241.442 164.581 241.62 163.508 240.102 161.808ZM284.211 433.958C284.568 432.616 284.3 431.632 283.497 430.917C282.782 430.29 281.979 429.664 281.175 429.127C277.514 426.443 275.639 427.159 273.586 429.843C273.05 430.469 272.336 431.006 272.514 432.348C274.389 434.584 276.979 436.016 280.104 437C281.532 435.926 283.229 435.211 284.211 433.958ZM272.603 333.937C271.621 333.132 270.371 332.595 268.943 333.222C267.693 334.385 267.603 335.995 268.496 337.158C270.996 340.468 274.3 342.884 278.318 343.868C279.3 344.136 280.282 343.599 280.997 341.81C278.407 339.126 275.639 336.442 272.603 333.937ZM345.374 170.397C343.499 169.591 341.356 169.323 339.213 170.039C338.32 170.307 337.784 171.649 338.141 172.454C339.302 175.228 341.802 176.48 344.481 177.375C346.624 178.091 348.231 177.017 349.927 175.407C349.481 172.365 347.338 171.291 345.374 170.397ZM182.243 361.134C179.565 358.808 176.797 356.482 174.029 354.246C173.136 353.53 171.975 353.172 170.814 353.709C169.475 354.246 168.671 355.14 168.493 356.482C168.671 357.824 169.564 358.629 170.725 358.898C174.029 359.792 177.243 360.955 180.1 362.924C180.457 363.192 180.993 363.192 181.529 363.192C182.065 363.192 182.422 362.834 182.69 362.297C182.511 362.029 182.511 361.403 182.243 361.134ZM306.355 273.817C307.962 274.801 309.747 275.785 311.89 274.712C312.962 272.028 312.337 269.881 310.015 268.27C307.426 266.392 304.747 265.944 301.712 268.092C301.89 271.581 304.301 272.565 306.355 273.817ZM257.246 279.185C258.406 280.348 259.835 281.243 261.532 281.243C262.424 281.243 263.139 280.974 263.675 280.348C264.567 279.364 265.192 278.201 265.371 276.859C265.46 276.054 265.282 275.249 264.657 274.622C263.317 273.28 261.799 272.386 259.835 273.012C258.317 273.549 256.621 273.638 255.46 274.891C254.924 276.859 256.085 278.112 257.246 279.185ZM301.176 243.22C299.211 241.968 297.247 241.073 295.015 242.326C294.301 244.205 295.283 245.368 296.354 246.352C299.211 248.767 302.247 250.646 306.533 251.272C306.265 247.157 305.194 245.725 301.176 243.22ZM309.033 293.857C309.658 295.11 310.908 295.647 312.605 294.752C312.515 292.426 314.391 290.547 314.926 288.31C314.033 286.163 312.515 285.09 310.462 284.821C308.855 284.642 307.694 285.537 306.355 287.147C307.247 289.384 307.962 291.71 309.033 293.857ZM126.527 -60.5106C124.206 -59.7054 122.509 -58.0951 121.527 -55.8585C122.152 -54.0692 123.223 -53.1745 124.92 -53.3535C126.884 -53.4429 128.759 -53.6219 130.992 -53.8008C132.063 -57.9161 131.438 -58.7213 126.527 -60.5106ZM133.224 291.531C133.224 293.589 134.206 295.289 135.545 296.72C136.795 298.062 138.135 299.225 140.278 298.957C140.635 298.688 141.081 298.509 141.438 298.152C141.974 297.525 142.331 296.81 142.778 295.915C139.295 290.189 137.867 289.563 133.224 291.531ZM170.546 108.487C171.171 108.756 171.796 108.666 172.511 108.219C173.582 106.877 173.404 105.446 172.332 104.283C170.1 101.956 167.332 100.525 164.028 100.615C162.778 100.615 161.796 101.151 161.618 103.03C164.207 105.177 167.064 107.235 170.546 108.487ZM190.547 37.3633C192.244 37.5422 193.315 36.2002 192.958 34.5899C192.511 32.0849 190.726 30.6535 188.761 29.4904C187.243 28.5958 185.725 28.7747 184.833 30.0272C183.761 31.4586 183.85 33.1584 185.1 34.5004C185.547 34.9477 186.083 35.3951 185.993 35.2161C187.779 36.5581 189.029 37.2738 190.547 37.3633ZM265.014 260.487C263.942 259.056 262.424 257.982 260.639 257.535C259.567 257.266 258.674 257.893 258.049 258.608C257.514 259.235 257.335 260.129 257.781 260.934C259.389 263.976 261.532 266.213 265.639 266.481C266.532 263.976 266.175 262.097 265.014 260.487ZM282.425 160.645C284.479 161.54 285.997 160.466 285.997 158.14C285.997 157.156 285.729 156.172 285.015 155.456C284.032 154.382 282.872 153.488 281.443 152.862C280.193 152.325 279.032 152.414 278.229 153.219C277.336 154.204 277.336 155.277 277.782 156.44C278.318 157.872 279.479 158.856 280.729 159.84C281.264 160.019 281.889 160.377 282.425 160.645ZM263.049 248.409C262.157 247.515 261.085 246.71 259.924 246.083C258.317 245.099 256.889 245.368 255.996 246.62C254.924 248.052 255.014 249.841 256.442 251.004C257.424 251.898 258.496 252.614 259.567 253.24C260.996 254.046 262.335 253.867 263.675 252.883C264.657 251.183 264.21 249.662 263.049 248.409ZM151.171 302.267C153.046 303.519 154.832 305.04 157.242 305.13C157.689 305.13 158.046 304.682 158.671 304.414C158.135 300.925 155.099 299.493 152.689 297.883C151.26 296.899 149.564 295.378 147.153 297.167C147.867 299.672 149.385 301.104 151.171 302.267ZM93.9367 43.1785C91.8831 42.6417 89.6509 43.9836 88.9366 46.0413C88.4901 47.2938 89.5616 48.9041 91.5259 49.7093C92.1509 49.9777 92.776 50.1566 93.401 50.2461C95.3653 50.5145 96.9725 49.5304 97.5083 47.6517C97.8654 46.3992 97.2404 44.9677 95.3653 43.8047C95.1868 43.6258 94.5617 43.3574 93.9367 43.1785ZM398.143 225.059C399.929 225.507 401.447 224.791 402.251 223.18C402.965 221.839 402.608 220.586 401.09 219.334C400.108 218.528 399.036 217.634 397.697 217.723C396.536 217.902 395.554 218.528 394.661 219.244C394.215 219.691 393.768 220.139 393.232 220.765C394.125 223.538 396 224.522 398.143 225.059ZM218.852 201.799C217.423 204.214 217.512 205.288 219.119 207.077C220.102 208.151 221.352 209.045 222.87 209.314C224.209 209.582 225.459 209.314 226.798 207.793C225.37 203.856 222.78 201.977 218.852 201.799ZM133.045 29.1325C134.027 29.4009 135.01 29.1326 135.635 28.2379C136.349 27.3433 136.974 26.2697 136.349 25.1066C135.277 23.1384 133.67 21.8859 131.349 21.707C129.92 21.6175 128.313 22.6911 127.956 24.0331C127.599 25.2856 128.313 26.1802 129.206 26.9854C129.563 27.2538 130.009 27.5222 131.081 28.3274C131.349 28.3274 132.152 28.8642 133.045 29.1325ZM164.832 271.133C165.725 271.67 166.796 271.581 167.6 270.865C168.403 270.149 168.582 269.165 168.314 268.181C167.957 266.928 167.332 265.766 166.796 264.513C164.653 263.976 162.689 262.813 160.368 264.513C159.921 268.36 162.332 269.791 164.832 271.133ZM165.725 36.2897C166.796 37.5422 167.957 38.7052 169.743 38.7052C170.904 38.7052 171.886 37.9 172.332 36.737C172.779 35.7529 172.6 34.7688 171.796 34.0531C170.189 32.3533 168.314 31.1902 165.457 31.6376C164.653 34.411 164.653 34.9477 165.725 36.2897ZM85.9007 124.77C84.3828 122.891 82.5078 121.818 80.0077 122.265C78.7577 124.859 78.6684 125.217 79.3827 126.38C80.8113 128.527 82.5971 130.048 85.6329 129.69C86.9722 127.812 87.0615 126.291 85.9007 124.77ZM180.1 330.269C181.529 331.164 183.047 331.701 184.743 331.432C185.815 331.253 186.529 330.538 186.797 329.553C187.065 328.748 186.886 327.943 186.351 327.227C185.368 326.154 184.118 325.259 182.6 325.08C180.815 324.901 179.029 324.812 177.69 326.243C178.315 328.927 178.582 329.285 180.1 330.269ZM411.983 98.2884C414.037 98.3779 415.733 97.3043 416.269 95.2466C415.644 93.2784 414.394 92.2943 412.697 92.0259C410.644 91.7575 408.769 92.1154 407.34 94.352C408.054 97.0359 409.751 98.2884 411.983 98.2884ZM267.425 155.456C265.996 153.667 264.3 152.146 261.889 152.235C260.282 153.667 259.835 155.367 260.996 156.798C262.603 158.856 264.478 160.734 267.693 160.019C268.585 158.051 268.407 156.619 267.425 155.456ZM114.205 53.0195C113.134 49.6199 110.634 47.7411 107.33 46.757C106.526 46.4886 105.723 46.757 105.187 47.92C105.544 50.7829 107.776 52.4827 110.098 53.8247C111.259 54.5404 112.687 55.435 114.027 53.9142C114.116 53.6458 114.295 53.2879 114.205 53.0195ZM203.94 343.778C205.458 344.315 207.423 343.331 208.048 341.9C208.583 340.647 207.958 339.663 207.066 338.858C205.994 337.874 204.744 336.979 202.869 337.158C202.512 337.426 201.887 337.695 201.44 338.142C200.815 338.679 200.369 339.395 200.28 340.647C200.994 342.347 202.333 343.241 203.94 343.778ZM373.321 215.487C372.25 214.86 371.178 214.681 370.107 215.308C369.214 216.202 369.124 217.276 369.66 218.439C370.375 219.781 371.357 220.854 372.875 221.212C374.928 221.57 376.982 221.749 379.214 222.107C377.16 218.26 375.821 216.829 373.321 215.487ZM185.904 163.955C187.243 164.939 188.404 166.102 190.19 166.013C191.261 166.013 192.065 165.476 192.422 164.402C192.69 163.597 192.69 162.703 192.154 162.076C190.726 160.466 189.029 159.214 186.708 159.214C185.636 159.214 184.743 159.571 184.297 160.556C183.94 162.166 184.833 163.15 185.904 163.955ZM299.211 65.1866C297.872 63.9341 296.533 62.8606 294.568 62.7711C293.408 62.7711 292.426 63.8447 292.604 65.0077C292.961 66.8865 294.211 68.139 295.729 69.2125C297.069 70.1072 298.497 70.9123 300.461 69.8388C301.176 67.7811 300.461 66.3497 299.211 65.1866ZM138.938 147.673C135.188 144.005 134.027 144.005 130.545 147.673C131.527 150.536 134.027 151.072 136.438 151.52C138.224 150.625 139.206 149.462 138.938 147.673ZM258.317 407.029C259.567 408.55 260.996 409.892 263.139 410.071C263.407 410.071 263.585 409.713 264.121 409.356C262.424 406.403 262.871 401.93 257.781 400.946C255.728 403.54 256.978 405.419 258.317 407.029ZM415.019 289.205C416.358 287.953 416.001 286.611 414.93 285.358C413.947 284.195 412.876 283.211 411.358 283.032C410.108 282.853 408.769 282.674 407.519 284.106C409.662 288.221 410.733 288.937 415.019 289.205ZM256.174 122.175C257.335 123.338 258.585 124.412 260.371 124.501C261.264 124.501 261.889 124.054 262.335 123.249C262.782 122.444 262.871 121.549 262.335 120.923C260.549 118.686 258.585 116.807 255.103 117.434C254.924 120.207 255.014 121.012 256.174 122.175ZM293.586 95.6045C294.568 95.515 295.461 94.5309 295.283 93.6363C294.836 91.3102 292.158 88.8947 289.836 88.7157C288.943 88.6263 288.229 89.0736 287.783 89.7893C287.247 90.505 287.157 91.3997 287.604 92.1154C288.14 92.9206 288.854 93.6363 289.211 93.9941C290.729 94.9782 291.979 95.7834 293.586 95.6045ZM173.493 17.8601C173.761 19.381 174.832 20.4545 176.082 21.2597C177.332 22.0649 178.672 22.7806 180.1 21.886C181.35 18.1285 180.19 16.6076 175.011 14.8183C173.672 15.6234 173.225 16.6076 173.493 17.8601ZM425.108 260.934C424.216 259.503 422.876 258.519 421.18 258.25C420.287 258.161 419.573 258.429 419.037 259.145C418.501 259.861 418.412 260.755 418.858 261.471C420.108 263.797 421.805 265.318 424.751 265.318C426.091 263.708 425.912 262.276 425.108 260.934ZM101.883 219.155C100.991 218.171 100.008 217.365 98.5797 217.276C97.7761 217.276 96.9725 217.544 96.5261 218.349C96.9725 221.123 97.6868 222.286 100.098 223.628C101.348 224.344 102.687 225.238 104.116 223.717C104.473 221.66 103.133 220.497 101.883 219.155ZM230.102 188.379C230.191 190.168 231.441 191.331 233.049 191.779C234.388 192.136 235.638 192.047 236.352 190.258C235.638 187.842 235.191 185.158 232.066 183.816C230.191 185.069 230.013 186.769 230.102 188.379ZM254.924 284.732C253.942 283.39 252.513 282.585 250.817 282.406C250.013 282.316 249.21 282.495 248.674 283.211C247.96 284.106 247.96 285.09 248.585 285.895C250.103 288.132 251.978 289.742 255.103 289.384C255.906 287.416 255.728 285.984 254.924 284.732ZM242.335 337.516C241.084 336.442 239.834 335.279 238.049 335.458C236.531 335.637 235.459 337.426 236.084 338.768C236.799 340.379 238.227 341.273 239.745 341.989C240.995 342.615 242.335 342.526 243.495 341.363C244.031 339.931 243.495 338.589 242.335 337.516ZM275.103 410.966C276.354 412.845 277.604 414.723 278.943 416.513C279.479 417.228 280.372 417.228 280.997 416.423C281.086 410.519 280.014 409.087 275.103 409.266C275.103 410.071 274.925 410.698 275.103 410.966ZM294.926 183.727C293.943 182.564 292.783 181.759 291.265 181.669C290.461 181.58 289.658 181.848 289.033 182.832C288.586 186.321 291.354 187.574 294.211 189.005C296.176 186.59 296.354 185.337 294.926 183.727ZM144.385 272.565C145.456 273.28 146.706 273.817 148.046 273.549C149.028 273.37 149.831 272.833 150.189 271.76C150.456 270.865 150.189 270.149 149.653 269.523C148.76 268.539 147.689 267.734 146.349 267.644C145.01 267.465 143.76 267.823 142.688 269.344C143.313 271.76 143.403 271.939 144.385 272.565ZM462.878 106.788C462.342 109.382 464.038 110.277 465.378 111.35C468.146 113.497 469.217 113.676 472.164 112.692C469.842 109.382 466.806 107.772 462.878 106.788ZM81.7935 278.827C83.4007 279.811 83.9364 279.632 85.9007 277.754C85.7222 276.054 84.5614 274.891 83.2221 273.996C82.1506 273.28 80.9899 272.654 79.6505 273.28C78.9362 275.964 79.472 277.306 81.7935 278.827ZM199.208 135.863C198.494 134.7 197.512 133.895 196.262 133.537C195.458 133.269 194.654 133.269 193.94 133.895C193.226 134.521 193.047 135.327 193.315 136.132C194.208 138.816 195.994 140.337 199.208 140.605C199.833 137.384 199.833 136.848 199.208 135.863ZM262.067 370.707C263.764 371.96 265.46 373.212 267.782 372.138C268.228 369.902 266.532 369.186 265.371 368.291C263.764 367.128 262.157 365.518 259.657 366.413C259.21 368.56 260.728 369.723 262.067 370.707ZM138.224 -5.13226C137.152 -5.40065 135.992 -4.68492 135.456 -3.61135C135.01 -2.62724 135.188 -1.7326 135.902 -0.927429C136.706 -0.122246 137.599 0.593452 138.849 0.593452C140.278 0.593452 141.17 -0.301193 142.242 -1.73262C141.438 -3.7903 140.01 -4.68493 138.224 -5.13226ZM54.9176 254.135C53.5782 253.509 52.1496 252.793 50.8103 254.225C50.3638 256.103 51.7925 256.909 53.0425 257.624C54.8283 258.608 56.7033 259.771 59.0248 258.787C57.9534 256.014 57.3284 255.209 54.9176 254.135ZM134.384 165.834C135.367 167.444 136.974 168.249 138.581 168.965C139.206 169.234 139.831 169.144 140.456 168.697C141.17 168.16 141.349 167.355 141.26 166.46C141.17 165.566 140.724 164.939 140.01 164.402C138.938 163.687 137.867 162.882 136.081 162.524C134.652 163.329 133.938 164.224 134.384 165.834ZM203.048 327.406C202.512 325.528 199.744 324.096 197.958 324.633C197.065 324.901 196.262 326.064 196.44 326.87C196.797 328.748 198.494 330.448 200.458 330.627C201.53 330.716 202.333 330.18 203.048 328.927C202.958 328.659 203.226 327.943 203.048 327.406ZM157.064 343.242C157.689 345.12 159.028 346.104 160.993 346.194C162.51 344.941 162.868 343.42 162.243 341.81C161.707 340.379 160.368 339.573 158.76 339.752C157.242 340.379 156.528 341.542 157.064 343.242ZM331.087 358.719C329.837 357.735 328.498 356.661 326.712 356.93C325.552 357.108 324.748 358.629 325.373 359.613C326.266 361.134 327.605 362.029 329.123 362.566C330.284 363.013 331.623 363.46 332.784 362.297C333.409 360.598 332.248 359.613 331.087 358.719ZM212.78 165.476C212.691 166.55 213.316 167.355 214.119 167.892C214.923 168.428 215.727 168.965 216.619 169.323C217.691 169.77 218.941 168.876 219.119 167.713C219.298 166.55 219.209 165.387 218.316 164.581C217.423 163.687 216.352 162.792 215.012 162.792C213.494 163.061 212.869 164.045 212.78 165.476ZM194.119 270.06C195.012 271.312 195.994 272.386 197.512 272.654C198.404 272.833 199.119 272.654 199.655 271.939C200.19 271.223 200.28 270.328 199.833 269.612C198.583 267.465 196.887 266.213 194.208 266.928C193.315 268.27 193.494 269.165 194.119 270.06ZM356.535 352.993C355.374 353.083 354.481 354.425 354.749 355.409C355.195 356.93 356.713 358.271 358.231 358.271C359.838 358.271 360.999 357.466 361.178 355.498C360.196 353.709 358.678 352.814 356.535 352.993ZM299.39 352.188C299.926 353.798 301.354 354.335 302.872 354.514C304.39 354.693 305.819 354.514 306.355 352.546C305.462 349.951 303.229 349.593 300.819 349.415C299.39 350.22 299.033 351.204 299.39 352.188ZM115.098 309.156C116.437 309.782 117.866 310.05 119.116 308.708C119.384 306.472 117.777 305.577 116.17 304.772C114.741 304.056 113.312 304.146 112.33 305.667C112.241 307.724 113.58 308.529 115.098 309.156ZM137.51 50.8724C138.581 51.5881 139.742 52.2143 141.17 51.3197C142.242 49.3515 141.17 48.0095 139.653 46.8465C138.224 45.7729 136.706 44.7888 134.831 46.6675C134.92 48.9041 136.17 49.9777 137.51 50.8724ZM106.973 99.0041C105.455 97.9305 104.205 97.9306 103.401 98.6463C102.508 99.5409 102.866 101.241 104.294 102.493C105.276 103.388 106.437 104.014 107.776 104.014C108.669 104.014 109.384 103.835 109.919 102.941C110.187 100.704 108.312 99.9882 106.973 99.0041ZM441.716 93.1889C440.645 92.4732 439.395 91.7575 438.323 93.2784C438.055 95.1572 438.948 96.4991 440.288 97.5727C441.18 98.2884 442.252 98.8252 443.413 98.1095C444.038 95.4256 443.77 94.6204 441.716 93.1889ZM309.569 -2.35886C310.373 -2.09046 311.176 -2.2694 311.712 -2.98512C312.158 -3.5219 312.158 -4.23762 311.89 -4.86387C311.087 -6.83208 309.39 -7.90565 307.426 -8.35297C306.801 -8.5319 306.176 -8.17403 305.729 -7.63725C305.283 -7.01099 305.372 -6.38477 305.551 -5.75851C305.819 -4.77441 306.622 -4.14814 307.783 -3.2535C308.14 -3.07457 308.855 -2.62724 309.569 -2.35886ZM343.677 12.6711C342.874 11.4186 341.445 10.9713 340.374 11.7765C339.034 12.7606 338.856 14.4604 339.838 15.6235C340.909 16.7865 342.07 17.4127 344.034 16.9654C344.481 14.2815 344.481 13.9236 343.677 12.6711ZM115.723 15.9813C116.705 14.9077 116.17 13.8342 115.366 13.029C113.759 11.4186 112.152 9.80829 109.562 10.7029C109.473 14.371 111.169 15.7129 115.723 15.9813ZM197.69 302.267C196.619 303.788 196.529 304.772 197.333 305.756C198.494 307.187 200.19 307.814 201.619 307.277C203.048 306.74 203.673 304.861 202.69 303.698C201.708 302.535 200.637 301.641 198.672 301.641C198.226 301.909 197.869 301.998 197.69 302.267ZM248.942 317.386C250.817 318.549 252.156 317.923 253.228 315.239C251.888 313.271 250.371 311.75 247.424 312.555C246.263 314.971 247.245 316.313 248.942 317.386ZM122.152 266.034C121.348 265.765 120.545 266.123 120.009 266.75C119.473 267.465 119.473 268.27 119.92 268.986C120.813 270.418 122.063 271.402 123.759 271.581C125.009 271.67 125.902 271.044 126.17 269.344C125.366 267.555 123.938 266.481 122.152 266.034ZM243.585 108.935C241.352 108.308 239.388 108.398 237.424 109.293C237.424 111.887 237.513 111.887 240.727 114.034C242.424 112.513 243.763 111.261 243.585 108.935ZM305.997 115.555C306.89 116.629 307.872 117.344 309.301 117.076C310.372 116.897 311.087 115.376 310.462 114.392C309.301 112.424 307.694 111.261 305.372 111.619C303.944 113.229 305.015 114.392 305.997 115.555ZM286.443 281.69C288.05 283.211 289.479 285.448 292.515 284.285C293.051 280.885 292.961 280.795 288.586 278.738C287.068 279.096 286.265 279.811 286.443 281.69ZM220.37 238.747C219.387 237.853 218.405 237.047 216.977 237.047C216.352 237.047 215.727 237.226 215.28 237.853C214.744 238.658 214.834 239.463 215.459 240.089C216.53 241.342 217.78 242.326 219.387 242.773C220.012 242.952 220.637 242.684 221.352 242.057C221.798 240.537 221.262 239.552 220.37 238.747ZM403.054 74.4015C404.483 74.2225 405.376 73.2384 405.197 71.6281C402.161 68.7652 402.161 68.7652 398.947 71.3597C399.661 73.5963 401.001 74.6698 403.054 74.4015ZM26.8809 209.94C27.8631 210.387 28.756 210.208 29.5596 209.403C30.1846 208.777 30.5417 208.151 30.3632 207.256C30.0953 206.182 29.381 205.645 28.3095 205.377C26.9702 205.109 25.7202 205.467 24.5594 206.898C24.738 208.508 25.6309 209.403 26.8809 209.94ZM293.051 385.916C293.586 384.753 293.14 383.411 291.89 382.606C290.64 381.801 289.211 382.069 288.408 383.053C287.604 384.127 287.961 385.469 289.3 386.363C290.729 387.437 292.336 387.258 293.051 385.916ZM234.566 208.329C232.87 207.345 231.263 207.524 230.727 208.687C230.191 209.761 230.727 210.924 232.156 211.908C233.674 212.982 235.281 213.697 236.977 212.266C236.352 209.671 236.174 209.314 234.566 208.329ZM82.9542 260.398C84.0257 261.561 85.4543 262.097 86.3472 261.65C87.3294 261.113 87.6865 260.219 87.5972 259.235C87.5079 257.803 86.6151 256.819 85.2757 256.461C84.2043 256.103 83.4007 256.551 82.6864 257.356C81.972 258.25 82.0613 259.414 82.9542 260.398ZM151.171 152.862C151.796 152.951 152.421 152.593 152.778 151.967C153.135 151.341 153.224 150.714 152.867 150.088C152.064 148.836 150.814 147.852 149.296 147.673C148.046 147.494 147.064 147.941 146.796 149.641C147.51 151.52 149.117 152.593 151.171 152.862ZM161.707 84.2425C160.189 85.5845 160.368 87.0159 161.439 88.5368C162.153 89.5209 163.046 90.2366 164.386 89.7893C165.368 89.1631 166.082 88.2684 165.903 86.5686C164.028 84.6898 164.028 84.7793 161.707 84.2425ZM209.119 0.235603C209.655 -0.748505 209.119 -2.00101 207.78 -3.07458C206.173 -4.32709 204.655 -4.506 203.851 -3.70082C202.869 -2.71671 203.494 -0.837967 205.28 0.325066C206.798 1.39864 208.494 1.30917 209.119 0.235603ZM54.114 31.9954C52.8639 31.1902 51.346 31.4586 50.721 32.6217C50.1853 33.5163 50.5424 34.8583 51.5246 35.6634C52.6853 36.5581 54.2033 36.4686 54.9176 35.395C55.6319 34.232 55.2747 32.7111 54.114 31.9954ZM171.975 232.037C170.636 231.68 169.475 231.948 169.118 233.558C170.904 235.795 171.439 236.242 172.6 236.69C173.761 237.137 174.386 236.779 175.457 234.99C174.832 233.379 173.672 232.395 171.975 232.037ZM54.8283 216.023C54.2033 214.86 53.2211 214.055 51.7032 214.592C50.2745 217.992 50.5424 218.439 53.8461 219.781C55.364 218.797 55.6319 217.455 54.8283 216.023ZM169.118 -4.41655C170.189 -3.61137 171.261 -2.80619 172.6 -3.87976C173.493 -5.57958 172.332 -6.65314 171.35 -7.63725C170.279 -8.62135 169.118 -9.51601 167.332 -8.44244C166.886 -6.65316 167.778 -5.40066 169.118 -4.41655ZM185.458 52.8406C184.208 52.0354 182.779 51.4986 181.708 53.1984C182.69 56.777 183.493 57.3138 187.065 56.8665C188.047 54.9877 186.886 53.8247 185.458 52.8406ZM384.214 123.07C385.643 124.144 386.982 125.933 389.125 124.949C389.572 124.144 389.661 123.428 389.214 122.891C387.786 121.102 386.089 119.67 383.321 119.313C383.053 122.086 383.053 122.265 384.214 123.07ZM189.386 307.366C188.226 308.977 188.226 308.977 188.404 309.335C189.208 311.392 190.547 312.466 193.226 312.376C193.761 309.066 193.404 308.708 189.386 307.366ZM234.388 99.8988C234.477 96.2307 233.316 95.2466 229.209 95.7834C229.566 99.6304 231.084 100.793 234.388 99.8988ZM356.892 206.719C357.696 207.703 358.767 208.508 360.106 208.508C361.267 208.508 362.071 207.166 361.535 206.093C360.463 204.035 358.856 203.051 356.624 203.588C355.731 204.84 356.088 205.824 356.892 206.719ZM177.511 -27.8562C178.493 -27.4983 179.386 -27.6772 180.1 -28.5719C180.725 -29.3771 181.082 -30.2717 180.547 -31.2558C180.1 -32.061 179.297 -32.2399 178.493 -32.2399C177.332 -32.1504 176.261 -31.9715 175.547 -30.8979C175.368 -29.1981 176.261 -28.393 177.511 -27.8562ZM210.101 103.298C208.583 103.925 208.048 104.819 208.405 106.161C208.762 107.414 209.744 108.04 210.816 108.398C211.798 108.756 212.78 108.756 213.851 107.503C213.762 104.73 212.155 103.746 210.101 103.298ZM170.1 281.332C169.475 280.348 168.671 279.543 167.421 279.275C166.796 279.185 166.171 279.185 165.546 280.08C165.457 282.764 166.975 284.285 169.654 284.732C171.261 283.748 170.904 282.585 170.1 281.332ZM225.102 -67.6677C225.727 -67.5783 226.441 -67.8467 226.709 -68.4729C227.066 -69.0992 227.066 -69.7254 226.62 -70.2622C225.37 -71.8726 224.388 -71.962 221.977 -70.6201C222.334 -68.4729 223.584 -67.8467 225.102 -67.6677ZM58.5784 187.842C57.8641 190.437 58.2212 191.6 60.007 192.315C61.1678 192.763 61.9714 191.957 62.5964 189.631C61.7035 188.2 60.4535 187.305 58.5784 187.842ZM239.12 184.8C240.281 185.516 241.531 186.142 242.513 184.532C241.352 181.222 240.906 180.864 237.245 180.864C236.352 182.922 237.781 183.906 239.12 184.8ZM214.119 142.215C214.476 141.947 214.655 141.41 214.655 140.963C214.655 139.8 213.584 138.726 212.155 138.458C211.53 138.368 210.905 138.458 210.28 138.637C209.476 138.816 209.03 139.889 209.387 140.605C209.655 141.142 210.101 141.679 210.191 141.947C211.798 142.842 213.137 143.021 214.119 142.215ZM188.94 366.144C188.047 365.697 187.065 365.518 186.261 366.771C186.886 369.186 188.493 370.349 191.44 370.349C191.708 367.755 190.458 366.86 188.94 366.144ZM24.738 86.5686C24.113 83.2584 23.7558 82.9006 19.9164 82.1849C21.345 86.3002 21.7022 86.5686 24.738 86.5686ZM325.373 247.604C324.569 247.246 323.766 247.246 323.051 247.694C322.248 248.141 321.891 248.857 322.159 249.93C323.141 251.272 324.391 252.346 326.355 252.435C327.516 250.02 327.248 248.409 325.373 247.604ZM188.493 224.075C189.654 224.165 190.726 222.912 190.458 221.839C190.101 220.407 188.583 219.244 187.243 219.512C185.904 219.691 185.368 220.676 185.458 222.017C185.993 223.359 187.065 223.986 188.493 224.075ZM244.745 367.039C244.388 366.234 243.763 365.786 242.87 365.786C242.067 365.697 241.263 365.965 240.906 366.771C240.549 367.576 240.817 368.381 241.352 369.007C241.977 369.723 242.781 370.26 244.12 369.812C245.013 368.918 245.192 367.934 244.745 367.039ZM406.894 241.342C406.269 242.952 407.251 243.757 408.412 244.473C409.662 245.278 410.912 245.994 412.608 244.473C410.287 240.984 409.751 240.715 406.894 241.342ZM384.75 283.211C385.821 283.569 386.982 283.748 387.607 282.316C385.732 279.096 385.286 278.827 381.714 279.453C381.893 281.869 383.143 282.674 384.75 283.211ZM67.5966 157.961C68.043 156.351 66.8823 155.546 65.8108 154.83C64.8286 154.204 63.8464 153.577 62.6857 154.561C63.5786 157.782 64.4715 158.408 67.5966 157.961ZM117.598 106.251C116.795 105.982 115.991 106.161 115.455 107.056C115.366 108.845 116.616 109.561 118.045 110.098C118.848 110.366 119.652 110.187 120.188 109.382C120.277 107.503 119.027 106.698 117.598 106.251ZM144.563 30.1167C145.456 30.7429 146.706 30.7429 147.153 30.0272C147.778 29.1325 147.778 28.2379 147.153 27.3433C146.438 26.1802 145.635 26.0908 143.224 26.8959C142.956 28.5063 143.581 29.4009 144.563 30.1167ZM264.746 324.543C263.675 324.186 262.871 324.543 262.514 325.975C263.407 328.033 264.746 329.285 267.603 328.39C267.693 325.885 266.353 325.08 264.746 324.543ZM112.866 39.3315C111.973 38.7947 111.08 38.5263 110.098 39.3315C109.652 40.4945 110.187 41.2997 110.991 41.9259C111.973 42.7311 112.955 43.7152 114.741 42.8206C115.009 40.9418 114.027 40.0472 112.866 39.3315ZM396.983 101.509C396.268 98.199 396.179 98.02 392.25 97.9306C393.857 101.688 394.393 102.046 396.983 101.509ZM309.122 41.9259C310.194 43.3574 311.444 44.5204 313.408 44.0731C313.408 41.2102 313.408 41.2102 309.837 39.6893C308.855 40.4051 308.587 41.2102 309.122 41.9259ZM306.712 391.105C309.033 394.057 309.48 394.147 311.176 392.357C309.033 389.405 308.587 389.316 306.712 391.105ZM315.819 173.349C315.641 175.317 316.801 176.301 318.409 176.838C319.391 177.106 320.373 176.927 320.641 175.228C318.051 172.544 318.051 172.544 315.819 173.349ZM123.134 214.86C122.688 214.771 122.152 214.86 121.795 215.039C121.17 215.397 121.08 216.023 121.17 216.739C121.348 217.813 122.063 218.439 123.045 218.797C124.027 219.155 124.92 219.244 125.545 218.17C124.652 215.576 124.473 215.308 123.134 214.86ZM0.630034 144.72C1.61221 145.526 3.04083 145.347 3.48728 144.363C3.84443 143.468 3.48727 142.842 2.77296 142.305C1.88008 141.679 0.808617 141.858 0.272885 142.663C-0.173559 143.468 -0.0842753 144.184 0.630034 144.72ZM381.803 299.404C382.696 299.583 383.411 299.225 383.5 297.883C382.428 296.452 381.089 295.468 379.036 296.452C379.928 298.957 379.928 299.046 381.803 299.404ZM114.473 -13.2735C114.92 -15.3312 113.58 -15.9574 112.241 -16.4048C111.348 -16.6731 110.723 -16.2258 110.455 -15.0628C111.348 -13.5419 112.419 -12.5578 114.473 -13.2735ZM122.152 301.104C122.598 303.072 123.67 303.967 126.17 303.967C125.545 300.567 124.831 300.12 122.152 301.104ZM122.063 235.616C121.884 232.843 121.616 232.574 117.955 232.485C118.67 234.99 119.92 235.795 122.063 235.616ZM199.387 365.339C200.19 365.876 201.083 366.144 201.976 365.339C201.44 362.655 201.44 362.655 198.226 362.208C197.601 363.818 198.404 364.713 199.387 365.339ZM259.21 -45.2122C258.764 -45.5701 258.139 -45.8385 257.514 -45.9279C256.799 -46.0174 256.264 -45.4806 256.264 -44.7649C256.174 -43.6913 256.889 -43.1545 258.853 -42.6178C258.942 -42.6178 259.121 -42.7072 259.567 -42.8862C260.014 -43.8703 259.835 -44.6754 259.21 -45.2122ZM158.135 -12.2894C159.117 -11.3948 160.1 -10.5896 161.528 -12.021C160.993 -13.8103 160.01 -14.7049 158.135 -14.7944C157.064 -13.8997 157.421 -13.0051 158.135 -12.2894ZM452.967 211.55C451.806 214.055 452.252 214.592 455.467 214.86C455.735 212.892 454.842 211.908 452.967 211.55ZM123.581 78.159C124.384 76.3697 123.223 75.654 122.152 74.9382C121.348 74.4015 120.455 73.9541 119.563 75.2961C120.277 77.0854 121.348 78.3379 123.581 78.159ZM237.334 -33.7608C238.763 -31.1663 238.763 -31.1663 241.352 -32.2399C239.477 -35.1028 239.477 -35.1028 237.334 -33.7608ZM352.428 284.464C351.535 284.106 350.91 284.464 350.552 285.537C350.999 287.237 352.16 288.132 354.481 288.042C355.017 285.805 353.856 285 352.428 284.464ZM243.763 152.862C245.013 153.041 245.638 152.593 245.46 151.251C244.477 149.999 243.317 149.283 241.442 150.625C242.067 151.967 242.692 152.683 243.763 152.862ZM78.8469 209.135C78.3112 207.345 77.2397 206.54 75.2754 206.898C76.1683 209.671 76.1683 209.671 78.8469 209.135ZM317.962 52.0354C319.212 54.0036 319.212 54.0036 321.355 53.5563C320.641 50.7829 319.837 50.5145 317.962 52.0354ZM308.319 201.62C307.605 201.172 306.89 200.993 306.176 201.977C306.622 203.319 307.337 204.393 309.301 204.214C309.837 202.783 309.212 202.067 308.319 201.62ZM340.552 27.7011C339.749 27.1644 338.856 26.717 337.963 28.059C338.677 29.4009 339.57 30.564 341.624 30.3851C342.338 29.1326 341.445 28.3274 340.552 27.7011ZM374.839 157.514C375.91 157.066 376.178 156.261 375.464 155.188C374.303 154.472 373.321 154.74 372.25 155.993C372.607 157.603 373.589 157.961 374.839 157.514ZM441.984 130.496C442.52 130.853 443.323 130.764 443.591 130.138C444.127 128.975 443.413 128.438 442.341 128.169C442.163 128.169 442.073 128.169 441.895 128.169C440.913 129.064 441.091 129.869 441.984 130.496ZM88.3115 74.312C87.5079 74.0436 86.7043 74.2225 86.7936 75.3856C87.3294 76.4591 88.133 77.0854 89.7402 76.817C90.3652 75.2066 89.4723 74.6698 88.3115 74.312ZM434.662 192.136C434.484 190.794 433.77 190.258 432.073 190.437C432.787 192.673 432.787 192.673 434.662 192.136ZM224.298 268.628C224.745 270.328 225.816 271.044 227.513 270.954C227.691 268.36 226.709 267.644 224.298 268.628ZM192.065 349.951C193.136 351.383 193.136 351.383 195.369 351.83C193.761 349.415 193.762 349.415 192.065 349.951ZM50.8103 105.893C50.2746 105.803 49.9174 106.161 49.6495 106.877C50.096 107.593 50.6317 108.308 51.7032 108.487C52.2389 108.577 52.5961 108.219 52.7746 107.682C52.6853 106.519 51.7925 106.072 50.8103 105.893ZM271.621 59.282C271.443 57.5822 270.639 56.777 268.407 56.777C269.121 59.9977 269.121 59.9977 271.621 59.282ZM362.606 16.876C362.071 16.5181 361.446 16.2497 360.91 16.9654C361.089 18.2179 361.803 18.5758 363.231 18.3074C363.321 17.5022 362.964 17.0549 362.606 16.876ZM279.568 66.4391C279.121 67.3338 279.121 68.0495 280.014 68.4968C281.086 69.0336 281.889 68.6758 282.247 67.5127C281.889 65.9918 280.997 65.5445 279.568 66.4391ZM272.603 -35.729C273.05 -35.3712 273.496 -35.4606 273.853 -35.8185C274.389 -36.3553 274.3 -37.071 273.764 -37.5183C273.407 -37.8762 272.871 -37.7867 272.425 -37.4288C272.068 -36.9815 272.157 -36.0869 272.603 -35.729ZM98.044 101.867C97.5976 100.614 96.794 100.078 95.4546 100.257C95.7225 102.583 96.0797 102.851 98.044 101.867ZM277.604 -26.4247C277.514 -26.4247 277.336 -26.1563 277.336 -26.0669C277.425 -24.9933 278.05 -24.6355 280.014 -24.9933C278.943 -25.9774 278.675 -26.7826 277.604 -26.4247ZM133.134 -25.709C133.759 -24.546 134.206 -23.7408 135.635 -24.0092C135.277 -25.709 135.277 -25.709 133.134 -25.709ZM247.87 230.517C248.317 231.948 249.12 232.485 250.549 231.769C249.478 229.532 249.478 229.532 247.87 230.517ZM89.1151 29.3115C89.7402 29.6693 90.3652 29.5799 90.633 28.7747C90.4545 27.7906 89.8294 27.4327 88.6687 27.5222C88.133 28.5063 88.4901 29.0431 89.1151 29.3115ZM476.36 128.08C476.092 127.991 475.735 128.259 475.557 128.438C475.289 128.885 475.467 129.422 476.003 129.511C476.271 129.601 476.539 129.333 476.807 129.154C476.985 128.617 476.807 128.169 476.36 128.08ZM229.209 -53.6219C229.388 -53.6219 229.745 -54.0692 229.656 -54.2481C229.477 -55.2322 228.852 -55.5006 227.602 -55.1428C227.691 -53.8008 228.316 -53.4429 229.209 -53.6219ZM246.888 116.45C247.067 116.539 247.424 116.36 247.603 116.271C247.513 116.002 247.424 115.644 247.245 115.555C247.067 115.466 246.71 115.644 246.442 115.734C246.62 116.002 246.71 116.36 246.888 116.45ZM290.372 27.3433C290.64 27.3433 290.997 27.0749 291.086 26.8065C291.265 26.2697 290.908 25.8224 290.283 25.8224C290.015 25.8224 289.747 26.1802 289.568 26.2697C289.568 26.896 289.836 27.2538 290.372 27.3433ZM87.7758 302.983C87.5079 302.267 87.0615 301.998 86.0793 301.998C86.5258 302.983 86.8829 303.519 87.7758 302.983ZM25.7202 144.899C25.5416 144.899 25.0951 145.078 25.0058 145.257C24.8273 145.704 25.0951 146.152 25.6309 146.241C25.8095 146.241 26.0773 145.973 26.3452 145.883C26.5238 145.347 26.2559 144.989 25.7202 144.899ZM125.991 -88.9602C125.902 -89.0497 125.634 -88.9602 125.545 -88.9602C125.545 -88.6918 125.545 -88.4235 125.545 -88.1551C125.813 -88.1551 126.081 -88.2445 126.349 -88.2445C126.259 -88.5129 126.17 -88.7813 125.991 -88.9602ZM199.922 149.551C199.833 149.283 199.744 148.836 199.565 148.657C199.208 148.388 198.762 148.299 197.869 148.031C198.226 149.999 198.762 150.446 199.922 149.551ZM287.336 248.857C287.515 248.946 287.961 248.857 288.14 248.678C288.586 248.23 288.229 247.336 287.604 247.336C287.336 247.336 287.068 247.604 286.89 247.694C286.8 248.141 286.89 248.678 287.336 248.857ZM115.634 96.2307C115.187 95.4255 115.009 94.6204 113.491 95.3361C114.116 95.8729 114.384 96.678 115.634 96.2307ZM40.6314 155.277C40.4528 155.098 39.9171 155.009 39.8278 155.098C39.292 155.546 39.6492 155.903 40.0064 156.172C40.1849 156.261 40.5421 156.082 40.81 155.993C40.7207 155.814 40.81 155.367 40.6314 155.277ZM143.135 103.567C142.956 102.941 142.688 102.493 141.885 102.851C142.063 103.477 142.331 103.925 143.135 103.567ZM147.063 346.104H146.796L146.974 346.373L147.063 346.104ZM285.64 50.7829C285.55 50.6934 285.372 50.6934 285.282 50.7829C285.015 51.0513 285.015 51.3197 285.282 51.4092C285.372 51.4092 285.55 51.3197 285.64 51.2302C285.729 50.9618 285.729 50.8724 285.64 50.7829ZM367.071 283.3L366.714 283.211L366.803 283.479L367.071 283.3ZM250.192 -20.2517C247.87 -17.1205 247.245 -15.4206 247.245 -10.9474C251.085 -6.92153 255.281 -3.70084 261.978 -5.75851C261.71 -14.7049 257.514 -19.8044 250.192 -20.2517Z" fill="#4E7D64"/>
</svg>
